source
<glyph name="exclam" format="2">
  <advance width="323" height="1000"/>
  <unicode hex="0021"/>
  <outline>
    <contour>
      <point x="130" y="221" type="line"/>
      <point x="193" y="221" type="line"/>
      <point x="205" y="645" type="line"/>
      <point x="207" y="749" type="line"/>
      <point x="115" y="749" type="line"/>
      <point x="117" y="645" type="line"/>
    </contour>
    <contour>
      <point x="161" y="-13" type="curve"/>
      <point x="198" y="-13"/>
      <point x="227" y="15"/>
      <point x="227" y="56" type="curve"/>
      <point x="227" y="98"/>
      <point x="198" y="126"/>
      <point x="161" y="126" type="curve"/>
      <point x="125" y="126"/>
      <point x="95" y="98"/>
      <point x="95" y="56" type="curve"/>
      <point x="95" y="15"/>
      <point x="125" y="-13"/>
    </contour>
  </outline>
</glyph>
<glyph name="ampersand" format="2">
  <advance width="680" height="1000"/>
  <unicode hex="0026"/>
  <outline>
    <contour>
      <point x="259" y="-13" type="curve"/>
      <point x="345" y="-13"/>
      <point x="414" y="20"/>
      <point x="470" y="71" type="curve"/>
      <point x="530" y="29"/>
      <point x="587" y="0"/>
      <point x="639" y="-13" type="curve"/>
      <point x="663" y="63" type="line"/>
      <point x="622" y="74"/>
      <point x="575" y="98"/>
      <point x="526" y="133" type="curve"/>
      <point x="584" y="209"/>
      <point x="626" y="298"/>
      <point x="654" y="395" type="curve"/>
      <point x="569" y="395" type="line"/>
      <point x="546" y="311"/>
      <point x="511" y="239"/>
      <point x="466" y="179" type="curve"/>
      <point x="397" y="236"/>
      <point x="328" y="309"/>
      <point x="280" y="385" type="curve"/>
      <point x="362" y="444"/>
      <point x="445" y="506"/>
      <point x="445" y="602" type="curve"/>
      <point x="445" y="687"/>
      <point x="392" y="746"/>
      <point x="301" y="746" type="curve"/>
      <point x="200" y="746"/>
      <point x="133" y="671"/>
      <point x="133" y="574" type="curve"/>
      <point x="133" y="521"/>
      <point x="151" y="462"/>
      <point x="181" y="402" type="curve"/>
      <point x="105" y="350"/>
      <point x="36" y="289"/>
      <point x="36" y="190" type="curve"/>
      <point x="36" y="72"/>
      <point x="127" y="-13"/>
    </contour>
    <contour>
      <point x="410" y="119" type="curve"/>
      <point x="368" y="83"/>
      <point x="320" y="60"/>
      <point x="270" y="60" type="curve"/>
      <point x="188" y="60"/>
      <point x="125" y="113"/>
      <point x="125" y="195" type="curve"/>
      <point x="125" y="252"/>
      <point x="166" y="297"/>
      <point x="218" y="338" type="curve"/>
      <point x="269" y="259"/>
      <point x="338" y="182"/>
    </contour>
    <contour>
      <point x="246" y="445" type="curve"/>
      <point x="224" y="490"/>
      <point x="211" y="535"/>
      <point x="211" y="575" type="curve"/>
      <point x="211" y="635"/>
      <point x="246" y="682"/>
      <point x="302" y="682" type="curve"/>
      <point x="351" y="682"/>
      <point x="371" y="643"/>
      <point x="371" y="600" type="curve"/>
      <point x="371" y="535"/>
      <point x="313" y="491"/>
    </contour>
  </outline>
</glyph>
<glyph name="parenleft" format="2">
  <advance width="338" height="1000"/>
  <unicode hex="0028"/>
  <outline>
    <contour>
      <point x="239" y="-196" type="curve"/>
      <point x="295" y="-171" type="line"/>
      <point x="209" y="-29"/>
      <point x="168" y="141"/>
      <point x="168" y="311" type="curve"/>
      <point x="168" y="480"/>
      <point x="209" y="649"/>
      <point x="295" y="792" type="curve"/>
      <point x="239" y="818" type="line"/>
      <point x="147" y="668"/>
      <point x="92" y="507"/>
      <point x="92" y="311" type="curve"/>
      <point x="92" y="114"/>
      <point x="147" y="-47"/>
    </contour>
  </outline>
</glyph>
<glyph name="plus" format="2">
  <advance width="555" height="1000"/>
  <unicode hex="002B"/>
  <outline>
    <contour>
      <point x="241" y="116" type="line"/>
      <point x="314" y="116" type="line"/>
      <point x="314" y="335" type="line"/>
      <point x="518" y="335" type="line"/>
      <point x="518" y="403" type="line"/>
      <point x="314" y="403" type="line"/>
      <point x="314" y="622" type="line"/>
      <point x="241" y="622" type="line"/>
      <point x="241" y="403" type="line"/>
      <point x="38" y="403" type="line"/>
      <point x="38" y="335" type="line"/>
      <point x="241" y="335" type="line"/>
    </contour>
  </outline>
</glyph>
<glyph name="slash" format="2">
  <advance width="392" height="1000"/>
  <unicode hex="002F"/>
  <outline>
    <contour>
      <point x="11" y="-179" type="line"/>
      <point x="78" y="-179" type="line"/>
      <point x="377" y="794" type="line"/>
      <point x="311" y="794" type="line"/>
    </contour>
  </outline>
</glyph>
<glyph name="four" format="2">
  <advance width="555" height="1000"/>
  <unicode hex="0034"/>
  <outline>
    <contour>
      <point x="340" y="0" type="line"/>
      <point x="426" y="0" type="line"/>
      <point x="426" y="202" type="line"/>
      <point x="524" y="202" type="line"/>
      <point x="524" y="275" type="line"/>
      <point x="426" y="275" type="line"/>
      <point x="426" y="733" type="line"/>
      <point x="325" y="733" type="line"/>
      <point x="20" y="262" type="line"/>
      <point x="20" y="202" type="line"/>
      <point x="340" y="202" type="line"/>
    </contour>
    <contour>
      <point x="340" y="275" type="line"/>
      <point x="115" y="275" type="line"/>
      <point x="282" y="525" type="line"/>
      <point x="303" y="561"/>
      <point x="323" y="598"/>
      <point x="341" y="633" type="curve"/>
      <point x="345" y="633" type="line"/>
      <point x="343" y="596"/>
      <point x="340" y="536"/>
      <point x="340" y="500" type="curve"/>
    </contour>
  </outline>
</glyph>
<glyph name="six" format="2">
  <advance width="555" height="1000"/>
  <unicode hex="0036"/>
  <outline>
    <contour>
      <point x="301" y="-13" type="curve"/>
      <point x="415" y="-13"/>
      <point x="512" y="83"/>
      <point x="512" y="225" type="curve"/>
      <point x="512" y="379"/>
      <point x="432" y="455"/>
      <point x="308" y="455" type="curve"/>
      <point x="251" y="455"/>
      <point x="187" y="422"/>
      <point x="142" y="367" type="curve"/>
      <point x="146" y="594"/>
      <point x="229" y="671"/>
      <point x="331" y="671" type="curve"/>
      <point x="375" y="671"/>
      <point x="419" y="649"/>
      <point x="447" y="615" type="curve"/>
      <point x="499" y="671" type="line"/>
      <point x="458" y="715"/>
      <point x="403" y="746"/>
      <point x="327" y="746" type="curve"/>
      <point x="185" y="746"/>
      <point x="56" y="637"/>
      <point x="56" y="350" type="curve"/>
      <point x="56" y="108"/>
      <point x="161" y="-13"/>
    </contour>
    <contour>
      <point x="144" y="294" type="curve"/>
      <point x="192" y="362"/>
      <point x="248" y="387"/>
      <point x="293" y="387" type="curve"/>
      <point x="382" y="387"/>
      <point x="425" y="324"/>
      <point x="425" y="225" type="curve"/>
      <point x="425" y="125"/>
      <point x="371" y="59"/>
      <point x="301" y="59" type="curve"/>
      <point x="209" y="59"/>
      <point x="154" y="142"/>
    </contour>
  </outline>
</glyph>
<glyph name="eight" format="2">
  <advance width="555" height="1000"/>
  <unicode hex="0038"/>
  <outline>
    <contour>
      <point x="280" y="-13" type="curve"/>
      <point x="417" y="-13"/>
      <point x="509" y="70"/>
      <point x="509" y="176" type="curve"/>
      <point x="509" y="277"/>
      <point x="450" y="332"/>
      <point x="386" y="369" type="curve"/>
      <point x="386" y="374" type="line"/>
      <point x="429" y="408"/>
      <point x="483" y="474"/>
      <point x="483" y="551" type="curve"/>
      <point x="483" y="664"/>
      <point x="407" y="744"/>
      <point x="282" y="744" type="curve"/>
      <point x="168" y="744"/>
      <point x="81" y="669"/>
      <point x="81" y="558" type="curve"/>
      <point x="81" y="481"/>
      <point x="127" y="426"/>
      <point x="180" y="389" type="curve"/>
      <point x="180" y="385" type="line"/>
      <point x="113" y="349"/>
      <point x="46" y="280"/>
      <point x="46" y="182" type="curve"/>
      <point x="46" y="69"/>
      <point x="144" y="-13"/>
    </contour>
    <contour>
      <point x="330" y="398" type="curve"/>
      <point x="243" y="432"/>
      <point x="164" y="471"/>
      <point x="164" y="558" type="curve"/>
      <point x="164" y="629"/>
      <point x="213" y="676"/>
      <point x="281" y="676" type="curve"/>
      <point x="359" y="676"/>
      <point x="405" y="619"/>
      <point x="405" y="546" type="curve"/>
      <point x="405" y="492"/>
      <point x="379" y="442"/>
    </contour>
    <contour>
      <point x="281" y="55" type="curve"/>
      <point x="193" y="55"/>
      <point x="127" y="112"/>
      <point x="127" y="190" type="curve"/>
      <point x="127" y="260"/>
      <point x="169" y="318"/>
      <point x="228" y="356" type="curve"/>
      <point x="332" y="314"/>
      <point x="422" y="278"/>
      <point x="422" y="179" type="curve"/>
      <point x="422" y="106"/>
      <point x="366" y="55"/>
    </contour>
  </outline>
</glyph>
<glyph name="R" format="2">
  <advance width="635" height="1000"/>
  <unicode hex="0052"/>
  <outline>
    <contour>
      <point x="193" y="385" type="line"/>
      <point x="193" y="658" type="line"/>
      <point x="316" y="658" type="line"/>
      <point x="431" y="658"/>
      <point x="494" y="624"/>
      <point x="494" y="528" type="curve"/>
      <point x="494" y="432"/>
      <point x="431" y="385"/>
      <point x="316" y="385" type="curve"/>
    </contour>
    <contour>
      <point x="503" y="0" type="line"/>
      <point x="607" y="0" type="line"/>
      <point x="421" y="321" type="line"/>
      <point x="520" y="345"/>
      <point x="586" y="413"/>
      <point x="586" y="528" type="curve"/>
      <point x="586" y="680"/>
      <point x="479" y="733"/>
      <point x="330" y="733" type="curve"/>
      <point x="101" y="733" type="line"/>
      <point x="101" y="0" type="line"/>
      <point x="193" y="0" type="line"/>
      <point x="193" y="311" type="line"/>
      <point x="325" y="311" type="line"/>
    </contour>
  </outline>
</glyph>
<glyph name="W" format="2">
  <advance width="878" height="1000"/>
  <unicode hex="0057"/>
  <outline>
    <contour>
      <point x="181" y="0" type="line"/>
      <point x="291" y="0" type="line"/>
      <point x="400" y="442" type="line"/>
      <point x="412" y="500"/>
      <point x="426" y="553"/>
      <point x="437" y="609" type="curve"/>
      <point x="441" y="609" type="line"/>
      <point x="453" y="553"/>
      <point x="464" y="500"/>
      <point x="477" y="442" type="curve"/>
      <point x="588" y="0" type="line"/>
      <point x="700" y="0" type="line"/>
      <point x="851" y="733" type="line"/>
      <point x="763" y="733" type="line"/>
      <point x="684" y="334" type="line"/>
      <point x="671" y="255"/>
      <point x="657" y="176"/>
      <point x="644" y="96" type="curve"/>
      <point x="638" y="96" type="line"/>
      <point x="620" y="176"/>
      <point x="604" y="256"/>
      <point x="586" y="334" type="curve"/>
      <point x="484" y="733" type="line"/>
      <point x="399" y="733" type="line"/>
      <point x="298" y="334" type="line"/>
      <point x="280" y="255"/>
      <point x="262" y="176"/>
      <point x="246" y="96" type="curve"/>
      <point x="242" y="96" type="line"/>
      <point x="227" y="176"/>
      <point x="213" y="255"/>
      <point x="198" y="334" type="curve"/>
      <point x="121" y="733" type="line"/>
      <point x="26" y="733" type="line"/>
    </contour>
  </outline>
</glyph>
<glyph name="r" format="2">
  <advance width="388" height="1000"/>
  <unicode hex="0072"/>
  <outline>
    <contour>
      <point x="92" y="0" type="line"/>
      <point x="184" y="0" type="line"/>
      <point x="184" y="349" type="line"/>
      <point x="220" y="441"/>
      <point x="275" y="475"/>
      <point x="320" y="475" type="curve"/>
      <point x="343" y="475"/>
      <point x="355" y="472"/>
      <point x="373" y="466" type="curve"/>
      <point x="390" y="545" type="line"/>
      <point x="373" y="554"/>
      <point x="356" y="557"/>
      <point x="332" y="557" type="curve"/>
      <point x="272" y="557"/>
      <point x="216" y="513"/>
      <point x="178" y="444" type="curve"/>
      <point x="176" y="444" type="line"/>
      <point x="167" y="543" type="line"/>
      <point x="92" y="543" type="line"/>
    </contour>
  </outline>
</glyph>
<glyph name="v" format="2">
  <advance width="521" height="1000"/>
  <unicode hex="0076"/>
  <outline>
    <contour>
      <point x="209" y="0" type="line"/>
      <point x="316" y="0" type="line"/>
      <point x="508" y="543" type="line"/>
      <point x="418" y="543" type="line"/>
      <point x="315" y="234" type="line"/>
      <point x="299" y="181"/>
      <point x="281" y="126"/>
      <point x="265" y="74" type="curve"/>
      <point x="260" y="74" type="line"/>
      <point x="244" y="126"/>
      <point x="227" y="181"/>
      <point x="210" y="234" type="curve"/>
      <point x="108" y="543" type="line"/>
      <point x="13" y="543" type="line"/>
    </contour>
  </outline>
</glyph>
<glyph name="x" format="2">
  <advance width="498" height="1000"/>
  <unicode hex="0078"/>
  <outline>
    <contour>
      <point x="15" y="0" type="line"/>
      <point x="111" y="0" type="line"/>
      <point x="184" y="127" type="line"/>
      <point x="203" y="160"/>
      <point x="220" y="193"/>
      <point x="239" y="224" type="curve"/>
      <point x="244" y="224" type="line"/>
      <point x="265" y="193"/>
      <point x="285" y="160"/>
      <point x="303" y="127" type="curve"/>
      <point x="383" y="0" type="line"/>
      <point x="483" y="0" type="line"/>
      <point x="304" y="274" type="line"/>
      <point x="469" y="543" type="line"/>
      <point x="374" y="543" type="line"/>
      <point x="307" y="424" type="line"/>
      <point x="290" y="393"/>
      <point x="275" y="364"/>
      <point x="259" y="333" type="curve"/>
      <point x="254" y="333" type="line"/>
      <point x="236" y="364"/>
      <point x="217" y="393"/>
      <point x="201" y="424" type="curve"/>
      <point x="128" y="543" type="line"/>
      <point x="29" y="543" type="line"/>
      <point x="194" y="283" type="line"/>
    </contour>
  </outline>
</glyph>
<glyph name="sterling" format="2">
  <advance width="555" height="1000"/>
  <unicode hex="00A3"/>
  <outline>
    <contour>
      <point x="59" y="319" type="line"/>
      <point x="171" y="319" type="line"/>
      <point x="175" y="298"/>
      <point x="178" y="278"/>
      <point x="178" y="257" type="curve"/>
      <point x="178" y="173"/>
      <point x="137" y="97"/>
      <point x="60" y="56" type="curve"/>
      <point x="60" y="0" type="line"/>
      <point x="506" y="0" type="line"/>
      <point x="506" y="79" type="line"/>
      <point x="192" y="79" type="line"/>
      <point x="192" y="83" type="line"/>
      <point x="237" y="129"/>
      <point x="260" y="177"/>
      <point x="260" y="256" type="curve"/>
      <point x="260" y="278"/>
      <point x="258" y="299"/>
      <point x="254" y="319" type="curve"/>
      <point x="419" y="319" type="line"/>
      <point x="419" y="381" type="line"/>
      <point x="240" y="381" type="line"/>
      <point x="227" y="428"/>
      <point x="213" y="472"/>
      <point x="213" y="518" type="curve"/>
      <point x="213" y="596"/>
      <point x="258" y="650"/>
      <point x="338" y="650" type="curve"/>
      <point x="388" y="650"/>
      <point x="423" y="626"/>
      <point x="452" y="591" type="curve"/>
      <point x="505" y="642" type="line"/>
      <point x="466" y="691"/>
      <point x="411" y="726"/>
      <point x="332" y="726" type="curve"/>
      <point x="207" y="726"/>
      <point x="125" y="648"/>
      <point x="125" y="522" type="curve"/>
      <point x="125" y="474"/>
      <point x="140" y="428"/>
      <point x="154" y="381" type="curve"/>
      <point x="134" y="381" type="line"/>
      <point x="59" y="377" type="line"/>
    </contour>
  </outline>
</glyph>
<glyph name="guillemetleft" format="2">
  <advance width="479" height="1000"/>
  <unicode hex="00AB"/>
  <outline>
    <contour>
      <point x="203" y="74" type="line"/>
      <point x="242" y="105" type="line"/>
      <point x="110" y="281" type="line"/>
      <point x="242" y="456" type="line"/>
      <point x="203" y="490" type="line"/>
      <point x="50" y="316" type="line"/>
      <point x="50" y="247" type="line"/>
    </contour>
    <contour>
      <point x="379" y="74" type="line"/>
      <point x="418" y="105" type="line"/>
      <point x="286" y="281" type="line"/>
      <point x="418" y="456" type="line"/>
      <point x="379" y="490" type="line"/>
      <point x="227" y="316" type="line"/>
      <point x="227" y="247" type="line"/>
    </contour>
  </outline>
</glyph>
<glyph name="plusminus" format="2">
  <advance width="1000" height="1000"/>
  <unicode hex="00B1"/>
  <outline>
    <contour>
      <point x="863" y="461" type="line"/>
      <point x="863" y="530" type="line"/>
      <point x="534" y="530" type="line"/>
      <point x="534" y="804" type="line"/>
      <point x="466" y="804" type="line"/>
      <point x="466" y="530" type="line"/>
      <point x="137" y="530" type="line"/>
      <point x="137" y="461" type="line"/>
      <point x="466" y="461" type="line"/>
      <point x="466" y="186" type="line"/>
      <point x="534" y="186" type="line"/>
      <point x="534" y="461" type="line"/>
    </contour>
    <contour>
      <point x="867" y="87" type="line"/>
      <point x="137" y="87" type="line"/>
      <point x="137" y="18" type="line"/>
      <point x="867" y="18" type="line"/>
    </contour>
  </outline>
</glyph>
<glyph name="twosuperior" format="2">
  <advance width="411" height="1000"/>
  <unicode hex="00B2"/>
  <outline>
    <contour>
      <point x="59" y="441" type="line"/>
      <point x="358" y="441" type="line"/>
      <point x="358" y="502" type="line"/>
      <point x="173" y="502" type="line"/>
      <point x="266" y="597"/>
      <point x="335" y="666"/>
      <point x="335" y="749" type="curve"/>
      <point x="335" y="842"/>
      <point x="277" y="891"/>
      <point x="190" y="891" type="curve"/>
      <point x="131" y="891"/>
      <point x="78" y="856"/>
      <point x="45" y="806" type="curve"/>
      <point x="87" y="767" type="line"/>
      <point x="111" y="803"/>
      <point x="144" y="831"/>
      <point x="181" y="831" type="curve"/>
      <point x="233" y="831"/>
      <point x="265" y="795"/>
      <point x="265" y="739" type="curve"/>
      <point x="265" y="673"/>
      <point x="194" y="604"/>
      <point x="59" y="482" type="curve"/>
    </contour>
  </outline>
</glyph>
<glyph name="periodcentered" format="2">
  <advance width="1000" height="1000"/>
  <unicode hex="00B7"/>
  <unicode hex="2022"/>
  <unicode hex="2027"/>
  <unicode hex="30FB"/>
  <outline>
    <contour>
      <point x="500" y="486" type="curve"/>
      <point x="441" y="486"/>
      <point x="394" y="439"/>
      <point x="394" y="380" type="curve"/>
      <point x="394" y="321"/>
      <point x="441" y="274"/>
      <point x="500" y="274" type="curve"/>
      <point x="559" y="274"/>
      <point x="606" y="321"/>
      <point x="606" y="380" type="curve"/>
      <point x="606" y="439"/>
      <point x="559" y="486"/>
    </contour>
  </outline>
</glyph>
<glyph name="Idieresis" format="2">
  <advance width="293" height="1000"/>
  <unicode hex="00CF"/>
  <outline>
    <contour>
      <point x="101" y="0" type="line"/>
      <point x="193" y="0" type="line"/>
      <point x="193" y="733" type="line"/>
      <point x="101" y="733" type="line"/>
    </contour>
    <contour>
      <point x="33" y="800" type="curve"/>
      <point x="64" y="800"/>
      <point x="87" y="822"/>
      <point x="87" y="855" type="curve"/>
      <point x="87" y="886"/>
      <point x="64" y="909"/>
      <point x="33" y="909" type="curve"/>
      <point x="1" y="909"/>
      <point x="-21" y="886"/>
      <point x="-21" y="855" type="curve"/>
      <point x="-21" y="822"/>
      <point x="1" y="800"/>
    </contour>
    <contour>
      <point x="262" y="800" type="curve"/>
      <point x="294" y="800"/>
      <point x="316" y="822"/>
      <point x="316" y="855" type="curve"/>
      <point x="316" y="886"/>
      <point x="294" y="909"/>
      <point x="262" y="909" type="curve"/>
      <point x="230" y="909"/>
      <point x="207" y="886"/>
      <point x="207" y="855" type="curve"/>
      <point x="207" y="822"/>
      <point x="230" y="800"/>
    </contour>
  </outline>
</glyph>
<glyph name="iacute" format="2">
  <advance width="275" height="1000"/>
  <unicode hex="00ED"/>
  <outline>
    <contour>
      <point x="92" y="0" type="line"/>
      <point x="184" y="0" type="line"/>
      <point x="184" y="543" type="line"/>
      <point x="92" y="543" type="line"/>
    </contour>
    <contour>
      <point x="123" y="640" type="line"/>
      <point x="298" y="812" type="line"/>
      <point x="233" y="872" type="line"/>
      <point x="75" y="686" type="line"/>
    </contour>
  </outline>
</glyph>
<glyph name="udieresis" format="2">
  <advance width="607" height="1000"/>
  <unicode hex="00FC"/>
  <outline>
    <contour>
      <point x="251" y="-13" type="curve"/>
      <point x="325" y="-13"/>
      <point x="379" y="26"/>
      <point x="430" y="85" type="curve"/>
      <point x="433" y="85" type="line"/>
      <point x="440" y="0" type="line"/>
      <point x="516" y="0" type="line"/>
      <point x="516" y="543" type="line"/>
      <point x="425" y="543" type="line"/>
      <point x="425" y="158" type="line"/>
      <point x="373" y="94"/>
      <point x="334" y="66"/>
      <point x="278" y="66" type="curve"/>
      <point x="206" y="66"/>
      <point x="176" y="109"/>
      <point x="176" y="210" type="curve"/>
      <point x="176" y="543" type="line"/>
      <point x="84" y="543" type="line"/>
      <point x="84" y="199" type="line"/>
      <point x="84" y="60"/>
      <point x="136" y="-13"/>
    </contour>
    <contour>
      <point x="195" y="657" type="curve"/>
      <point x="227" y="657"/>
      <point x="251" y="681"/>
      <point x="251" y="712" type="curve"/>
      <point x="251" y="743"/>
      <point x="227" y="767"/>
      <point x="195" y="767" type="curve"/>
      <point x="164" y="767"/>
      <point x="140" y="743"/>
      <point x="140" y="712" type="curve"/>
      <point x="140" y="681"/>
      <point x="164" y="657"/>
    </contour>
    <contour>
      <point x="410" y="657" type="curve"/>
      <point x="442" y="657"/>
      <point x="466" y="681"/>
      <point x="466" y="712" type="curve"/>
      <point x="466" y="743"/>
      <point x="442" y="767"/>
      <point x="410" y="767" type="curve"/>
      <point x="379" y="767"/>
      <point x="355" y="743"/>
      <point x="355" y="712" type="curve"/>
      <point x="355" y="681"/>
      <point x="379" y="657"/>
    </contour>
  </outline>
</glyph>
<glyph name="OE" format="2">
  <advance width="947" height="1000"/>
  <unicode hex="0152"/>
  <outline>
    <contour>
      <point x="412" y="0" type="curve"/>
      <point x="891" y="0" type="line"/>
      <point x="891" y="79" type="line"/>
      <point x="570" y="79" type="line"/>
      <point x="570" y="346" type="line"/>
      <point x="829" y="346" type="line"/>
      <point x="829" y="425" type="line"/>
      <point x="570" y="425" type="line"/>
      <point x="570" y="655" type="line"/>
      <point x="880" y="655" type="line"/>
      <point x="880" y="733" type="line"/>
      <point x="417" y="733" type="line"/>
      <point x="190" y="733"/>
      <point x="58" y="603"/>
      <point x="58" y="369" type="curve"/>
      <point x="58" y="137"/>
      <point x="190" y="0"/>
    </contour>
    <contour>
      <point x="423" y="76" type="line"/>
      <point x="246" y="76"/>
      <point x="153" y="183"/>
      <point x="153" y="369" type="curve"/>
      <point x="153" y="556"/>
      <point x="246" y="658"/>
      <point x="423" y="658" type="curve"/>
      <point x="478" y="658" type="line"/>
      <point x="478" y="76" type="line"/>
    </contour>
  </outline>
</glyph>
<glyph name="oe" format="2">
  <advance width="937" height="1000"/>
  <unicode hex="0153"/>
  <outline>
    <contour>
      <point x="295" y="-13" type="curve"/>
      <point x="385" y="-13"/>
      <point x="453" y="33"/>
      <point x="495" y="122" type="curve"/>
      <point x="537" y="38"/>
      <point x="611" y="-13"/>
      <point x="695" y="-13" type="curve"/>
      <point x="769" y="-13"/>
      <point x="827" y="11"/>
      <point x="874" y="42" type="curve"/>
      <point x="841" y="106" type="line"/>
      <point x="800" y="79"/>
      <point x="759" y="61"/>
      <point x="707" y="61" type="curve"/>
      <point x="614" y="61"/>
      <point x="540" y="136"/>
      <point x="536" y="250" type="curve"/>
      <point x="891" y="250" type="line"/>
      <point x="894" y="264"/>
      <point x="896" y="281"/>
      <point x="896" y="300" type="curve"/>
      <point x="896" y="455"/>
      <point x="819" y="557"/>
      <point x="686" y="557" type="curve"/>
      <point x="606" y="557"/>
      <point x="536" y="504"/>
      <point x="495" y="420" type="curve"/>
      <point x="455" y="509"/>
      <point x="380" y="557"/>
      <point x="297" y="557" type="curve"/>
      <point x="165" y="557"/>
      <point x="52" y="452"/>
      <point x="52" y="271" type="curve"/>
      <point x="52" y="91"/>
      <point x="164" y="-13"/>
    </contour>
    <contour>
      <point x="297" y="63" type="curve"/>
      <point x="207" y="63"/>
      <point x="145" y="146"/>
      <point x="145" y="271" type="curve"/>
      <point x="145" y="396"/>
      <point x="207" y="480"/>
      <point x="297" y="480" type="curve"/>
      <point x="387" y="480"/>
      <point x="450" y="396"/>
      <point x="450" y="271" type="curve"/>
      <point x="450" y="146"/>
      <point x="387" y="63"/>
    </contour>
    <contour>
      <point x="536" y="310" type="line"/>
      <point x="546" y="416"/>
      <point x="608" y="484"/>
      <point x="683" y="484" type="curve"/>
      <point x="766" y="484"/>
      <point x="815" y="423"/>
      <point x="815" y="310" type="curve"/>
    </contour>
  </outline>
</glyph>
<glyph name="fhook" format="2">
  <advance width="555" height="1000"/>
  <unicode hex="0192"/>
  <outline>
    <contour>
      <point x="130" y="386" type="line"/>
      <point x="228" y="386" type="line"/>
      <point x="201" y="140" type="line"/>
      <point x="189" y="27"/>
      <point x="162" y="-34"/>
      <point x="92" y="-34" type="curve"/>
      <point x="72" y="-34"/>
      <point x="55" y="-30"/>
      <point x="37" y="-23" type="curve"/>
      <point x="20" y="-91" type="line"/>
      <point x="38" y="-101"/>
      <point x="67" y="-108"/>
      <point x="101" y="-109" type="curve"/>
      <point x="225" y="-109"/>
      <point x="270" y="-15"/>
      <point x="286" y="120" type="curve"/>
      <point x="315" y="386" type="line"/>
      <point x="463" y="386" type="line"/>
      <point x="463" y="456" type="line"/>
      <point x="323" y="456" type="line"/>
      <point x="331" y="526" type="line"/>
      <point x="340" y="603"/>
      <point x="366" y="671"/>
      <point x="433" y="671" type="curve"/>
      <point x="461" y="671"/>
      <point x="480" y="663"/>
      <point x="496" y="657" type="curve"/>
      <point x="516" y="726" type="line"/>
      <point x="495" y="736"/>
      <point x="462" y="746"/>
      <point x="428" y="746" type="curve"/>
      <point x="310" y="746"/>
      <point x="259" y="667"/>
      <point x="242" y="519" type="curve"/>
      <point x="235" y="456" type="line"/>
      <point x="207" y="456" type="line"/>
      <point x="130" y="451" type="line"/>
    </contour>
  </outline>
</glyph>
<glyph name="Uhorn" format="2">
  <advance width="736" height="1000"/>
  <unicode hex="01AF"/>
  <outline>
    <contour>
      <point x="361" y="-13" type="curve"/>
      <point x="510" y="-13"/>
      <point x="624" y="67"/>
      <point x="624" y="302" type="curve"/>
      <point x="624" y="693" type="line"/>
      <point x="695" y="710"/>
      <point x="753" y="747"/>
      <point x="753" y="832" type="curve"/>
      <point x="753" y="866"/>
      <point x="742" y="898"/>
      <point x="728" y="922" type="curve"/>
      <point x="655" y="890" type="line"/>
      <point x="665" y="873"/>
      <point x="671" y="848"/>
      <point x="671" y="826" type="curve"/>
      <point x="671" y="764"/>
      <point x="633" y="741"/>
      <point x="570" y="733" type="curve"/>
      <point x="535" y="733" type="line"/>
      <point x="535" y="300" type="line"/>
      <point x="535" y="124"/>
      <point x="458" y="68"/>
      <point x="361" y="68" type="curve"/>
      <point x="265" y="68"/>
      <point x="190" y="124"/>
      <point x="190" y="300" type="curve"/>
      <point x="190" y="733" type="line"/>
      <point x="98" y="733" type="line"/>
      <point x="98" y="302" type="line"/>
      <point x="98" y="67"/>
      <point x="211" y="-13"/>
    </contour>
  </outline>
</glyph>
<glyph name="acutecomb" format="2">
  <advance width="0" height="1000"/>
  <unicode hex="0301"/>
  <anchor x="0" y="0" name="top"/>
  <anchor x="0" y="0" name="Anchor_3"/>
  <outline>
    <contour>
      <point x="484" y="704" type="line"/>
      <point x="174" y="395" type="line"/>
      <point x="116" y="460" type="line"/>
      <point x="444" y="751" type="line"/>
    </contour>
  </outline>
</glyph>
<glyph name="delta-grek" format="2">
  <advance width="594" height="1000"/>
  <unicode hex="03B4"/>
  <outline>
    <contour>
      <point x="300" y="-13" type="curve"/>
      <point x="452" y="-13"/>
      <point x="540" y="91"/>
      <point x="540" y="245" type="curve"/>
      <point x="540" y="375"/>
      <point x="461" y="447"/>
      <point x="367" y="515" type="curve"/>
      <point x="279" y="579"/>
      <point x="204" y="623"/>
      <point x="204" y="682" type="curve"/>
      <point x="204" y="712"/>
      <point x="231" y="739"/>
      <point x="294" y="739" type="curve"/>
      <point x="347" y="739"/>
      <point x="414" y="726"/>
      <point x="506" y="693" type="curve"/>
      <point x="528" y="765" type="line"/>
      <point x="438" y="795"/>
      <point x="363" y="809"/>
      <point x="295" y="809" type="curve"/>
      <point x="172" y="809"/>
      <point x="117" y="753"/>
      <point x="117" y="687" type="curve"/>
      <point x="117" y="603"/>
      <point x="190" y="543"/>
      <point x="268" y="488" type="curve"/>
      <point x="151" y="451"/>
      <point x="59" y="365"/>
      <point x="59" y="233" type="curve"/>
      <point x="59" y="79"/>
      <point x="177" y="-13"/>
    </contour>
    <contour>
      <point x="332" y="442" type="curve"/>
      <point x="397" y="391"/>
      <point x="450" y="334"/>
      <point x="450" y="244" type="curve"/>
      <point x="450" y="135"/>
      <point x="401" y="63"/>
      <point x="302" y="63" type="curve"/>
      <point x="221" y="63"/>
      <point x="147" y="129"/>
      <point x="147" y="236" type="curve"/>
      <point x="147" y="341"/>
      <point x="216" y="415"/>
    </contour>
  </outline>
</glyph>
<glyph name="omicron-grek" format="2">
  <advance width="597" height="1000"/>
  <unicode hex="03BF"/>
  <outline>
    <contour>
      <point x="299" y="-13" type="curve"/>
      <point x="435" y="-13"/>
      <point x="546" y="90"/>
      <point x="546" y="271" type="curve"/>
      <point x="546" y="453"/>
      <point x="435" y="557"/>
      <point x="299" y="557" type="curve"/>
      <point x="163" y="557"/>
      <point x="52" y="453"/>
      <point x="52" y="271" type="curve"/>
      <point x="52" y="90"/>
      <point x="163" y="-13"/>
    </contour>
    <contour>
      <point x="299" y="63" type="curve"/>
      <point x="202" y="63"/>
      <point x="146" y="144"/>
      <point x="146" y="271" type="curve"/>
      <point x="146" y="397"/>
      <point x="202" y="480"/>
      <point x="299" y="480" type="curve"/>
      <point x="396" y="480"/>
      <point x="452" y="397"/>
      <point x="452" y="271" type="curve"/>
      <point x="452" y="144"/>
      <point x="396" y="63"/>
    </contour>
  </outline>
</glyph>
<glyph name="psi-grek" format="2">
  <advance width="769" height="1000"/>
  <unicode hex="03C8"/>
  <outline>
    <contour>
      <point x="339" y="-200" type="line"/>
      <point x="425" y="-200" type="line"/>
      <point x="425" y="-13" type="line"/>
      <point x="601" y="-9"/>
      <point x="706" y="101"/>
      <point x="706" y="297" type="curve"/>
      <point x="706" y="391"/>
      <point x="691" y="465"/>
      <point x="658" y="557" type="curve"/>
      <point x="569" y="535" type="line"/>
      <point x="604" y="439"/>
      <point x="614" y="375"/>
      <point x="614" y="295" type="curve"/>
      <point x="614" y="138"/>
      <point x="546" y="65"/>
      <point x="425" y="61" type="curve"/>
      <point x="425" y="696" type="line"/>
      <point x="339" y="696" type="line"/>
      <point x="339" y="61" type="line"/>
      <point x="218" y="63"/>
      <point x="162" y="135"/>
      <point x="162" y="243" type="curve"/>
      <point x="162" y="278"/>
      <point x="164" y="357"/>
      <point x="164" y="416" type="curve"/>
      <point x="164" y="464"/>
      <point x="163" y="505"/>
      <point x="157" y="543" type="curve"/>
      <point x="68" y="543" type="line"/>
      <point x="75" y="486"/>
      <point x="76" y="438"/>
      <point x="76" y="394" type="curve"/>
      <point x="76" y="249" type="line"/>
      <point x="76" y="96"/>
      <point x="157" y="-10"/>
      <point x="339" y="-13" type="curve"/>
    </contour>
  </outline>
</glyph>
<glyph name="omega-grek" format="2">
  <advance width="782" height="1000"/>
  <unicode hex="03C9"/>
  <outline>
    <contour>
      <point x="246" y="-13" type="curve"/>
      <point x="307" y="-13"/>
      <point x="361" y="16"/>
      <point x="388" y="85" type="curve"/>
      <point x="392" y="85" type="line"/>
      <point x="420" y="16"/>
      <point x="478" y="-13"/>
      <point x="540" y="-13" type="curve"/>
      <point x="652" y="-13"/>
      <point x="725" y="77"/>
      <point x="725" y="259" type="curve"/>
      <point x="725" y="386"/>
      <point x="686" y="470"/>
      <point x="628" y="557" type="curve"/>
      <point x="545" y="522" type="line"/>
      <point x="606" y="430"/>
      <point x="633" y="365"/>
      <point x="633" y="254" type="curve"/>
      <point x="633" y="124"/>
      <point x="589" y="63"/>
      <point x="528" y="63" type="curve"/>
      <point x="476" y="63"/>
      <point x="431" y="94"/>
      <point x="431" y="198" type="curve"/>
      <point x="431" y="244"/>
      <point x="434" y="286"/>
      <point x="440" y="344" type="curve"/>
      <point x="340" y="344" type="line"/>
      <point x="346" y="286"/>
      <point x="349" y="244"/>
      <point x="349" y="198" type="curve"/>
      <point x="349" y="98"/>
      <point x="303" y="63"/>
      <point x="250" y="63" type="curve"/>
      <point x="189" y="63"/>
      <point x="145" y="126"/>
      <point x="145" y="240" type="curve"/>
      <point x="145" y="353"/>
      <point x="179" y="430"/>
      <point x="241" y="519" type="curve"/>
      <point x="157" y="557" type="line"/>
      <point x="101" y="472"/>
      <point x="57" y="371"/>
      <point x="57" y="256" type="curve"/>
      <point x="57" y="77"/>
      <point x="138" y="-13"/>
    </contour>
  </outline>
</glyph>
<glyph name="Te-cyrl" format="2">
  <advance width="599" height="1000"/>
  <unicode hex="0422"/>
  <outline>
    <contour>
      <point x="253" y="0" type="line"/>
      <point x="346" y="0" type="line"/>
      <point x="346" y="655" type="line"/>
      <point x="568" y="655" type="line"/>
      <point x="568" y="733" type="line"/>
      <point x="31" y="733" type="line"/>
      <point x="31" y="655" type="line"/>
      <point x="253" y="655" type="line"/>
    </contour>
  </outline>
</glyph>
<glyph name="Tse-cyrl" format="2">
  <advance width="718" height="1000"/>
  <unicode hex="0426"/>
  <outline>
    <contour>
      <point x="598" y="-210" type="line"/>
      <point x="679" y="-210" type="line"/>
      <point x="688" y="23" type="line"/>
      <point x="688" y="79" type="line"/>
      <point x="607" y="79" type="line"/>
      <point x="607" y="733" type="line"/>
      <point x="514" y="733" type="line"/>
      <point x="514" y="79" type="line"/>
      <point x="193" y="79" type="line"/>
      <point x="193" y="733" type="line"/>
      <point x="101" y="733" type="line"/>
      <point x="101" y="0" type="line"/>
      <point x="598" y="0" type="line"/>
    </contour>
  </outline>
</glyph>
<glyph name="Shcha-cyrl" format="2">
  <advance width="976" height="1000"/>
  <unicode hex="0429"/>
  <outline>
    <contour>
      <point x="101" y="0" type="line"/>
      <point x="856" y="0" type="line"/>
      <point x="856" y="-210" type="line"/>
      <point x="938" y="-210" type="line"/>
      <point x="948" y="23" type="line"/>
      <point x="948" y="79" type="line"/>
      <point x="866" y="79" type="line"/>
      <point x="866" y="733" type="line"/>
      <point x="775" y="733" type="line"/>
      <point x="775" y="79" type="line"/>
      <point x="527" y="79" type="line"/>
      <point x="527" y="733" type="line"/>
      <point x="438" y="733" type="line"/>
      <point x="438" y="79" type="line"/>
      <point x="191" y="79" type="line"/>
      <point x="191" y="733" type="line"/>
      <point x="101" y="733" type="line"/>
    </contour>
  </outline>
</glyph>
<glyph name="Yeru-cyrl" format="2">
  <advance width="891" height="1000"/>
  <unicode hex="042B"/>
  <outline>
    <contour>
      <point x="101" y="0" type="line"/>
      <point x="309" y="0" type="line"/>
      <point x="473" y="0"/>
      <point x="578" y="69"/>
      <point x="578" y="225" type="curve"/>
      <point x="578" y="372"/>
      <point x="469" y="433"/>
      <point x="307" y="433" type="curve"/>
      <point x="193" y="433" type="line"/>
      <point x="193" y="733" type="line"/>
      <point x="101" y="733" type="line"/>
    </contour>
    <contour>
      <point x="193" y="75" type="line"/>
      <point x="193" y="357" type="line"/>
      <point x="294" y="357" type="line"/>
      <point x="422" y="357"/>
      <point x="487" y="316"/>
      <point x="487" y="223" type="curve"/>
      <point x="487" y="119"/>
      <point x="420" y="75"/>
      <point x="297" y="75" type="curve"/>
    </contour>
    <contour>
      <point x="699" y="0" type="line"/>
      <point x="791" y="0" type="line"/>
      <point x="791" y="733" type="line"/>
      <point x="699" y="733" type="line"/>
    </contour>
  </outline>
</glyph>
<glyph name="E-cyrl" format="2">
  <advance width="638" height="1000"/>
  <unicode hex="042D"/>
  <outline>
    <contour>
      <point x="179" y="346" type="line"/>
      <point x="487" y="346" type="line"/>
      <point x="480" y="162"/>
      <point x="399" y="68"/>
      <point x="269" y="68" type="curve"/>
      <point x="193" y="68"/>
      <point x="136" y="99"/>
      <point x="86" y="151" type="curve"/>
      <point x="36" y="92" type="line"/>
      <point x="97" y="25"/>
      <point x="172" y="-13"/>
      <point x="272" y="-13" type="curve"/>
      <point x="450" y="-13"/>
      <point x="580" y="118"/>
      <point x="580" y="366" type="curve"/>
      <point x="580" y="615"/>
      <point x="456" y="746"/>
      <point x="272" y="746" type="curve"/>
      <point x="181" y="746"/>
      <point x="99" y="703"/>
      <point x="53" y="656" type="curve"/>
      <point x="104" y="596" type="line"/>
      <point x="146" y="638"/>
      <point x="203" y="665"/>
      <point x="268" y="665" type="curve"/>
      <point x="395" y="665"/>
      <point x="472" y="581"/>
      <point x="486" y="425" type="curve"/>
      <point x="179" y="425" type="line"/>
    </contour>
  </outline>
</glyph>
<glyph name="Ya-cyrl" format="2">
  <advance width="650" height="1000"/>
  <unicode hex="042F"/>
  <outline>
    <contour>
      <point x="334" y="385" type="line"/>
      <point x="219" y="385"/>
      <point x="156" y="432"/>
      <point x="156" y="528" type="curve"/>
      <point x="156" y="624"/>
      <point x="219" y="658"/>
      <point x="334" y="658" type="curve"/>
      <point x="457" y="658" type="line"/>
      <point x="457" y="385" type="line"/>
    </contour>
    <contour>
      <point x="25" y="0" type="line"/>
      <point x="131" y="0" type="line"/>
      <point x="322" y="311" type="line"/>
      <point x="457" y="311" type="line"/>
      <point x="457" y="0" type="line"/>
      <point x="549" y="0" type="line"/>
      <point x="549" y="733" type="line"/>
      <point x="320" y="733" type="line"/>
      <point x="171" y="733"/>
      <point x="64" y="680"/>
      <point x="64" y="528" type="curve"/>
      <point x="64" y="410"/>
      <point x="133" y="344"/>
      <point x="230" y="321" type="curve"/>
    </contour>
  </outline>
</glyph>
<glyph name="zhe-cyrl" format="2">
  <advance width="760" height="1000"/>
  <unicode hex="0436"/>
  <outline>
    <contour>
      <point x="15" y="0" type="line"/>
      <point x="113" y="0" type="line"/>
      <point x="250" y="245" type="line"/>
      <point x="339" y="245" type="line"/>
      <point x="339" y="0" type="line"/>
      <point x="421" y="0" type="line"/>
      <point x="421" y="245" type="line"/>
      <point x="510" y="245" type="line"/>
      <point x="646" y="0" type="line"/>
      <point x="745" y="0" type="line"/>
      <point x="574" y="284" type="line"/>
      <point x="618" y="394" type="line"/>
      <point x="643" y="457"/>
      <point x="668" y="468"/>
      <point x="696" y="468" type="curve"/>
      <point x="704" y="468"/>
      <point x="707" y="467"/>
      <point x="714" y="465" type="curve"/>
      <point x="730" y="551" type="line"/>
      <point x="722" y="555"/>
      <point x="710" y="557"/>
      <point x="698" y="557" type="curve"/>
      <point x="640" y="557"/>
      <point x="595" y="533"/>
      <point x="556" y="441" type="curve"/>
      <point x="507" y="319" type="line"/>
      <point x="421" y="319" type="line"/>
      <point x="421" y="543" type="line"/>
      <point x="339" y="543" type="line"/>
      <point x="339" y="319" type="line"/>
      <point x="253" y="319" type="line"/>
      <point x="204" y="441" type="line"/>
      <point x="165" y="533"/>
      <point x="120" y="557"/>
      <point x="62" y="557" type="curve"/>
      <point x="50" y="557"/>
      <point x="38" y="555"/>
      <point x="29" y="551" type="curve"/>
      <point x="46" y="465" type="line"/>
      <point x="53" y="467"/>
      <point x="56" y="468"/>
      <point x="64" y="468" type="curve"/>
      <point x="92" y="468"/>
      <point x="117" y="457"/>
      <point x="142" y="394" type="curve"/>
      <point x="186" y="284" type="line"/>
    </contour>
  </outline>
</glyph>
<glyph name="ze-cyrl" format="2">
  <advance width="510" height="1000"/>
  <unicode hex="0437"/>
  <outline>
    <contour>
      <point x="247" y="-13" type="curve"/>
      <point x="363" y="-13"/>
      <point x="465" y="49"/>
      <point x="465" y="150" type="curve"/>
      <point x="465" y="227"/>
      <point x="416" y="269"/>
      <point x="352" y="284" type="curve"/>
      <point x="352" y="289" type="line"/>
      <point x="410" y="311"/>
      <point x="442" y="357"/>
      <point x="442" y="410" type="curve"/>
      <point x="442" y="509"/>
      <point x="350" y="557"/>
      <point x="245" y="557" type="curve"/>
      <point x="166" y="557"/>
      <point x="106" y="534"/>
      <point x="55" y="496" type="curve"/>
      <point x="92" y="436" type="line"/>
      <point x="136" y="467"/>
      <point x="177" y="484"/>
      <point x="240" y="484" type="curve"/>
      <point x="307" y="484"/>
      <point x="353" y="456"/>
      <point x="353" y="401" type="curve"/>
      <point x="353" y="348"/>
      <point x="310" y="315"/>
      <point x="223" y="315" type="curve"/>
      <point x="160" y="315" type="line"/>
      <point x="160" y="250" type="line"/>
      <point x="235" y="250" type="line"/>
      <point x="325" y="250"/>
      <point x="374" y="219"/>
      <point x="374" y="158" type="curve"/>
      <point x="374" y="97"/>
      <point x="314" y="60"/>
      <point x="239" y="60" type="curve"/>
      <point x="184" y="60"/>
      <point x="130" y="74"/>
      <point x="81" y="114" type="curve"/>
      <point x="41" y="55" type="line"/>
      <point x="105" y="4"/>
      <point x="171" y="-13"/>
    </contour>
  </outline>
</glyph>
<glyph name="el-cyrl" format="2">
  <advance width="593" height="1000"/>
  <unicode hex="043B"/>
  <outline>
    <contour>
      <point x="61" y="-13" type="curve"/>
      <point x="140" y="-13"/>
      <point x="188" y="47"/>
      <point x="204" y="167" type="curve"/>
      <point x="217" y="268"/>
      <point x="228" y="369"/>
      <point x="240" y="469" type="curve"/>
      <point x="409" y="469" type="line"/>
      <point x="409" y="0" type="line"/>
      <point x="501" y="0" type="line"/>
      <point x="501" y="543" type="line"/>
      <point x="168" y="543" type="line"/>
      <point x="154" y="426"/>
      <point x="140" y="308"/>
      <point x="126" y="190" type="curve"/>
      <point x="117" y="110"/>
      <point x="92" y="75"/>
      <point x="53" y="75" type="curve"/>
      <point x="43" y="75"/>
      <point x="36" y="77"/>
      <point x="28" y="79" type="curve"/>
      <point x="11" y="-5" type="line"/>
      <point x="27" y="-10"/>
      <point x="40" y="-13"/>
    </contour>
  </outline>
</glyph>
<glyph name="te-cyrl" format="2">
  <advance width="514" height="1000"/>
  <unicode hex="0442"/>
  <outline>
    <contour>
      <point x="211" y="0" type="line"/>
      <point x="302" y="0" type="line"/>
      <point x="302" y="469" type="line"/>
      <point x="485" y="469" type="line"/>
      <point x="485" y="543" type="line"/>
      <point x="29" y="543" type="line"/>
      <point x="29" y="469" type="line"/>
      <point x="211" y="469" type="line"/>
    </contour>
  </outline>
</glyph>
<glyph name="e-cyrl" format="2">
  <advance width="510" height="1000"/>
  <unicode hex="044D"/>
  <outline>
    <contour>
      <point x="129" y="250" type="line"/>
      <point x="369" y="250" type="line"/>
      <point x="363" y="123"/>
      <point x="297" y="60"/>
      <point x="196" y="60" type="curve"/>
      <point x="143" y="60"/>
      <point x="98" y="81"/>
      <point x="64" y="112" type="curve"/>
      <point x="27" y="55" type="line"/>
      <point x="72" y="13"/>
      <point x="134" y="-13"/>
      <point x="204" y="-13" type="curve"/>
      <point x="350" y="-13"/>
      <point x="457" y="81"/>
      <point x="457" y="271" type="curve"/>
      <point x="457" y="465"/>
      <point x="345" y="557"/>
      <point x="210" y="557" type="curve"/>
      <point x="130" y="557"/>
      <point x="75" y="526"/>
      <point x="38" y="491" type="curve"/>
      <point x="81" y="436" type="line"/>
      <point x="113" y="463"/>
      <point x="150" y="484"/>
      <point x="205" y="484" type="curve"/>
      <point x="291" y="484"/>
      <point x="355" y="428"/>
      <point x="368" y="315" type="curve"/>
      <point x="129" y="315" type="line"/>
    </contour>
  </outline>
</glyph>
<glyph name="Acircumflexacute" format="2">
  <advance width="608" height="1000"/>
  <unicode hex="1EA4"/>
  <outline>
    <contour>
      <point x="196" y="781" type="line"/>
      <point x="301" y="859" type="line"/>
      <point x="305" y="859" type="line"/>
      <point x="410" y="781" type="line"/>
      <point x="447" y="811" type="line"/>
      <point x="343" y="911" type="line"/>
      <point x="263" y="911" type="line"/>
      <point x="159" y="811" type="line"/>
    </contour>
    <contour>
      <point x="438" y="853" type="line"/>
      <point x="552" y="949" type="line"/>
      <point x="513" y="992" type="line"/>
      <point x="405" y="888" type="line"/>
    </contour>
    <contour>
      <point x="4" y="0" type="line"/>
      <point x="97" y="0" type="line"/>
      <point x="168" y="224" type="line"/>
      <point x="436" y="224" type="line"/>
      <point x="506" y="0" type="line"/>
      <point x="604" y="0" type="line"/>
      <point x="355" y="733" type="line"/>
      <point x="252" y="733" type="line"/>
    </contour>
    <contour>
      <point x="191" y="297" type="line"/>
      <point x="227" y="410" type="line"/>
      <point x="253" y="493"/>
      <point x="277" y="572"/>
      <point x="300" y="658" type="curve"/>
      <point x="304" y="658" type="line"/>
      <point x="328" y="573"/>
      <point x="351" y="493"/>
      <point x="378" y="410" type="curve"/>
      <point x="413" y="297" type="line"/>
    </contour>
  </outline>
</glyph>
<glyph name="acircumflexhookabove" format="2">
  <advance width="563" height="1000"/>
  <unicode hex="1EA9"/>
  <outline>
    <contour>
      <point x="217" y="-13" type="curve"/>
      <point x="284" y="-13"/>
      <point x="345" y="22"/>
      <point x="397" y="65" type="curve"/>
      <point x="400" y="65" type="line"/>
      <point x="408" y="0" type="line"/>
      <point x="483" y="0" type="line"/>
      <point x="483" y="334" type="line"/>
      <point x="483" y="469"/>
      <point x="428" y="557"/>
      <point x="295" y="557" type="curve"/>
      <point x="207" y="557"/>
      <point x="131" y="518"/>
      <point x="82" y="486" type="curve"/>
      <point x="117" y="423" type="line"/>
      <point x="160" y="452"/>
      <point x="217" y="481"/>
      <point x="280" y="481" type="curve"/>
      <point x="369" y="481"/>
      <point x="392" y="414"/>
      <point x="392" y="344" type="curve"/>
      <point x="161" y="318"/>
      <point x="59" y="259"/>
      <point x="59" y="141" type="curve"/>
      <point x="59" y="43"/>
      <point x="126" y="-13"/>
    </contour>
    <contour>
      <point x="243" y="61" type="curve"/>
      <point x="189" y="61"/>
      <point x="147" y="85"/>
      <point x="147" y="147" type="curve"/>
      <point x="147" y="217"/>
      <point x="209" y="262"/>
      <point x="392" y="283" type="curve"/>
      <point x="392" y="132" type="line"/>
      <point x="339" y="85"/>
      <point x="295" y="61"/>
    </contour>
    <contour>
      <point x="180" y="637" type="line"/>
      <point x="297" y="718" type="line"/>
      <point x="301" y="718" type="line"/>
      <point x="417" y="637" type="line"/>
      <point x="448" y="675" type="line"/>
      <point x="336" y="777" type="line"/>
      <point x="262" y="777" type="line"/>
      <point x="149" y="675" type="line"/>
    </contour>
    <contour>
      <point x="427" y="710" type="line"/>
      <point x="480" y="722"/>
      <point x="531" y="743"/>
      <point x="531" y="802" type="curve"/>
      <point x="531" y="855"/>
      <point x="482" y="882"/>
      <point x="396" y="884" type="curve"/>
      <point x="388" y="839" type="line"/>
      <point x="443" y="835"/>
      <point x="465" y="822"/>
      <point x="465" y="792" type="curve"/>
      <point x="465" y="769"/>
      <point x="446" y="757"/>
      <point x="418" y="748" type="curve"/>
    </contour>
  </outline>
</glyph>
<glyph name="Abrevehookabove" format="2">
  <advance width="608" height="1000"/>
  <unicode hex="1EB2"/>
  <outline>
    <contour>
      <point x="303" y="788" type="curve"/>
      <point x="406" y="788"/>
      <point x="457" y="854"/>
      <point x="465" y="932" type="curve"/>
      <point x="414" y="942" type="line"/>
      <point x="404" y="886"/>
      <point x="369" y="843"/>
      <point x="303" y="843" type="curve"/>
      <point x="237" y="843"/>
      <point x="201" y="886"/>
      <point x="191" y="942" type="curve"/>
      <point x="140" y="932" type="line"/>
      <point x="149" y="854"/>
      <point x="199" y="788"/>
    </contour>
    <contour>
      <point x="277" y="895" type="line"/>
      <point x="331" y="904"/>
      <point x="380" y="925"/>
      <point x="380" y="983" type="curve"/>
      <point x="380" y="1034"/>
      <point x="332" y="1060"/>
      <point x="246" y="1063" type="curve"/>
      <point x="237" y="1018" type="line"/>
      <point x="291" y="1015"/>
      <point x="316" y="1003"/>
      <point x="316" y="974" type="curve"/>
      <point x="316" y="950"/>
      <point x="294" y="939"/>
      <point x="266" y="933" type="curve"/>
    </contour>
    <contour>
      <point x="4" y="0" type="line"/>
      <point x="97" y="0" type="line"/>
      <point x="168" y="224" type="line"/>
      <point x="436" y="224" type="line"/>
      <point x="506" y="0" type="line"/>
      <point x="604" y="0" type="line"/>
      <point x="355" y="733" type="line"/>
      <point x="252" y="733" type="line"/>
    </contour>
    <contour>
      <point x="191" y="297" type="line"/>
      <point x="227" y="410" type="line"/>
      <point x="253" y="493"/>
      <point x="277" y="572"/>
      <point x="300" y="658" type="curve"/>
      <point x="304" y="658" type="line"/>
      <point x="328" y="573"/>
      <point x="351" y="493"/>
      <point x="378" y="410" type="curve"/>
      <point x="413" y="297" type="line"/>
    </contour>
  </outline>
</glyph>
<glyph name="Abrevetilde" format="2">
  <advance width="608" height="1000"/>
  <unicode hex="1EB4"/>
  <outline>
    <contour>
      <point x="303" y="790" type="curve"/>
      <point x="406" y="790"/>
      <point x="455" y="848"/>
      <point x="462" y="910" type="curve"/>
      <point x="412" y="919" type="line"/>
      <point x="403" y="878"/>
      <point x="371" y="842"/>
      <point x="303" y="842" type="curve"/>
      <point x="234" y="842"/>
      <point x="202" y="878"/>
      <point x="194" y="919" type="curve"/>
      <point x="143" y="910" type="line"/>
      <point x="150" y="848"/>
      <point x="199" y="790"/>
    </contour>
    <contour>
      <point x="376" y="942" type="curve"/>
      <point x="437" y="942"/>
      <point x="461" y="987"/>
      <point x="464" y="1045" type="curve"/>
      <point x="415" y="1050" type="line"/>
      <point x="410" y="1017"/>
      <point x="399" y="998"/>
      <point x="372" y="998" type="curve"/>
      <point x="327" y="998"/>
      <point x="301" y="1053"/>
      <point x="230" y="1053" type="curve"/>
      <point x="169" y="1053"/>
      <point x="144" y="1009"/>
      <point x="141" y="951" type="curve"/>
      <point x="191" y="946" type="line"/>
      <point x="195" y="979"/>
      <point x="206" y="998"/>
      <point x="233" y="998" type="curve"/>
      <point x="279" y="998"/>
      <point x="305" y="942"/>
    </contour>
    <contour>
      <point x="4" y="0" type="line"/>
      <point x="97" y="0" type="line"/>
      <point x="168" y="224" type="line"/>
      <point x="436" y="224" type="line"/>
      <point x="506" y="0" type="line"/>
      <point x="604" y="0" type="line"/>
      <point x="355" y="733" type="line"/>
      <point x="252" y="733" type="line"/>
    </contour>
    <contour>
      <point x="191" y="297" type="line"/>
      <point x="227" y="410" type="line"/>
      <point x="253" y="493"/>
      <point x="277" y="572"/>
      <point x="300" y="658" type="curve"/>
      <point x="304" y="658" type="line"/>
      <point x="328" y="573"/>
      <point x="351" y="493"/>
      <point x="378" y="410" type="curve"/>
      <point x="413" y="297" type="line"/>
    </contour>
  </outline>
</glyph>
<glyph name="Ehookabove" format="2">
  <advance width="589" height="1000"/>
  <unicode hex="1EBA"/>
  <outline>
    <contour>
      <point x="101" y="0" type="line"/>
      <point x="534" y="0" type="line"/>
      <point x="534" y="79" type="line"/>
      <point x="193" y="79" type="line"/>
      <point x="193" y="346" type="line"/>
      <point x="471" y="346" type="line"/>
      <point x="471" y="425" type="line"/>
      <point x="193" y="425" type="line"/>
      <point x="193" y="655" type="line"/>
      <point x="523" y="655" type="line"/>
      <point x="523" y="733" type="line"/>
      <point x="101" y="733" type="line"/>
    </contour>
    <contour>
      <point x="289" y="780" type="line"/>
      <point x="353" y="792"/>
      <point x="413" y="819"/>
      <point x="413" y="884" type="curve"/>
      <point x="413" y="942"/>
      <point x="356" y="971"/>
      <point x="259" y="974" type="curve"/>
      <point x="249" y="921" type="line"/>
      <point x="310" y="919"/>
      <point x="342" y="903"/>
      <point x="342" y="873" type="curve"/>
      <point x="342" y="846"/>
      <point x="315" y="833"/>
      <point x="279" y="823" type="curve"/>
    </contour>
  </outline>
</glyph>
<glyph name="etilde" format="2">
  <advance width="554" height="1000"/>
  <unicode hex="1EBD"/>
  <outline>
    <contour>
      <point x="312" y="-13" type="curve"/>
      <point x="385" y="-13"/>
      <point x="443" y="11"/>
      <point x="490" y="42" type="curve"/>
      <point x="458" y="103" type="line"/>
      <point x="417" y="76"/>
      <point x="375" y="60"/>
      <point x="322" y="60" type="curve"/>
      <point x="219" y="60"/>
      <point x="148" y="134"/>
      <point x="142" y="250" type="curve"/>
      <point x="508" y="250" type="line"/>
      <point x="510" y="264"/>
      <point x="512" y="282"/>
      <point x="512" y="302" type="curve"/>
      <point x="512" y="457"/>
      <point x="434" y="557"/>
      <point x="295" y="557" type="curve"/>
      <point x="171" y="557"/>
      <point x="52" y="448"/>
      <point x="52" y="271" type="curve"/>
      <point x="52" y="92"/>
      <point x="167" y="-13"/>
    </contour>
    <contour>
      <point x="141" y="315" type="line"/>
      <point x="152" y="423"/>
      <point x="220" y="484"/>
      <point x="297" y="484" type="curve"/>
      <point x="382" y="484"/>
      <point x="432" y="425"/>
      <point x="432" y="315" type="curve"/>
    </contour>
    <contour>
      <point x="375" y="645" type="curve"/>
      <point x="453" y="645"/>
      <point x="485" y="711"/>
      <point x="488" y="796" type="curve"/>
      <point x="426" y="799" type="line"/>
      <point x="424" y="748"/>
      <point x="409" y="712"/>
      <point x="375" y="712" type="curve"/>
      <point x="323" y="712"/>
      <point x="293" y="805"/>
      <point x="215" y="805" type="curve"/>
      <point x="136" y="805"/>
      <point x="105" y="741"/>
      <point x="101" y="654" type="curve"/>
      <point x="163" y="650" type="line"/>
      <point x="166" y="704"/>
      <point x="181" y="739"/>
      <point x="215" y="739" type="curve"/>
      <point x="266" y="739"/>
      <point x="296" y="645"/>
    </contour>
  </outline>
</glyph>
<glyph name="Ihookabove" format="2">
  <advance width="293" height="1000"/>
  <unicode hex="1EC8"/>
  <outline>
    <contour>
      <point x="101" y="0" type="line"/>
      <point x="193" y="0" type="line"/>
      <point x="193" y="733" type="line"/>
      <point x="101" y="733" type="line"/>
    </contour>
    <contour>
      <point x="112" y="780" type="line"/>
      <point x="177" y="792"/>
      <point x="236" y="819"/>
      <point x="236" y="884" type="curve"/>
      <point x="236" y="942"/>
      <point x="179" y="971"/>
      <point x="82" y="974" type="curve"/>
      <point x="72" y="921" type="line"/>
      <point x="134" y="919"/>
      <point x="165" y="903"/>
      <point x="165" y="873" type="curve"/>
      <point x="165" y="846"/>
      <point x="138" y="833"/>
      <point x="102" y="823" type="curve"/>
    </contour>
  </outline>
</glyph>
<glyph name="idotbelow" format="2">
  <advance width="275" height="1000"/>
  <unicode hex="1ECB"/>
  <outline>
    <contour>
      <point x="92" y="0" type="line"/>
      <point x="184" y="0" type="line"/>
      <point x="184" y="543" type="line"/>
      <point x="92" y="543" type="line"/>
    </contour>
    <contour>
      <point x="138" y="655" type="curve"/>
      <point x="174" y="655"/>
      <point x="199" y="679"/>
      <point x="199" y="716" type="curve"/>
      <point x="199" y="751"/>
      <point x="174" y="775"/>
      <point x="138" y="775" type="curve"/>
      <point x="102" y="775"/>
      <point x="78" y="751"/>
      <point x="78" y="716" type="curve"/>
      <point x="78" y="679"/>
      <point x="102" y="655"/>
    </contour>
    <contour>
      <point x="137" y="-230" type="curve"/>
      <point x="172" y="-230"/>
      <point x="198" y="-207"/>
      <point x="198" y="-169" type="curve"/>
      <point x="198" y="-134"/>
      <point x="172" y="-110"/>
      <point x="137" y="-110" type="curve"/>
      <point x="101" y="-110"/>
      <point x="76" y="-134"/>
      <point x="76" y="-169" type="curve"/>
      <point x="76" y="-207"/>
      <point x="101" y="-230"/>
    </contour>
  </outline>
</glyph>
<glyph name="ohookabove" format="2">
  <advance width="606" height="1000"/>
  <unicode hex="1ECF"/>
  <outline>
    <contour>
      <point x="303" y="-13" type="curve"/>
      <point x="436" y="-13"/>
      <point x="554" y="91"/>
      <point x="554" y="271" type="curve"/>
      <point x="554" y="452"/>
      <point x="436" y="557"/>
      <point x="303" y="557" type="curve"/>
      <point x="170" y="557"/>
      <point x="52" y="452"/>
      <point x="52" y="271" type="curve"/>
      <point x="52" y="91"/>
      <point x="170" y="-13"/>
    </contour>
    <contour>
      <point x="303" y="63" type="curve"/>
      <point x="209" y="63"/>
      <point x="146" y="146"/>
      <point x="146" y="271" type="curve"/>
      <point x="146" y="396"/>
      <point x="209" y="480"/>
      <point x="303" y="480" type="curve"/>
      <point x="397" y="480"/>
      <point x="461" y="396"/>
      <point x="461" y="271" type="curve"/>
      <point x="461" y="146"/>
      <point x="397" y="63"/>
    </contour>
    <contour>
      <point x="268" y="640" type="line"/>
      <point x="333" y="651"/>
      <point x="392" y="680"/>
      <point x="392" y="745" type="curve"/>
      <point x="392" y="810"/>
      <point x="334" y="846"/>
      <point x="233" y="850" type="curve"/>
      <point x="228" y="789" type="line"/>
      <point x="290" y="786"/>
      <point x="321" y="769"/>
      <point x="321" y="737" type="curve"/>
      <point x="321" y="708"/>
      <point x="293" y="693"/>
      <point x="258" y="684" type="curve"/>
    </contour>
  </outline>
</glyph>
<glyph name="Ocircumflexhookabove" format="2">
  <advance width="742" height="1000"/>
  <unicode hex="1ED4"/>
  <outline>
    <contour>
      <point x="371" y="-13" type="curve"/>
      <point x="555" y="-13"/>
      <point x="684" y="134"/>
      <point x="684" y="369" type="curve"/>
      <point x="684" y="604"/>
      <point x="555" y="746"/>
      <point x="371" y="746" type="curve"/>
      <point x="187" y="746"/>
      <point x="58" y="604"/>
      <point x="58" y="369" type="curve"/>
      <point x="58" y="134"/>
      <point x="187" y="-13"/>
    </contour>
    <contour>
      <point x="371" y="68" type="curve"/>
      <point x="239" y="68"/>
      <point x="153" y="186"/>
      <point x="153" y="369" type="curve"/>
      <point x="153" y="552"/>
      <point x="239" y="665"/>
      <point x="371" y="665" type="curve"/>
      <point x="503" y="665"/>
      <point x="589" y="552"/>
      <point x="589" y="369" type="curve"/>
      <point x="589" y="186"/>
      <point x="503" y="68"/>
    </contour>
    <contour>
      <point x="265" y="781" type="line"/>
      <point x="369" y="859" type="line"/>
      <point x="374" y="859" type="line"/>
      <point x="478" y="781" type="line"/>
      <point x="515" y="811" type="line"/>
      <point x="411" y="911" type="line"/>
      <point x="331" y="911" type="line"/>
      <point x="227" y="811" type="line"/>
    </contour>
    <contour>
      <point x="500" y="843" type="line"/>
      <point x="552" y="852"/>
      <point x="602" y="874"/>
      <point x="602" y="931" type="curve"/>
      <point x="602" y="983"/>
      <point x="555" y="1009"/>
      <point x="468" y="1012" type="curve"/>
      <point x="458" y="966" type="line"/>
      <point x="513" y="963"/>
      <point x="537" y="951"/>
      <point x="537" y="923" type="curve"/>
      <point x="537" y="899"/>
      <point x="515" y="888"/>
      <point x="488" y="881" type="curve"/>
    </contour>
  </outline>
</glyph>
<glyph name="Ocircumflexdotbelow" format="2">
  <advance width="742" height="1000"/>
  <unicode hex="1ED8"/>
  <outline>
    <contour>
      <point x="371" y="-13" type="curve"/>
      <point x="555" y="-13"/>
      <point x="684" y="134"/>
      <point x="684" y="369" type="curve"/>
      <point x="684" y="604"/>
      <point x="555" y="746"/>
      <point x="371" y="746" type="curve"/>
      <point x="187" y="746"/>
      <point x="58" y="604"/>
      <point x="58" y="369" type="curve"/>
      <point x="58" y="134"/>
      <point x="187" y="-13"/>
    </contour>
    <contour>
      <point x="371" y="68" type="curve"/>
      <point x="239" y="68"/>
      <point x="153" y="186"/>
      <point x="153" y="369" type="curve"/>
      <point x="153" y="552"/>
      <point x="239" y="665"/>
      <point x="371" y="665" type="curve"/>
      <point x="503" y="665"/>
      <point x="589" y="552"/>
      <point x="589" y="369" type="curve"/>
      <point x="589" y="186"/>
      <point x="503" y="68"/>
    </contour>
    <contour>
      <point x="246" y="781" type="line"/>
      <point x="369" y="885" type="line"/>
      <point x="374" y="885" type="line"/>
      <point x="496" y="781" type="line"/>
      <point x="536" y="811" type="line"/>
      <point x="419" y="937" type="line"/>
      <point x="323" y="937" type="line"/>
      <point x="206" y="811" type="line"/>
    </contour>
    <contour>
      <point x="371" y="-230" type="curve"/>
      <point x="406" y="-230"/>
      <point x="432" y="-207"/>
      <point x="432" y="-169" type="curve"/>
      <point x="432" y="-134"/>
      <point x="406" y="-110"/>
      <point x="371" y="-110" type="curve"/>
      <point x="336" y="-110"/>
      <point x="310" y="-134"/>
      <point x="310" y="-169" type="curve"/>
      <point x="310" y="-207"/>
      <point x="336" y="-230"/>
    </contour>
  </outline>
</glyph>
<glyph name="ohornacute" format="2">
  <advance width="606" height="1000"/>
  <unicode hex="1EDB"/>
  <outline>
    <contour>
      <point x="303" y="63" type="curve"/>
      <point x="209" y="63"/>
      <point x="146" y="146"/>
      <point x="146" y="271" type="curve"/>
      <point x="146" y="396"/>
      <point x="209" y="480"/>
      <point x="303" y="480" type="curve"/>
      <point x="397" y="480"/>
      <point x="461" y="396"/>
      <point x="461" y="271" type="curve"/>
      <point x="461" y="146"/>
      <point x="397" y="63"/>
    </contour>
    <contour>
      <point x="288" y="640" type="line"/>
      <point x="464" y="812" type="line"/>
      <point x="400" y="872" type="line"/>
      <point x="241" y="686" type="line"/>
    </contour>
    <contour>
      <point x="303" y="-13" type="curve"/>
      <point x="436" y="-13"/>
      <point x="554" y="91"/>
      <point x="554" y="271" type="curve"/>
      <point x="554" y="371"/>
      <point x="518" y="448"/>
      <point x="463" y="497" type="curve"/>
      <point x="526" y="516"/>
      <point x="586" y="560"/>
      <point x="586" y="646" type="curve"/>
      <point x="586" y="678"/>
      <point x="575" y="709"/>
      <point x="560" y="733" type="curve"/>
      <point x="489" y="701" type="line"/>
      <point x="500" y="683"/>
      <point x="505" y="660"/>
      <point x="505" y="640" type="curve"/>
      <point x="505" y="577"/>
      <point x="470" y="545"/>
      <point x="407" y="534" type="curve"/>
      <point x="375" y="549"/>
      <point x="340" y="557"/>
      <point x="303" y="557" type="curve"/>
      <point x="170" y="557"/>
      <point x="52" y="452"/>
      <point x="52" y="271" type="curve"/>
      <point x="52" y="91"/>
      <point x="170" y="-13"/>
    </contour>
  </outline>
</glyph>
<glyph name="Ohorntilde" format="2">
  <advance width="742" height="1000"/>
  <unicode hex="1EE0"/>
  <outline>
    <contour>
      <point x="374" y="68" type="curve"/>
      <point x="243" y="68"/>
      <point x="156" y="186"/>
      <point x="156" y="369" type="curve"/>
      <point x="156" y="552"/>
      <point x="243" y="665"/>
      <point x="374" y="665" type="curve"/>
      <point x="506" y="665"/>
      <point x="592" y="552"/>
      <point x="592" y="369" type="curve"/>
      <point x="592" y="186"/>
      <point x="506" y="68"/>
    </contour>
    <contour>
      <point x="450" y="792" type="curve"/>
      <point x="517" y="792"/>
      <point x="560" y="844"/>
      <point x="563" y="930" type="curve"/>
      <point x="501" y="934" type="line"/>
      <point x="496" y="886"/>
      <point x="476" y="860"/>
      <point x="448" y="860" type="curve"/>
      <point x="394" y="860"/>
      <point x="366" y="939"/>
      <point x="282" y="939" type="curve"/>
      <point x="215" y="939"/>
      <point x="172" y="887"/>
      <point x="168" y="803" type="curve"/>
      <point x="230" y="798" type="line"/>
      <point x="235" y="846"/>
      <point x="256" y="871"/>
      <point x="284" y="871" type="curve"/>
      <point x="337" y="871"/>
      <point x="366" y="792"/>
    </contour>
    <contour>
      <point x="374" y="-13" type="curve"/>
      <point x="558" y="-13"/>
      <point x="687" y="134"/>
      <point x="687" y="369" type="curve"/>
      <point x="687" y="505"/>
      <point x="644" y="610"/>
      <point x="572" y="674" type="curve"/>
      <point x="647" y="694"/>
      <point x="692" y="737"/>
      <point x="692" y="810" type="curve"/>
      <point x="692" y="843"/>
      <point x="682" y="876"/>
      <point x="667" y="900" type="curve"/>
      <point x="594" y="868" type="line"/>
      <point x="605" y="850"/>
      <point x="610" y="826"/>
      <point x="610" y="804" type="curve"/>
      <point x="610" y="753"/>
      <point x="581" y="724"/>
      <point x="518" y="712" type="curve"/>
      <point x="476" y="734"/>
      <point x="427" y="746"/>
      <point x="374" y="746" type="curve"/>
      <point x="190" y="746"/>
      <point x="61" y="604"/>
      <point x="61" y="369" type="curve"/>
      <point x="61" y="134"/>
      <point x="190" y="-13"/>
    </contour>
  </outline>
</glyph>
<glyph name="uhookabove" format="2">
  <advance width="607" height="1000"/>
  <unicode hex="1EE7"/>
  <outline>
    <contour>
      <point x="251" y="-13" type="curve"/>
      <point x="325" y="-13"/>
      <point x="379" y="26"/>
      <point x="430" y="85" type="curve"/>
      <point x="433" y="85" type="line"/>
      <point x="440" y="0" type="line"/>
      <point x="516" y="0" type="line"/>
      <point x="516" y="543" type="line"/>
      <point x="425" y="543" type="line"/>
      <point x="425" y="158" type="line"/>
      <point x="373" y="94"/>
      <point x="334" y="66"/>
      <point x="278" y="66" type="curve"/>
      <point x="206" y="66"/>
      <point x="176" y="109"/>
      <point x="176" y="210" type="curve"/>
      <point x="176" y="543" type="line"/>
      <point x="84" y="543" type="line"/>
      <point x="84" y="199" type="line"/>
      <point x="84" y="60"/>
      <point x="136" y="-13"/>
    </contour>
    <contour>
      <point x="267" y="640" type="line"/>
      <point x="332" y="651"/>
      <point x="392" y="680"/>
      <point x="392" y="745" type="curve"/>
      <point x="392" y="810"/>
      <point x="334" y="846"/>
      <point x="233" y="850" type="curve"/>
      <point x="227" y="789" type="line"/>
      <point x="289" y="786"/>
      <point x="321" y="769"/>
      <point x="321" y="737" type="curve"/>
      <point x="321" y="708"/>
      <point x="293" y="693"/>
      <point x="257" y="684" type="curve"/>
    </contour>
  </outline>
</glyph>
<glyph name="Uhorntilde" format="2">
  <advance width="736" height="1000"/>
  <unicode hex="1EEE"/>
  <outline>
    <contour>
      <point x="445" y="792" type="curve"/>
      <point x="512" y="792"/>
      <point x="554" y="844"/>
      <point x="559" y="930" type="curve"/>
      <point x="497" y="934" type="line"/>
      <point x="491" y="886"/>
      <point x="472" y="860"/>
      <point x="442" y="860" type="curve"/>
      <point x="390" y="860"/>
      <point x="361" y="939"/>
      <point x="278" y="939" type="curve"/>
      <point x="211" y="939"/>
      <point x="168" y="887"/>
      <point x="165" y="803" type="curve"/>
      <point x="226" y="798" type="line"/>
      <point x="230" y="846"/>
      <point x="251" y="871"/>
      <point x="280" y="871" type="curve"/>
      <point x="333" y="871"/>
      <point x="361" y="792"/>
    </contour>
    <contour>
      <point x="361" y="-13" type="curve"/>
      <point x="510" y="-13"/>
      <point x="624" y="67"/>
      <point x="624" y="302" type="curve"/>
      <point x="624" y="693" type="line"/>
      <point x="695" y="710"/>
      <point x="753" y="747"/>
      <point x="753" y="832" type="curve"/>
      <point x="753" y="866"/>
      <point x="742" y="898"/>
      <point x="728" y="922" type="curve"/>
      <point x="655" y="890" type="line"/>
      <point x="665" y="873"/>
      <point x="671" y="848"/>
      <point x="671" y="826" type="curve"/>
      <point x="671" y="764"/>
      <point x="633" y="741"/>
      <point x="570" y="733" type="curve"/>
      <point x="535" y="733" type="line"/>
      <point x="535" y="300" type="line"/>
      <point x="535" y="124"/>
      <point x="458" y="68"/>
      <point x="361" y="68" type="curve"/>
      <point x="265" y="68"/>
      <point x="190" y="124"/>
      <point x="190" y="300" type="curve"/>
      <point x="190" y="733" type="line"/>
      <point x="98" y="733" type="line"/>
      <point x="98" y="302" type="line"/>
      <point x="98" y="67"/>
      <point x="211" y="-13"/>
    </contour>
  </outline>
</glyph>
<glyph name="uhorntilde" format="2">
  <advance width="607" height="1000"/>
  <unicode hex="1EEF"/>
  <outline>
    <contour>
      <point x="378" y="645" type="curve"/>
      <point x="456" y="645"/>
      <point x="487" y="711"/>
      <point x="491" y="796" type="curve"/>
      <point x="429" y="799" type="line"/>
      <point x="426" y="748"/>
      <point x="411" y="712"/>
      <point x="378" y="712" type="curve"/>
      <point x="326" y="712"/>
      <point x="296" y="805"/>
      <point x="217" y="805" type="curve"/>
      <point x="139" y="805"/>
      <point x="107" y="741"/>
      <point x="104" y="654" type="curve"/>
      <point x="166" y="650" type="line"/>
      <point x="169" y="704"/>
      <point x="184" y="739"/>
      <point x="218" y="739" type="curve"/>
      <point x="269" y="739"/>
      <point x="299" y="645"/>
    </contour>
    <contour>
      <point x="251" y="-13" type="curve"/>
      <point x="325" y="-13"/>
      <point x="379" y="26"/>
      <point x="430" y="85" type="curve"/>
      <point x="433" y="85" type="line"/>
      <point x="440" y="0" type="line"/>
      <point x="516" y="0" type="line"/>
      <point x="516" y="509" type="line"/>
      <point x="568" y="526"/>
      <point x="623" y="568"/>
      <point x="623" y="657" type="curve"/>
      <point x="623" y="689"/>
      <point x="612" y="720"/>
      <point x="597" y="744" type="curve"/>
      <point x="526" y="712" type="line"/>
      <point x="535" y="694"/>
      <point x="542" y="671"/>
      <point x="542" y="651" type="curve"/>
      <point x="542" y="576"/>
      <point x="501" y="551"/>
      <point x="449" y="543" type="curve"/>
      <point x="425" y="543" type="line"/>
      <point x="425" y="158" type="line"/>
      <point x="373" y="94"/>
      <point x="334" y="66"/>
      <point x="278" y="66" type="curve"/>
      <point x="206" y="66"/>
      <point x="176" y="109"/>
      <point x="176" y="210" type="curve"/>
      <point x="176" y="543" type="line"/>
      <point x="84" y="543" type="line"/>
      <point x="84" y="199" type="line"/>
      <point x="84" y="60"/>
      <point x="136" y="-13"/>
    </contour>
  </outline>
</glyph>
<glyph name="ygrave" format="2">
  <advance width="521" height="1000"/>
  <unicode hex="1EF3"/>
  <outline>
    <contour>
      <point x="101" y="-234" type="curve"/>
      <point x="209" y="-234"/>
      <point x="266" y="-152"/>
      <point x="304" y="-46" type="curve"/>
      <point x="508" y="543" type="line"/>
      <point x="419" y="543" type="line"/>
      <point x="321" y="242" type="line"/>
      <point x="307" y="193"/>
      <point x="291" y="138"/>
      <point x="277" y="88" type="curve"/>
      <point x="272" y="88" type="line"/>
      <point x="253" y="139"/>
      <point x="235" y="194"/>
      <point x="218" y="242" type="curve"/>
      <point x="108" y="543" type="line"/>
      <point x="13" y="543" type="line"/>
      <point x="231" y="-1" type="line"/>
      <point x="219" y="-42" type="line"/>
      <point x="196" y="-109"/>
      <point x="158" y="-159"/>
      <point x="97" y="-159" type="curve"/>
      <point x="82" y="-159"/>
      <point x="66" y="-154"/>
      <point x="55" y="-150" type="curve"/>
      <point x="37" y="-223" type="line"/>
      <point x="54" y="-230"/>
      <point x="76" y="-234"/>
    </contour>
    <contour>
      <point x="288" y="640" type="line"/>
      <point x="335" y="686" type="line"/>
      <point x="176" y="872" type="line"/>
      <point x="112" y="812" type="line"/>
    </contour>
  </outline>
</glyph>
<glyph name="Yhookabove" format="2">
  <advance width="531" height="1000"/>
  <unicode hex="1EF6"/>
  <outline>
    <contour>
      <point x="219" y="0" type="line"/>
      <point x="311" y="0" type="line"/>
      <point x="311" y="284" type="line"/>
      <point x="532" y="733" type="line"/>
      <point x="436" y="733" type="line"/>
      <point x="342" y="526" type="line"/>
      <point x="319" y="472"/>
      <point x="294" y="420"/>
      <point x="268" y="365" type="curve"/>
      <point x="264" y="365" type="line"/>
      <point x="238" y="420"/>
      <point x="216" y="472"/>
      <point x="192" y="526" type="curve"/>
      <point x="97" y="733" type="line"/>
      <point x="-1" y="733" type="line"/>
      <point x="219" y="284" type="line"/>
    </contour>
    <contour>
      <point x="231" y="780" type="line"/>
      <point x="295" y="792"/>
      <point x="354" y="819"/>
      <point x="354" y="884" type="curve"/>
      <point x="354" y="942"/>
      <point x="297" y="971"/>
      <point x="200" y="974" type="curve"/>
      <point x="190" y="921" type="line"/>
      <point x="252" y="919"/>
      <point x="283" y="903"/>
      <point x="283" y="873" type="curve"/>
      <point x="283" y="846"/>
      <point x="256" y="833"/>
      <point x="220" y="823" type="curve"/>
    </contour>
  </outline>
</glyph>
<glyph name="hyphen" format="2">
  <advance width="1000" height="1000"/>
  <unicode hex="2010"/>
  <outline>
    <contour>
      <point x="625" y="401" type="line"/>
      <point x="375" y="401" type="line"/>
      <point x="375" y="359" type="line"/>
      <point x="625" y="359" type="line"/>
    </contour>
  </outline>
</glyph>
<glyph name="reversedprime" format="2">
  <advance width="1000" height="1000"/>
  <unicode hex="2035"/>
  <unicode hex="FF40"/>
  <outline>
    <contour>
      <point x="560" y="804" type="line"/>
      <point x="455" y="939" type="line"/>
      <point x="339" y="939" type="line"/>
      <point x="487" y="804" type="line"/>
    </contour>
  </outline>
</glyph>
<glyph name="guilsinglright" format="2">
  <advance width="302" height="1000"/>
  <unicode hex="203A"/>
  <outline>
    <contour>
      <point x="100" y="74" type="line"/>
      <point x="252" y="247" type="line"/>
      <point x="252" y="316" type="line"/>
      <point x="100" y="490" type="line"/>
      <point x="60" y="456" type="line"/>
      <point x="192" y="281" type="line"/>
      <point x="60" y="105" type="line"/>
    </contour>
  </outline>
</glyph>
<glyph name="dongsign" format="2">
  <advance width="555" height="1000"/>
  <unicode hex="20AB"/>
  <outline>
    <contour>
      <point x="268" y="189" type="curve"/>
      <point x="198" y="189"/>
      <point x="157" y="243"/>
      <point x="157" y="335" type="curve"/>
      <point x="157" y="411"/>
      <point x="210" y="468"/>
      <point x="272" y="468" type="curve"/>
      <point x="313" y="468"/>
      <point x="338" y="454"/>
      <point x="376" y="422" type="curve"/>
      <point x="376" y="248" type="line"/>
      <point x="340" y="206"/>
      <point x="306" y="189"/>
    </contour>
    <contour>
      <point x="89" y="0" type="line"/>
      <point x="489" y="0" type="line"/>
      <point x="489" y="54" type="line"/>
      <point x="89" y="54" type="line"/>
    </contour>
    <contour>
      <point x="213" y="614" type="line"/>
      <point x="376" y="614" type="line"/>
      <point x="376" y="575" type="line"/>
      <point x="380" y="482" type="line"/>
      <point x="343" y="515"/>
      <point x="312" y="534"/>
      <point x="259" y="534" type="curve"/>
      <point x="165" y="534"/>
      <point x="76" y="457"/>
      <point x="76" y="334" type="curve"/>
      <point x="76" y="198"/>
      <point x="145" y="124"/>
      <point x="251" y="124" type="curve"/>
      <point x="305" y="124"/>
      <point x="347" y="148"/>
      <point x="379" y="182" type="curve"/>
      <point x="383" y="182" type="line"/>
      <point x="389" y="135" type="line"/>
      <point x="454" y="135" type="line"/>
      <point x="454" y="614" type="line"/>
      <point x="541" y="620" type="line"/>
      <point x="541" y="668" type="line"/>
      <point x="454" y="668" type="line"/>
      <point x="454" y="744" type="line"/>
      <point x="376" y="744" type="line"/>
      <point x="376" y="668" type="line"/>
      <point x="213" y="668" type="line"/>
    </contour>
  </outline>
</glyph>
<glyph name="degreefahrenheit" format="2">
  <advance width="1000" height="1000"/>
  <unicode hex="2109"/>
  <outline>
    <contour>
      <point x="224" y="477" type="curve"/>
      <point x="299" y="477"/>
      <point x="364" y="534"/>
      <point x="364" y="620" type="curve"/>
      <point x="364" y="708"/>
      <point x="299" y="763"/>
      <point x="224" y="763" type="curve"/>
      <point x="148" y="763"/>
      <point x="83" y="708"/>
      <point x="83" y="620" type="curve"/>
      <point x="83" y="534"/>
      <point x="148" y="477"/>
    </contour>
    <contour>
      <point x="224" y="529" type="curve"/>
      <point x="174" y="529"/>
      <point x="140" y="567"/>
      <point x="140" y="620" type="curve"/>
      <point x="140" y="674"/>
      <point x="174" y="711"/>
      <point x="224" y="711" type="curve"/>
      <point x="273" y="711"/>
      <point x="308" y="674"/>
      <point x="308" y="620" type="curve"/>
      <point x="308" y="567"/>
      <point x="273" y="529"/>
    </contour>
    <contour>
      <point x="508" y="0" type="line"/>
      <point x="603" y="0" type="line"/>
      <point x="603" y="326" type="line"/>
      <point x="882" y="326" type="line"/>
      <point x="882" y="407" type="line"/>
      <point x="603" y="407" type="line"/>
      <point x="603" y="651" type="line"/>
      <point x="932" y="651" type="line"/>
      <point x="932" y="732" type="line"/>
      <point x="508" y="732" type="line"/>
    </contour>
  </outline>
</glyph>
<glyph name="Ohmsign-grek" format="2">
  <advance width="1000" height="1000"/>
  <unicode hex="2126"/>
  <outline>
    <contour>
      <point x="140" y="76" type="line"/>
      <point x="140" y="0" type="line"/>
      <point x="427" y="0" type="line"/>
      <point x="427" y="67" type="line"/>
      <point x="330" y="133"/>
      <point x="246" y="230"/>
      <point x="246" y="387" type="curve"/>
      <point x="246" y="546"/>
      <point x="348" y="665"/>
      <point x="500" y="665" type="curve"/>
      <point x="651" y="665"/>
      <point x="754" y="546"/>
      <point x="754" y="387" type="curve"/>
      <point x="754" y="230"/>
      <point x="669" y="133"/>
      <point x="572" y="67" type="curve"/>
      <point x="572" y="0" type="line"/>
      <point x="861" y="0" type="line"/>
      <point x="861" y="76" type="line"/>
      <point x="692" y="76" type="line"/>
      <point x="692" y="80" type="line"/>
      <point x="767" y="138"/>
      <point x="844" y="244"/>
      <point x="844" y="392" type="curve"/>
      <point x="844" y="598"/>
      <point x="705" y="746"/>
      <point x="500" y="746" type="curve"/>
      <point x="293" y="746"/>
      <point x="156" y="598"/>
      <point x="156" y="392" type="curve"/>
      <point x="156" y="244"/>
      <point x="233" y="138"/>
      <point x="307" y="80" type="curve"/>
      <point x="307" y="76" type="line"/>
    </contour>
  </outline>
</glyph>
<glyph name="alefsymbol" format="2">
  <advance width="1000" height="1000"/>
  <unicode hex="2135"/>
  <outline>
    <contour>
      <point x="635" y="660" type="curve"/>
      <point x="702" y="649" type="line"/>
      <point x="624" y="582"/>
      <point x="587" y="460"/>
      <point x="604" y="331" type="curve"/>
      <point x="326" y="603" type="line"/>
      <point x="260" y="670"/>
      <point x="245" y="718"/>
      <point x="284" y="771" type="curve"/>
      <point x="230" y="771" type="line"/>
      <point x="183" y="725"/>
      <point x="161" y="651"/>
      <point x="264" y="547" type="curve"/>
      <point x="339" y="474" type="line"/>
      <point x="246" y="437"/>
      <point x="180" y="371"/>
      <point x="180" y="292" type="curve"/>
      <point x="180" y="178"/>
      <point x="250" y="164"/>
      <point x="250" y="82" type="curve"/>
      <point x="250" y="38"/>
      <point x="209" y="4"/>
      <point x="178" y="-7" type="curve"/>
      <point x="278" y="-7" type="line"/>
      <point x="308" y="6"/>
      <point x="333" y="47"/>
      <point x="333" y="85" type="curve"/>
      <point x="333" y="182"/>
      <point x="256" y="196"/>
      <point x="256" y="303" type="curve"/>
      <point x="256" y="350"/>
      <point x="299" y="401"/>
      <point x="378" y="435" type="curve"/>
      <point x="641" y="178" type="line"/>
      <point x="704" y="115"/>
      <point x="754" y="57"/>
      <point x="693" y="-7" type="curve"/>
      <point x="747" y="-7" type="line"/>
      <point x="818" y="47"/>
      <point x="799" y="138"/>
      <point x="703" y="235" type="curve"/>
      <point x="661" y="276" type="line"/>
      <point x="623" y="436"/>
      <point x="656" y="566"/>
      <point x="763" y="637" type="curve"/>
      <point x="790" y="629"/>
      <point x="806" y="613"/>
      <point x="805" y="586" type="curve"/>
      <point x="839" y="603" type="line"/>
      <point x="858" y="649"/>
      <point x="835" y="700"/>
      <point x="760" y="710" type="curve"/>
      <point x="660" y="720" type="line"/>
      <point x="627" y="726"/>
      <point x="613" y="738"/>
      <point x="614" y="776" type="curve"/>
      <point x="586" y="765" type="line"/>
      <point x="569" y="720"/>
      <point x="580" y="669"/>
    </contour>
  </outline>
</glyph>
<glyph name="facsimilesign" format="2">
  <advance width="1000" height="1000"/>
  <unicode hex="213B"/>
  <outline>
    <contour>
      <point x="60" y="0" type="line"/>
      <point x="126" y="0" type="line"/>
      <point x="126" y="336" type="line"/>
      <point x="281" y="336" type="line"/>
      <point x="281" y="400" type="line"/>
      <point x="126" y="400" type="line"/>
      <point x="126" y="671" type="line"/>
      <point x="319" y="671" type="line"/>
      <point x="319" y="735" type="line"/>
      <point x="60" y="735" type="line"/>
    </contour>
    <contour>
      <point x="660" y="0" type="line"/>
      <point x="727" y="0" type="line"/>
      <point x="783" y="195" type="line"/>
      <point x="792" y="232"/>
      <point x="805" y="272"/>
      <point x="817" y="316" type="curve"/>
      <point x="821" y="316" type="line"/>
      <point x="834" y="272"/>
      <point x="845" y="232"/>
      <point x="857" y="195" type="curve"/>
      <point x="916" y="0" type="line"/>
      <point x="984" y="0" type="line"/>
      <point x="861" y="373" type="line"/>
      <point x="976" y="735" type="line"/>
      <point x="908" y="735" type="line"/>
      <point x="857" y="550" type="line"/>
      <point x="847" y="516"/>
      <point x="838" y="482"/>
      <point x="827" y="441" type="curve"/>
      <point x="823" y="441" type="line"/>
      <point x="810" y="481"/>
      <point x="802" y="517"/>
      <point x="791" y="550" type="curve"/>
      <point x="735" y="735" type="line"/>
      <point x="667" y="735" type="line"/>
      <point x="782" y="383" type="line"/>
      <point x="672" y="37" type="line"/>
      <point x="538" y="735" type="line"/>
      <point x="445" y="735" type="line"/>
      <point x="304" y="0" type="line"/>
      <point x="369" y="0" type="line"/>
      <point x="411" y="231" type="line"/>
      <point x="570" y="231" type="line"/>
      <point x="612" y="0" type="line"/>
    </contour>
    <contour>
      <point x="422" y="290" type="line"/>
      <point x="444" y="411" type="line"/>
      <point x="459" y="495"/>
      <point x="473" y="578"/>
      <point x="489" y="666" type="curve"/>
      <point x="493" y="666" type="line"/>
      <point x="509" y="578"/>
      <point x="522" y="495"/>
      <point x="537" y="411" type="curve"/>
      <point x="559" y="290" type="line"/>
    </contour>
  </outline>
</glyph>
<glyph name="Twelveromannumeral" format="2">
  <advance width="1000" height="1000"/>
  <unicode hex="216B"/>
  <outline>
    <contour>
      <point x="5" y="0" type="line"/>
      <point x="96" y="0" type="line"/>
      <point x="195" y="196" type="line"/>
      <point x="212" y="232"/>
      <point x="229" y="269"/>
      <point x="249" y="313" type="curve"/>
      <point x="253" y="313" type="line"/>
      <point x="275" y="269"/>
      <point x="293" y="232"/>
      <point x="310" y="196" type="curve"/>
      <point x="412" y="0" type="line"/>
      <point x="509" y="0" type="line"/>
      <point x="308" y="373" type="line"/>
      <point x="494" y="732" type="line"/>
      <point x="404" y="732" type="line"/>
      <point x="312" y="546" type="line"/>
      <point x="296" y="512"/>
      <point x="284" y="482"/>
      <point x="265" y="440" type="curve"/>
      <point x="261" y="440" type="line"/>
      <point x="238" y="482"/>
      <point x="224" y="511"/>
      <point x="208" y="546" type="curve"/>
      <point x="114" y="732" type="line"/>
      <point x="18" y="732" type="line"/>
      <point x="205" y="378" type="line"/>
    </contour>
    <contour>
      <point x="593" y="0" type="line"/>
      <point x="683" y="0" type="line"/>
      <point x="683" y="732" type="line"/>
      <point x="593" y="732" type="line"/>
    </contour>
    <contour>
      <point x="836" y="0" type="line"/>
      <point x="926" y="0" type="line"/>
      <point x="926" y="732" type="line"/>
      <point x="836" y="732" type="line"/>
    </contour>
  </outline>
</glyph>
<glyph name="sevenromannumeral" format="2">
  <advance width="1000" height="1000"/>
  <unicode hex="2176"/>
  <outline>
    <contour>
      <point x="196" y="0" type="line"/>
      <point x="306" y="0" type="line"/>
      <point x="485" y="542" type="line"/>
      <point x="393" y="542" type="line"/>
      <point x="300" y="236" type="line"/>
      <point x="286" y="183"/>
      <point x="270" y="127"/>
      <point x="254" y="76" type="curve"/>
      <point x="250" y="76" type="line"/>
      <point x="233" y="127"/>
      <point x="217" y="183"/>
      <point x="203" y="236" type="curve"/>
      <point x="110" y="542" type="line"/>
      <point x="13" y="542" type="line"/>
    </contour>
    <contour>
      <point x="570" y="0" type="line"/>
      <point x="665" y="0" type="line"/>
      <point x="665" y="542" type="line"/>
      <point x="570" y="542" type="line"/>
    </contour>
    <contour>
      <point x="618" y="653" type="curve"/>
      <point x="654" y="653"/>
      <point x="682" y="678"/>
      <point x="682" y="713" type="curve"/>
      <point x="682" y="749"/>
      <point x="654" y="773"/>
      <point x="618" y="773" type="curve"/>
      <point x="581" y="773"/>
      <point x="553" y="749"/>
      <point x="553" y="713" type="curve"/>
      <point x="553" y="678"/>
      <point x="581" y="653"/>
    </contour>
    <contour>
      <point x="821" y="0" type="line"/>
      <point x="915" y="0" type="line"/>
      <point x="915" y="542" type="line"/>
      <point x="821" y="542" type="line"/>
    </contour>
    <contour>
      <point x="869" y="653" type="curve"/>
      <point x="905" y="653"/>
      <point x="933" y="678"/>
      <point x="933" y="713" type="curve"/>
      <point x="933" y="749"/>
      <point x="905" y="773"/>
      <point x="869" y="773" type="curve"/>
      <point x="832" y="773"/>
      <point x="804" y="749"/>
      <point x="804" y="713" type="curve"/>
      <point x="804" y="678"/>
      <point x="832" y="653"/>
    </contour>
  </outline>
</glyph>
<glyph name="leftwardsarrowtobaroverrightwardsarrowtobar" format="2">
  <advance width="1000" height="1000"/>
  <unicode hex="21B9"/>
  <outline>
    <contour>
      <point x="897" y="380" type="line"/>
      <point x="897" y="174" type="line"/>
      <point x="814" y="231"/>
      <point x="726" y="312"/>
      <point x="663" y="393" type="curve"/>
      <point x="603" y="358" type="line"/>
      <point x="648" y="296"/>
      <point x="714" y="233"/>
      <point x="766" y="194" type="curve"/>
      <point x="40" y="194" type="line"/>
      <point x="40" y="126" type="line"/>
      <point x="766" y="126" type="line"/>
      <point x="714" y="87"/>
      <point x="648" y="24"/>
      <point x="603" y="-38" type="curve"/>
      <point x="663" y="-73" type="line"/>
      <point x="726" y="8"/>
      <point x="814" y="89"/>
      <point x="898" y="146" type="curve"/>
      <point x="898" y="-60" type="line"/>
      <point x="966" y="-60" type="line"/>
      <point x="965" y="380" type="line"/>
    </contour>
    <contour>
      <point x="34" y="820" type="line"/>
      <point x="34" y="380" type="line"/>
      <point x="102" y="380" type="line"/>
      <point x="102" y="585" type="line"/>
      <point x="185" y="529"/>
      <point x="274" y="448"/>
      <point x="336" y="367" type="curve"/>
      <point x="396" y="402" type="line"/>
      <point x="351" y="464"/>
      <point x="285" y="527"/>
      <point x="234" y="566" type="curve"/>
      <point x="959" y="566" type="line"/>
      <point x="959" y="634" type="line"/>
      <point x="234" y="634" type="line"/>
      <point x="285" y="673"/>
      <point x="351" y="736"/>
      <point x="396" y="798" type="curve"/>
      <point x="336" y="833" type="line"/>
      <point x="274" y="752"/>
      <point x="185" y="671"/>
      <point x="102" y="615" type="curve"/>
      <point x="102" y="820" type="line"/>
    </contour>
  </outline>
</glyph>
<glyph name="upwardsarrowleftwardsofdownwardsarrow" format="2">
  <advance width="1000" height="1000"/>
  <unicode hex="21C5"/>
  <outline>
    <contour>
      <point x="246" y="691" type="curve"/>
      <point x="246" y="-80" type="line"/>
      <point x="314" y="-80" type="line"/>
      <point x="314" y="691" type="line"/>
      <point x="353" y="640"/>
      <point x="416" y="574"/>
      <point x="478" y="529" type="curve"/>
      <point x="513" y="589" type="line"/>
      <point x="425" y="656"/>
      <point x="337" y="756"/>
      <point x="280" y="845" type="curve"/>
      <point x="223" y="756"/>
      <point x="135" y="656"/>
      <point x="47" y="589" type="curve"/>
      <point x="82" y="529" type="line"/>
      <point x="144" y="574"/>
      <point x="207" y="640"/>
    </contour>
    <contour>
      <point x="754" y="69" type="curve"/>
      <point x="754" y="840" type="line"/>
      <point x="686" y="840" type="line"/>
      <point x="686" y="69" type="line"/>
      <point x="647" y="120"/>
      <point x="584" y="186"/>
      <point x="522" y="231" type="curve"/>
      <point x="487" y="171" type="line"/>
      <point x="575" y="104"/>
      <point x="663" y="4"/>
      <point x="720" y="-85" type="curve"/>
      <point x="777" y="4"/>
      <point x="865" y="104"/>
      <point x="953" y="171" type="curve"/>
      <point x="918" y="231" type="line"/>
      <point x="856" y="186"/>
      <point x="793" y="120"/>
    </contour>
  </outline>
</glyph>
<glyph name="rightwardsharpoonoverleftwardsharpoon" format="2">
  <advance width="1000" height="1000"/>
  <unicode hex="21CC"/>
  <outline>
    <contour>
      <point x="40" y="525" type="line"/>
      <point x="965" y="525" type="line"/>
      <point x="877" y="584"/>
      <point x="756" y="694"/>
      <point x="689" y="793" type="curve"/>
      <point x="630" y="757" type="line"/>
      <point x="673" y="696"/>
      <point x="734" y="634"/>
      <point x="783" y="594" type="curve"/>
      <point x="40" y="594" type="line"/>
    </contour>
    <contour>
      <point x="960" y="227" type="line"/>
      <point x="35" y="227" type="line"/>
      <point x="123" y="169"/>
      <point x="244" y="58"/>
      <point x="311" y="-40" type="curve"/>
      <point x="370" y="-5" type="line"/>
      <point x="327" y="56"/>
      <point x="266" y="118"/>
      <point x="217" y="158" type="curve"/>
      <point x="960" y="158" type="line"/>
    </contour>
  </outline>
</glyph>
<glyph name="notanelementof" format="2">
  <advance width="1000" height="1000"/>
  <unicode hex="2209"/>
  <outline>
    <contour>
      <point x="541" y="629" type="line"/>
      <point x="872" y="629" type="line"/>
      <point x="872" y="698" type="line"/>
      <point x="541" y="698" type="line"/>
      <point x="541" y="786" type="line"/>
      <point x="472" y="786" type="line"/>
      <point x="472" y="698" type="line"/>
      <point x="460" y="698" type="line"/>
      <point x="270" y="698"/>
      <point x="124" y="557"/>
      <point x="124" y="376" type="curve"/>
      <point x="124" y="194"/>
      <point x="270" y="53"/>
      <point x="460" y="53" type="curve"/>
      <point x="472" y="53" type="line"/>
      <point x="472" y="-35" type="line"/>
      <point x="541" y="-35" type="line"/>
      <point x="541" y="53" type="line"/>
      <point x="872" y="53" type="line"/>
      <point x="872" y="122" type="line"/>
      <point x="541" y="122" type="line"/>
      <point x="541" y="341" type="line"/>
      <point x="872" y="341" type="line"/>
      <point x="872" y="410" type="line"/>
      <point x="541" y="410" type="line"/>
    </contour>
    <contour>
      <point x="460" y="629" type="curve"/>
      <point x="472" y="629" type="line"/>
      <point x="472" y="410" type="line"/>
      <point x="197" y="410" type="line"/>
      <point x="213" y="535"/>
      <point x="320" y="629"/>
    </contour>
    <contour>
      <point x="197" y="341" type="curve"/>
      <point x="472" y="341" type="line"/>
      <point x="472" y="122" type="line"/>
      <point x="460" y="122" type="line"/>
      <point x="320" y="122"/>
      <point x="213" y="216"/>
    </contour>
  </outline>
</glyph>
<glyph name="naryproduct" format="2">
  <advance width="1000" height="1000"/>
  <unicode hex="220F"/>
  <outline>
    <contour>
      <point x="208" y="713" type="line"/>
      <point x="208" y="-134" type="line"/>
      <point x="300" y="-134" type="line"/>
      <point x="300" y="632" type="line"/>
      <point x="699" y="632" type="line"/>
      <point x="699" y="-134" type="line"/>
      <point x="793" y="-134" type="line"/>
      <point x="793" y="713" type="line"/>
    </contour>
  </outline>
</glyph>
<glyph name="narysummation" format="2">
  <advance width="1000" height="1000"/>
  <unicode hex="2211"/>
  <outline>
    <contour>
      <point x="326" y="75" type="line"/>
      <point x="326" y="79" type="line"/>
      <point x="591" y="364" type="line"/>
      <point x="342" y="648" type="line"/>
      <point x="342" y="652" type="line"/>
      <point x="762" y="652" type="line"/>
      <point x="762" y="726" type="line"/>
      <point x="217" y="726" type="line"/>
      <point x="217" y="670" type="line"/>
      <point x="488" y="362" type="line"/>
      <point x="201" y="53" type="line"/>
      <point x="201" y="0" type="line"/>
      <point x="799" y="0" type="line"/>
      <point x="799" y="75" type="line"/>
    </contour>
  </outline>
</glyph>
<glyph name="divisionslash" format="2">
  <advance width="1000" height="1000"/>
  <unicode hex="2215"/>
  <unicode hex="FF0F"/>
  <outline>
    <contour>
      <point x="936" y="846" type="line"/>
      <point x="34" y="-56" type="line"/>
      <point x="64" y="-86" type="line"/>
      <point x="966" y="816" type="line"/>
    </contour>
  </outline>
</glyph>
<glyph name="divides" format="2">
  <advance width="1000" height="1000"/>
  <unicode hex="2223"/>
  <outline>
    <contour>
      <point x="466" y="743" type="line"/>
      <point x="466" y="17" type="line"/>
      <point x="534" y="17" type="line"/>
      <point x="534" y="743" type="line"/>
    </contour>
  </outline>
</glyph>
<glyph name="logicaland" format="2">
  <advance width="1000" height="1000"/>
  <unicode hex="2227"/>
  <outline>
    <contour>
      <point x="498" y="770" type="line"/>
      <point x="113" y="23" type="line"/>
      <point x="174" y="-9" type="line"/>
      <point x="499" y="626" type="line"/>
      <point x="501" y="626" type="line"/>
      <point x="826" y="-9" type="line"/>
      <point x="887" y="23" type="line"/>
      <point x="502" y="770" type="line"/>
    </contour>
  </outline>
</glyph>
<glyph name="logicalor" format="2">
  <advance width="1000" height="1000"/>
  <unicode hex="2228"/>
  <outline>
    <contour>
      <point x="502" y="-19" type="line"/>
      <point x="887" y="728" type="line"/>
      <point x="826" y="760" type="line"/>
      <point x="501" y="125" type="line"/>
      <point x="499" y="125" type="line"/>
      <point x="174" y="760" type="line"/>
      <point x="113" y="728" type="line"/>
      <point x="498" y="-19" type="line"/>
    </contour>
  </outline>
</glyph>
<glyph name="doubleintegral" format="2">
  <advance width="1000" height="1000"/>
  <unicode hex="222C"/>
  <outline>
    <contour>
      <point x="266" y="605" type="curve"/>
      <point x="266" y="166" type="line"/>
      <point x="266" y="9"/>
      <point x="212" y="-12"/>
      <point x="162" y="-12" type="curve"/>
      <point x="150" y="-12"/>
      <point x="140" y="-11"/>
      <point x="129" y="-8" type="curve"/>
      <point x="122" y="-81" type="line"/>
      <point x="136" y="-84"/>
      <point x="152" y="-86"/>
      <point x="168" y="-86" type="curve"/>
      <point x="251" y="-86"/>
      <point x="346" y="-46"/>
      <point x="346" y="155" type="curve"/>
      <point x="346" y="594" type="line"/>
      <point x="346" y="751"/>
      <point x="400" y="772"/>
      <point x="450" y="772" type="curve"/>
      <point x="462" y="772"/>
      <point x="472" y="771"/>
      <point x="483" y="768" type="curve"/>
      <point x="490" y="841" type="line"/>
      <point x="476" y="844"/>
      <point x="461" y="846"/>
      <point x="444" y="846" type="curve"/>
      <point x="362" y="846"/>
      <point x="266" y="806"/>
    </contour>
    <contour>
      <point x="654" y="605" type="curve"/>
      <point x="654" y="166" type="line"/>
      <point x="654" y="9"/>
      <point x="600" y="-12"/>
      <point x="550" y="-12" type="curve"/>
      <point x="538" y="-12"/>
      <point x="528" y="-11"/>
      <point x="517" y="-8" type="curve"/>
      <point x="510" y="-81" type="line"/>
      <point x="524" y="-84"/>
      <point x="539" y="-86"/>
      <point x="556" y="-86" type="curve"/>
      <point x="638" y="-86"/>
      <point x="734" y="-46"/>
      <point x="734" y="155" type="curve"/>
      <point x="734" y="594" type="line"/>
      <point x="734" y="751"/>
      <point x="788" y="772"/>
      <point x="838" y="772" type="curve"/>
      <point x="850" y="772"/>
      <point x="860" y="771"/>
      <point x="871" y="768" type="curve"/>
      <point x="878" y="841" type="line"/>
      <point x="864" y="844"/>
      <point x="848" y="846"/>
      <point x="832" y="846" type="curve"/>
      <point x="749" y="846"/>
      <point x="654" y="806"/>
    </contour>
  </outline>
</glyph>
<glyph name="approximatelyequalto" format="2">
  <advance width="1000" height="1000"/>
  <unicode hex="2245"/>
  <outline>
    <contour>
      <point x="514" y="544" type="curve"/>
      <point x="464" y="580"/>
      <point x="415" y="605"/>
      <point x="353" y="605" type="curve"/>
      <point x="262" y="605"/>
      <point x="180" y="553"/>
      <point x="126" y="462" type="curve"/>
      <point x="183" y="421" type="line"/>
      <point x="224" y="496"/>
      <point x="289" y="537"/>
      <point x="353" y="537" type="curve"/>
      <point x="403" y="537"/>
      <point x="439" y="513"/>
      <point x="483" y="482" type="curve"/>
      <point x="534" y="447"/>
      <point x="582" y="421"/>
      <point x="645" y="421" type="curve"/>
      <point x="736" y="421"/>
      <point x="817" y="473"/>
      <point x="871" y="565" type="curve"/>
      <point x="815" y="605" type="line"/>
      <point x="774" y="531"/>
      <point x="709" y="490"/>
      <point x="645" y="490" type="curve"/>
      <point x="594" y="490"/>
      <point x="558" y="514"/>
    </contour>
    <contour>
      <point x="863" y="339" type="line"/>
      <point x="137" y="339" type="line"/>
      <point x="137" y="272" type="line"/>
      <point x="863" y="272" type="line"/>
    </contour>
    <contour>
      <point x="863" y="196" type="line"/>
      <point x="137" y="196" type="line"/>
      <point x="137" y="129" type="line"/>
      <point x="863" y="129" type="line"/>
    </contour>
  </outline>
</glyph>
<glyph name="almostequalto" format="2">
  <advance width="1000" height="1000"/>
  <unicode hex="2248"/>
  <outline>
    <contour>
      <point x="514" y="293" type="curve"/>
      <point x="464" y="329"/>
      <point x="415" y="354"/>
      <point x="353" y="354" type="curve"/>
      <point x="262" y="354"/>
      <point x="180" y="302"/>
      <point x="126" y="211" type="curve"/>
      <point x="183" y="170" type="line"/>
      <point x="224" y="245"/>
      <point x="289" y="286"/>
      <point x="353" y="286" type="curve"/>
      <point x="403" y="286"/>
      <point x="439" y="262"/>
      <point x="483" y="231" type="curve"/>
      <point x="534" y="196"/>
      <point x="582" y="170"/>
      <point x="645" y="170" type="curve"/>
      <point x="736" y="170"/>
      <point x="817" y="222"/>
      <point x="871" y="314" type="curve"/>
      <point x="815" y="354" type="line"/>
      <point x="774" y="280"/>
      <point x="709" y="239"/>
      <point x="645" y="239" type="curve"/>
      <point x="594" y="239"/>
      <point x="558" y="263"/>
    </contour>
    <contour>
      <point x="514" y="529" type="curve"/>
      <point x="464" y="564"/>
      <point x="415" y="590"/>
      <point x="353" y="590" type="curve"/>
      <point x="262" y="590"/>
      <point x="180" y="538"/>
      <point x="126" y="446" type="curve"/>
      <point x="183" y="406" type="line"/>
      <point x="224" y="480"/>
      <point x="289" y="521"/>
      <point x="353" y="521" type="curve"/>
      <point x="403" y="521"/>
      <point x="439" y="497"/>
      <point x="483" y="467" type="curve"/>
      <point x="534" y="431"/>
      <point x="582" y="406"/>
      <point x="645" y="406" type="curve"/>
      <point x="736" y="406"/>
      <point x="817" y="458"/>
      <point x="871" y="549" type="curve"/>
      <point x="815" y="590" type="line"/>
      <point x="774" y="515"/>
      <point x="709" y="474"/>
      <point x="645" y="474" type="curve"/>
      <point x="594" y="474"/>
      <point x="558" y="498"/>
    </contour>
  </outline>
</glyph>
<glyph name="greaterthanoverequalto" format="2">
  <advance width="1000" height="1000"/>
  <unicode hex="2267"/>
  <outline>
    <contour>
      <point x="896" y="556" type="line"/>
      <point x="141" y="846" type="line"/>
      <point x="118" y="781" type="line"/>
      <point x="703" y="556" type="line"/>
      <point x="703" y="552" type="line"/>
      <point x="118" y="327" type="line"/>
      <point x="141" y="262" type="line"/>
      <point x="896" y="552" type="line"/>
    </contour>
    <contour>
      <point x="872" y="187" type="line"/>
      <point x="128" y="187" type="line"/>
      <point x="128" y="122" type="line"/>
      <point x="872" y="122" type="line"/>
    </contour>
    <contour>
      <point x="872" y="19" type="line"/>
      <point x="128" y="19" type="line"/>
      <point x="128" y="-46" type="line"/>
      <point x="872" y="-46" type="line"/>
    </contour>
  </outline>
</glyph>
<glyph name="muchlessthan" format="2">
  <advance width="1000" height="1000"/>
  <unicode hex="226A"/>
  <outline>
    <contour>
      <point x="642" y="713" type="line"/>
      <point x="607" y="763" type="line"/>
      <point x="54" y="378" type="line"/>
      <point x="54" y="374" type="line"/>
      <point x="607" y="-12" type="line"/>
      <point x="642" y="38" type="line"/>
      <point x="160" y="374" type="line"/>
      <point x="160" y="378" type="line"/>
    </contour>
    <contour>
      <point x="945" y="713" type="line"/>
      <point x="910" y="763" type="line"/>
      <point x="357" y="378" type="line"/>
      <point x="357" y="374" type="line"/>
      <point x="910" y="-12" type="line"/>
      <point x="945" y="38" type="line"/>
      <point x="462" y="374" type="line"/>
      <point x="462" y="378" type="line"/>
    </contour>
  </outline>
</glyph>
<glyph name="lessthanorequivalentto" format="2">
  <advance width="1000" height="1000"/>
  <unicode hex="2272"/>
  <outline>
    <contour>
      <point x="113" y="495" type="line"/>
      <point x="864" y="191" type="line"/>
      <point x="892" y="254" type="line"/>
      <point x="297" y="495" type="line"/>
      <point x="297" y="497" type="line"/>
      <point x="892" y="737" type="line"/>
      <point x="864" y="801" type="line"/>
      <point x="113" y="497" type="line"/>
    </contour>
    <contour>
      <point x="487" y="11" type="curve"/>
      <point x="539" y="-24"/>
      <point x="590" y="-49"/>
      <point x="655" y="-49" type="curve"/>
      <point x="750" y="-49"/>
      <point x="834" y="2"/>
      <point x="891" y="94" type="curve"/>
      <point x="834" y="134" type="line"/>
      <point x="790" y="58"/>
      <point x="721" y="19"/>
      <point x="655" y="19" type="curve"/>
      <point x="599" y="19"/>
      <point x="563" y="43"/>
      <point x="517" y="74" type="curve"/>
      <point x="465" y="109"/>
      <point x="415" y="134"/>
      <point x="349" y="134" type="curve"/>
      <point x="254" y="134"/>
      <point x="169" y="82"/>
      <point x="113" y="-9" type="curve"/>
      <point x="170" y="-49" type="line"/>
      <point x="213" y="26"/>
      <point x="283" y="65"/>
      <point x="349" y="65" type="curve"/>
      <point x="405" y="65"/>
      <point x="441" y="42"/>
    </contour>
  </outline>
</glyph>
<glyph name="supersetof" format="2">
  <advance width="1000" height="1000"/>
  <unicode hex="2283"/>
  <outline>
    <contour>
      <point x="876" y="376" type="curve"/>
      <point x="876" y="557"/>
      <point x="730" y="698"/>
      <point x="540" y="698" type="curve"/>
      <point x="128" y="698" type="line"/>
      <point x="128" y="629" type="line"/>
      <point x="540" y="629" type="line"/>
      <point x="692" y="629"/>
      <point x="807" y="519"/>
      <point x="807" y="376" type="curve"/>
      <point x="807" y="232"/>
      <point x="692" y="122"/>
      <point x="540" y="122" type="curve"/>
      <point x="128" y="122" type="line"/>
      <point x="128" y="53" type="line"/>
      <point x="540" y="53" type="line"/>
      <point x="730" y="53"/>
      <point x="876" y="194"/>
    </contour>
  </outline>
</glyph>
<glyph name="circledtimes" format="2">
  <advance width="1000" height="1000"/>
  <unicode hex="2297"/>
  <outline>
    <contour>
      <point x="130" y="380" type="curve"/>
      <point x="130" y="176"/>
      <point x="296" y="10"/>
      <point x="500" y="10" type="curve"/>
      <point x="704" y="10"/>
      <point x="870" y="176"/>
      <point x="870" y="380" type="curve"/>
      <point x="870" y="584"/>
      <point x="704" y="750"/>
      <point x="500" y="750" type="curve"/>
      <point x="296" y="750"/>
      <point x="130" y="584"/>
    </contour>
    <contour>
      <point x="500" y="79" type="curve"/>
      <point x="334" y="79"/>
      <point x="199" y="214"/>
      <point x="199" y="380" type="curve"/>
      <point x="199" y="546"/>
      <point x="334" y="681"/>
      <point x="500" y="681" type="curve"/>
      <point x="666" y="681"/>
      <point x="801" y="546"/>
      <point x="801" y="380" type="curve"/>
      <point x="801" y="214"/>
      <point x="666" y="79"/>
    </contour>
    <contour>
      <point x="548" y="380" type="line"/>
      <point x="687" y="518" type="line"/>
      <point x="638" y="566" type="line"/>
      <point x="500" y="428" type="line"/>
      <point x="362" y="566" type="line"/>
      <point x="313" y="518" type="line"/>
      <point x="452" y="380" type="line"/>
      <point x="313" y="241" type="line"/>
      <point x="362" y="193" type="line"/>
      <point x="500" y="331" type="line"/>
      <point x="638" y="193" type="line"/>
      <point x="687" y="241" type="line"/>
    </contour>
  </outline>
</glyph>
<glyph name="uptack" format="2">
  <advance width="1000" height="1000"/>
  <unicode hex="22A5"/>
  <outline>
    <contour>
      <point x="895" y="105" type="line"/>
      <point x="534" y="105" type="line"/>
      <point x="534" y="739" type="line"/>
      <point x="466" y="739" type="line"/>
      <point x="466" y="105" type="line"/>
      <point x="105" y="105" type="line"/>
      <point x="105" y="36" type="line"/>
      <point x="895" y="36" type="line"/>
    </contour>
  </outline>
</glyph>
<glyph name="righttriangle" format="2">
  <advance width="1000" height="1000"/>
  <unicode hex="22BF"/>
  <outline>
    <contour>
      <point x="94" y="12" type="line"/>
      <point x="864" y="12" type="line"/>
      <point x="864" y="781" type="line"/>
      <point x="860" y="781" type="line"/>
      <point x="94" y="16" type="line"/>
    </contour>
    <contour>
      <point x="795" y="619" type="line"/>
      <point x="795" y="81" type="line"/>
      <point x="256" y="81" type="line"/>
      <point x="256" y="84" type="line"/>
      <point x="792" y="619" type="line"/>
    </contour>
  </outline>
</glyph>
<glyph name="lessthanequaltoorgreaterthan" format="2">
  <advance width="1000" height="1000"/>
  <unicode hex="22DA"/>
  <outline>
    <contour>
      <point x="345" y="637" type="line"/>
      <point x="345" y="641" type="line"/>
      <point x="879" y="785" type="line"/>
      <point x="862" y="847" type="line"/>
      <point x="95" y="642" type="line"/>
      <point x="95" y="637" type="line"/>
      <point x="862" y="432" type="line"/>
      <point x="879" y="494" type="line"/>
    </contour>
    <contour>
      <point x="872" y="412" type="line"/>
      <point x="128" y="412" type="line"/>
      <point x="128" y="348" type="line"/>
      <point x="872" y="348" type="line"/>
    </contour>
    <contour>
      <point x="96" y="265" type="line"/>
      <point x="630" y="122" type="line"/>
      <point x="630" y="118" type="line"/>
      <point x="96" y="-26" type="line"/>
      <point x="113" y="-88" type="line"/>
      <point x="879" y="118" type="line"/>
      <point x="879" y="122" type="line"/>
      <point x="113" y="327" type="line"/>
    </contour>
  </outline>
</glyph>
<glyph name="returnsymbol" format="2">
  <advance width="1000" height="1000"/>
  <unicode hex="23CE"/>
  <outline>
    <contour>
      <point x="931" y="502" type="curve"/>
      <point x="931" y="833" type="line"/>
      <point x="638" y="833" type="line"/>
      <point x="638" y="499" type="line"/>
      <point x="638" y="420"/>
      <point x="612" y="392"/>
      <point x="530" y="392" type="curve"/>
      <point x="445" y="392"/>
      <point x="416" y="392"/>
      <point x="416" y="392" type="curve"/>
      <point x="416" y="392"/>
      <point x="416" y="423"/>
      <point x="416" y="592" type="curve"/>
      <point x="25" y="248" type="line"/>
      <point x="416" y="-93" type="line"/>
      <point x="416" y="74"/>
      <point x="416" y="105"/>
      <point x="416" y="105" type="curve"/>
      <point x="416" y="105"/>
      <point x="445" y="105"/>
      <point x="530" y="105" type="curve"/>
      <point x="576" y="105"/>
      <point x="635" y="106"/>
      <point x="691" y="120" type="curve"/>
      <point x="748" y="134"/>
      <point x="794" y="158"/>
      <point x="831" y="194" type="curve"/>
      <point x="871" y="232"/>
      <point x="899" y="283"/>
      <point x="915" y="346" type="curve"/>
      <point x="929" y="404"/>
      <point x="931" y="463"/>
    </contour>
    <contour>
      <point x="678" y="793" type="curve"/>
      <point x="891" y="793" type="line"/>
      <point x="891" y="793"/>
      <point x="891" y="758"/>
      <point x="891" y="502" type="curve"/>
      <point x="891" y="411"/>
      <point x="881" y="298"/>
      <point x="804" y="223" type="curve"/>
      <point x="736" y="158"/>
      <point x="646" y="145"/>
      <point x="530" y="145" type="curve"/>
      <point x="376" y="145" type="line"/>
      <point x="376" y="43"/>
      <point x="376" y="-6"/>
      <point x="376" y="-6" type="curve"/>
      <point x="325" y="38"/>
      <point x="114" y="224"/>
      <point x="85" y="248" type="curve"/>
      <point x="113" y="272"/>
      <point x="325" y="460"/>
      <point x="376" y="504" type="curve"/>
      <point x="376" y="504"/>
      <point x="376" y="455"/>
      <point x="376" y="352" type="curve"/>
      <point x="530" y="352" type="line"/>
      <point x="583" y="352"/>
      <point x="620" y="363"/>
      <point x="643" y="387" type="curve"/>
      <point x="667" y="411"/>
      <point x="678" y="447"/>
      <point x="678" y="499" type="curve"/>
      <point x="678" y="758"/>
      <point x="678" y="793"/>
    </contour>
  </outline>
</glyph>
<glyph name="earthground" format="2">
  <advance width="1000" height="1000"/>
  <unicode hex="23DA"/>
  <outline>
    <contour>
      <point x="286" y="181" type="line"/>
      <point x="286" y="124" type="line"/>
      <point x="714" y="124" type="line"/>
      <point x="714" y="181" type="line"/>
    </contour>
    <contour>
      <point x="386" y="53" type="line"/>
      <point x="386" y="-4" type="line"/>
      <point x="614" y="-4" type="line"/>
      <point x="614" y="53" type="line"/>
    </contour>
    <contour>
      <point x="176" y="309" type="line"/>
      <point x="176" y="251" type="line"/>
      <point x="824" y="251" type="line"/>
      <point x="824" y="309" type="line"/>
      <point x="536" y="309" type="line"/>
      <point x="536" y="795" type="line"/>
      <point x="468" y="795" type="line"/>
      <point x="468" y="309" type="line"/>
    </contour>
  </outline>
</glyph>
<glyph name="sixcircled" format="2">
  <advance width="1000" height="1000"/>
  <unicode hex="2465"/>
  <unicode hex="2785"/>
  <outline>
    <contour>
      <point x="500" y="-86" type="curve"/>
      <point x="755" y="-86"/>
      <point x="966" y="121"/>
      <point x="966" y="380" type="curve"/>
      <point x="966" y="637"/>
      <point x="757" y="846"/>
      <point x="500" y="846" type="curve"/>
      <point x="243" y="846"/>
      <point x="34" y="637"/>
      <point x="34" y="380" type="curve"/>
      <point x="34" y="123"/>
      <point x="243" y="-86"/>
    </contour>
    <contour>
      <point x="500" y="-54" type="curve"/>
      <point x="260" y="-54"/>
      <point x="66" y="140"/>
      <point x="66" y="380" type="curve"/>
      <point x="66" y="618"/>
      <point x="258" y="814"/>
      <point x="500" y="814" type="curve"/>
      <point x="740" y="814"/>
      <point x="934" y="620"/>
      <point x="934" y="380" type="curve"/>
      <point x="934" y="140"/>
      <point x="740" y="-54"/>
    </contour>
    <contour>
      <point x="501" y="115" type="curve"/>
      <point x="597" y="115"/>
      <point x="677" y="181"/>
      <point x="677" y="284" type="curve"/>
      <point x="677" y="392"/>
      <point x="611" y="446"/>
      <point x="513" y="446" type="curve"/>
      <point x="463" y="446"/>
      <point x="410" y="421"/>
      <point x="374" y="381" type="curve"/>
      <point x="378" y="537"/>
      <point x="444" y="589"/>
      <point x="523" y="589" type="curve"/>
      <point x="560" y="589"/>
      <point x="597" y="573"/>
      <point x="620" y="549" type="curve"/>
      <point x="665" y="600" type="line"/>
      <point x="632" y="632"/>
      <point x="586" y="657"/>
      <point x="521" y="657" type="curve"/>
      <point x="403" y="657"/>
      <point x="296" y="573"/>
      <point x="296" y="368" type="curve"/>
      <point x="296" y="196"/>
      <point x="385" y="115"/>
    </contour>
    <contour>
      <point x="376" y="321" type="curve"/>
      <point x="415" y="368"/>
      <point x="459" y="385"/>
      <point x="494" y="385" type="curve"/>
      <point x="563" y="385"/>
      <point x="599" y="345"/>
      <point x="599" y="282" type="curve"/>
      <point x="599" y="221"/>
      <point x="555" y="179"/>
      <point x="502" y="179" type="curve"/>
      <point x="431" y="179"/>
      <point x="387" y="224"/>
    </contour>
  </outline>
</glyph>
<glyph name="twelvecircled" format="2">
  <advance width="1000" height="1000"/>
  <unicode hex="246B"/>
  <outline>
    <contour>
      <point x="500" y="-86" type="curve"/>
      <point x="755" y="-86"/>
      <point x="966" y="121"/>
      <point x="966" y="380" type="curve"/>
      <point x="966" y="637"/>
      <point x="757" y="846"/>
      <point x="500" y="846" type="curve"/>
      <point x="243" y="846"/>
      <point x="34" y="637"/>
      <point x="34" y="380" type="curve"/>
      <point x="34" y="123"/>
      <point x="243" y="-86"/>
    </contour>
    <contour>
      <point x="500" y="-54" type="curve"/>
      <point x="260" y="-54"/>
      <point x="66" y="140"/>
      <point x="66" y="380" type="curve"/>
      <point x="66" y="618"/>
      <point x="258" y="814"/>
      <point x="500" y="814" type="curve"/>
      <point x="740" y="814"/>
      <point x="934" y="620"/>
      <point x="934" y="380" type="curve"/>
      <point x="934" y="140"/>
      <point x="740" y="-54"/>
    </contour>
    <contour>
      <point x="292" y="127" type="line"/>
      <point x="369" y="127" type="line"/>
      <point x="369" y="645" type="line"/>
      <point x="309" y="645" type="line"/>
      <point x="282" y="627"/>
      <point x="251" y="613"/>
      <point x="207" y="604" type="curve"/>
      <point x="207" y="551" type="line"/>
      <point x="292" y="551" type="line"/>
    </contour>
    <contour>
      <point x="474" y="127" type="line"/>
      <point x="768" y="127" type="line"/>
      <point x="768" y="197" type="line"/>
      <point x="660" y="197" type="line"/>
      <point x="634" y="197"/>
      <point x="604" y="195"/>
      <point x="580" y="193" type="curve"/>
      <point x="674" y="309"/>
      <point x="750" y="406"/>
      <point x="750" y="502" type="curve"/>
      <point x="750" y="595"/>
      <point x="696" y="657"/>
      <point x="610" y="657" type="curve"/>
      <point x="555" y="657"/>
      <point x="509" y="630"/>
      <point x="469" y="580" type="curve"/>
      <point x="513" y="537" type="line"/>
      <point x="536" y="567"/>
      <point x="565" y="591"/>
      <point x="600" y="591" type="curve"/>
      <point x="651" y="591"/>
      <point x="676" y="554"/>
      <point x="676" y="496" type="curve"/>
      <point x="676" y="414"/>
      <point x="600" y="322"/>
      <point x="474" y="175" type="curve"/>
    </contour>
  </outline>
</glyph>
<glyph name="fourparenthesized" format="2">
  <advance width="1000" height="1000"/>
  <unicode hex="2477"/>
  <outline>
    <contour>
      <point x="157" y="-75" type="curve"/>
      <point x="202" y="-61" type="line"/>
      <point x="119" y="68"/>
      <point x="92" y="218"/>
      <point x="91" y="380" type="curve"/>
      <point x="91" y="541"/>
      <point x="119" y="692"/>
      <point x="202" y="821" type="curve"/>
      <point x="157" y="835" type="line"/>
      <point x="68" y="701"/>
      <point x="32" y="555"/>
      <point x="32" y="380" type="curve"/>
      <point x="32" y="204"/>
      <point x="68" y="59"/>
    </contour>
    <contour>
      <point x="843" y="-75" type="line"/>
      <point x="932" y="59"/>
      <point x="968" y="204"/>
      <point x="968" y="380" type="curve"/>
      <point x="968" y="555"/>
      <point x="932" y="701"/>
      <point x="843" y="835" type="curve"/>
      <point x="798" y="821" type="line"/>
      <point x="881" y="692"/>
      <point x="909" y="541"/>
      <point x="909" y="380" type="curve"/>
      <point x="908" y="218"/>
      <point x="881" y="68"/>
      <point x="798" y="-61" type="curve"/>
    </contour>
    <contour>
      <point x="555" y="12" type="line"/>
      <point x="642" y="12" type="line"/>
      <point x="642" y="210" type="line"/>
      <point x="738" y="210" type="line"/>
      <point x="738" y="283" type="line"/>
      <point x="642" y="283" type="line"/>
      <point x="642" y="726" type="line"/>
      <point x="539" y="726" type="line"/>
      <point x="247" y="271" type="line"/>
      <point x="247" y="210" type="line"/>
      <point x="555" y="210" type="line"/>
    </contour>
    <contour>
      <point x="555" y="283" type="line"/>
      <point x="340" y="283" type="line"/>
      <point x="498" y="527" type="line"/>
      <point x="519" y="563"/>
      <point x="534" y="595"/>
      <point x="555" y="632" type="curve"/>
      <point x="559" y="632" type="line"/>
      <point x="557" y="586"/>
      <point x="555" y="543"/>
      <point x="555" y="504" type="curve"/>
    </contour>
  </outline>
</glyph>
<glyph name="tenparenthesized" format="2">
  <advance width="1000" height="1000"/>
  <unicode hex="247D"/>
  <outline>
    <contour>
      <point x="157" y="-75" type="curve"/>
      <point x="202" y="-61" type="line"/>
      <point x="119" y="68"/>
      <point x="92" y="218"/>
      <point x="91" y="380" type="curve"/>
      <point x="91" y="541"/>
      <point x="119" y="692"/>
      <point x="202" y="821" type="curve"/>
      <point x="157" y="835" type="line"/>
      <point x="68" y="701"/>
      <point x="32" y="555"/>
      <point x="32" y="380" type="curve"/>
      <point x="32" y="204"/>
      <point x="68" y="59"/>
    </contour>
    <contour>
      <point x="293" y="12" type="line"/>
      <point x="365" y="12" type="line"/>
      <point x="365" y="726" type="line"/>
      <point x="319" y="726" type="line"/>
      <point x="283" y="703"/>
      <point x="244" y="684"/>
      <point x="188" y="674" type="curve"/>
      <point x="188" y="623" type="line"/>
      <point x="293" y="623" type="line"/>
    </contour>
    <contour>
      <point x="642" y="-1" type="curve"/>
      <point x="746" y="-1"/>
      <point x="820" y="109"/>
      <point x="820" y="373" type="curve"/>
      <point x="820" y="636"/>
      <point x="746" y="739"/>
      <point x="642" y="739" type="curve"/>
      <point x="538" y="739"/>
      <point x="463" y="636"/>
      <point x="463" y="373" type="curve"/>
      <point x="463" y="109"/>
      <point x="538" y="-1"/>
    </contour>
    <contour>
      <point x="642" y="69" type="curve"/>
      <point x="580" y="69"/>
      <point x="537" y="151"/>
      <point x="537" y="373" type="curve"/>
      <point x="537" y="595"/>
      <point x="580" y="670"/>
      <point x="642" y="670" type="curve"/>
      <point x="705" y="670"/>
      <point x="747" y="595"/>
      <point x="747" y="373" type="curve"/>
      <point x="747" y="151"/>
      <point x="705" y="69"/>
    </contour>
    <contour>
      <point x="843" y="-75" type="line"/>
      <point x="932" y="59"/>
      <point x="968" y="204"/>
      <point x="968" y="380" type="curve"/>
      <point x="968" y="555"/>
      <point x="932" y="701"/>
      <point x="843" y="835" type="curve"/>
      <point x="798" y="821" type="line"/>
      <point x="881" y="692"/>
      <point x="909" y="541"/>
      <point x="909" y="380" type="curve"/>
      <point x="908" y="218"/>
      <point x="881" y="68"/>
      <point x="798" y="-61" type="curve"/>
    </contour>
  </outline>
</glyph>
<glyph name="twelveparenthesized" format="2">
  <advance width="1000" height="1000"/>
  <unicode hex="247F"/>
  <outline>
    <contour>
      <point x="157" y="-75" type="curve"/>
      <point x="202" y="-61" type="line"/>
      <point x="119" y="68"/>
      <point x="92" y="218"/>
      <point x="91" y="380" type="curve"/>
      <point x="91" y="541"/>
      <point x="119" y="692"/>
      <point x="202" y="821" type="curve"/>
      <point x="157" y="835" type="line"/>
      <point x="68" y="701"/>
      <point x="32" y="555"/>
      <point x="32" y="380" type="curve"/>
      <point x="32" y="204"/>
      <point x="68" y="59"/>
    </contour>
    <contour>
      <point x="293" y="12" type="line"/>
      <point x="365" y="12" type="line"/>
      <point x="365" y="726" type="line"/>
      <point x="319" y="726" type="line"/>
      <point x="283" y="703"/>
      <point x="244" y="684"/>
      <point x="188" y="674" type="curve"/>
      <point x="188" y="623" type="line"/>
      <point x="293" y="623" type="line"/>
    </contour>
    <contour>
      <point x="465" y="12" type="line"/>
      <point x="812" y="12" type="line"/>
      <point x="812" y="82" type="line"/>
      <point x="671" y="82" type="line"/>
      <point x="638" y="82"/>
      <point x="599" y="79"/>
      <point x="563" y="76" type="curve"/>
      <point x="702" y="258"/>
      <point x="789" y="408"/>
      <point x="789" y="541" type="curve"/>
      <point x="789" y="661"/>
      <point x="728" y="739"/>
      <point x="624" y="739" type="curve"/>
      <point x="552" y="739"/>
      <point x="506" y="696"/>
      <point x="458" y="639" type="curve"/>
      <point x="504" y="596" type="line"/>
      <point x="534" y="639"/>
      <point x="575" y="672"/>
      <point x="619" y="672" type="curve"/>
      <point x="688" y="672"/>
      <point x="719" y="620"/>
      <point x="719" y="539" type="curve"/>
      <point x="719" y="426"/>
      <point x="637" y="280"/>
      <point x="465" y="65" type="curve"/>
    </contour>
    <contour>
      <point x="843" y="-75" type="line"/>
      <point x="932" y="59"/>
      <point x="968" y="204"/>
      <point x="968" y="380" type="curve"/>
      <point x="968" y="555"/>
      <point x="932" y="701"/>
      <point x="843" y="835" type="curve"/>
      <point x="798" y="821" type="line"/>
      <point x="881" y="692"/>
      <point x="909" y="541"/>
      <point x="909" y="380" type="curve"/>
      <point x="908" y="218"/>
      <point x="881" y="68"/>
      <point x="798" y="-61" type="curve"/>
    </contour>
  </outline>
</glyph>
<glyph name="twofullstop" format="2">
  <advance width="1000" height="1000"/>
  <unicode hex="2489"/>
  <outline>
    <contour>
      <point x="134" y="0" type="line"/>
      <point x="587" y="0" type="line"/>
      <point x="587" y="78" type="line"/>
      <point x="387" y="78" type="line"/>
      <point x="349" y="78"/>
      <point x="306" y="75"/>
      <point x="267" y="72" type="curve"/>
      <point x="430" y="244"/>
      <point x="554" y="383"/>
      <point x="554" y="517" type="curve"/>
      <point x="554" y="644"/>
      <point x="476" y="727"/>
      <point x="343" y="727" type="curve"/>
      <point x="250" y="727"/>
      <point x="183" y="686"/>
      <point x="126" y="619" type="curve"/>
      <point x="180" y="567" type="line"/>
      <point x="218" y="616"/>
      <point x="273" y="652"/>
      <point x="332" y="652" type="curve"/>
      <point x="423" y="652"/>
      <point x="464" y="594"/>
      <point x="464" y="513" type="curve"/>
      <point x="464" y="397"/>
      <point x="343" y="264"/>
      <point x="134" y="53" type="curve"/>
    </contour>
    <contour>
      <point x="778" y="-13" type="curve"/>
      <point x="816" y="-13"/>
      <point x="847" y="16"/>
      <point x="847" y="57" type="curve"/>
      <point x="847" y="100"/>
      <point x="816" y="129"/>
      <point x="778" y="129" type="curve"/>
      <point x="741" y="129"/>
      <point x="712" y="100"/>
      <point x="712" y="57" type="curve"/>
      <point x="712" y="16"/>
      <point x="741" y="-13"/>
    </contour>
  </outline>
</glyph>
<glyph name="fivefullstop" format="2">
  <advance width="1000" height="1000"/>
  <unicode hex="248C"/>
  <outline>
    <contour>
      <point x="353" y="-14" type="curve"/>
      <point x="478" y="-14"/>
      <point x="596" y="74"/>
      <point x="596" y="229" type="curve"/>
      <point x="596" y="383"/>
      <point x="495" y="452"/>
      <point x="376" y="452" type="curve"/>
      <point x="331" y="452"/>
      <point x="300" y="442"/>
      <point x="267" y="422" type="curve"/>
      <point x="286" y="635" type="line"/>
      <point x="562" y="635" type="line"/>
      <point x="562" y="714" type="line"/>
      <point x="206" y="714" type="line"/>
      <point x="183" y="369" type="line"/>
      <point x="232" y="340" type="line"/>
      <point x="273" y="369"/>
      <point x="303" y="383"/>
      <point x="352" y="383" type="curve"/>
      <point x="441" y="383"/>
      <point x="503" y="323"/>
      <point x="503" y="226" type="curve"/>
      <point x="503" y="126"/>
      <point x="432" y="63"/>
      <point x="344" y="63" type="curve"/>
      <point x="264" y="63"/>
      <point x="211" y="99"/>
      <point x="171" y="143" type="curve"/>
      <point x="125" y="84" type="line"/>
      <point x="172" y="33"/>
      <point x="242" y="-14"/>
    </contour>
    <contour>
      <point x="776" y="-13" type="curve"/>
      <point x="814" y="-13"/>
      <point x="845" y="16"/>
      <point x="845" y="57" type="curve"/>
      <point x="845" y="100"/>
      <point x="814" y="129"/>
      <point x="776" y="129" type="curve"/>
      <point x="740" y="129"/>
      <point x="710" y="100"/>
      <point x="710" y="57" type="curve"/>
      <point x="710" y="16"/>
      <point x="740" y="-13"/>
    </contour>
  </outline>
</glyph>
<glyph name="fourteenfullstop" format="2">
  <advance width="1000" height="1000"/>
  <unicode hex="2495"/>
  <outline>
    <contour>
      <point x="165" y="0" type="line"/>
      <point x="249" y="0" type="line"/>
      <point x="249" y="714" type="line"/>
      <point x="187" y="714" type="line"/>
      <point x="150" y="690"/>
      <point x="106" y="673"/>
      <point x="45" y="662" type="curve"/>
      <point x="45" y="603" type="line"/>
      <point x="165" y="603" type="line"/>
    </contour>
    <contour>
      <point x="911" y="-13" type="curve"/>
      <point x="948" y="-13"/>
      <point x="979" y="16"/>
      <point x="979" y="57" type="curve"/>
      <point x="979" y="100"/>
      <point x="948" y="129"/>
      <point x="911" y="129" type="curve"/>
      <point x="874" y="129"/>
      <point x="844" y="100"/>
      <point x="844" y="57" type="curve"/>
      <point x="844" y="16"/>
      <point x="874" y="-13"/>
    </contour>
    <contour>
      <point x="621" y="0" type="line"/>
      <point x="700" y="0" type="line"/>
      <point x="700" y="198" type="line"/>
      <point x="780" y="198" type="line"/>
      <point x="780" y="271" type="line"/>
      <point x="700" y="271" type="line"/>
      <point x="700" y="714" type="line"/>
      <point x="603" y="714" type="line"/>
      <point x="355" y="259" type="line"/>
      <point x="355" y="198" type="line"/>
      <point x="621" y="198" type="line"/>
    </contour>
    <contour>
      <point x="621" y="271" type="line"/>
      <point x="442" y="271" type="line"/>
      <point x="574" y="515" type="line"/>
      <point x="590" y="550"/>
      <point x="607" y="584"/>
      <point x="621" y="619" type="curve"/>
      <point x="625" y="619" type="line"/>
      <point x="623" y="573"/>
      <point x="621" y="531"/>
      <point x="621" y="492" type="curve"/>
    </contour>
  </outline>
</glyph>
<glyph name="fifteenfullstop" format="2">
  <advance width="1000" height="1000"/>
  <unicode hex="2496"/>
  <outline>
    <contour>
      <point x="165" y="0" type="line"/>
      <point x="249" y="0" type="line"/>
      <point x="249" y="714" type="line"/>
      <point x="187" y="714" type="line"/>
      <point x="150" y="690"/>
      <point x="106" y="673"/>
      <point x="45" y="662" type="curve"/>
      <point x="45" y="603" type="line"/>
      <point x="165" y="603" type="line"/>
    </contour>
    <contour>
      <point x="552" y="-14" type="curve"/>
      <point x="663" y="-14"/>
      <point x="766" y="74"/>
      <point x="766" y="229" type="curve"/>
      <point x="766" y="383"/>
      <point x="678" y="452"/>
      <point x="575" y="452" type="curve"/>
      <point x="535" y="452"/>
      <point x="508" y="442"/>
      <point x="479" y="422" type="curve"/>
      <point x="496" y="635" type="line"/>
      <point x="745" y="635" type="line"/>
      <point x="745" y="714" type="line"/>
      <point x="424" y="714" type="line"/>
      <point x="403" y="369" type="line"/>
      <point x="450" y="340" type="line"/>
      <point x="485" y="369"/>
      <point x="511" y="383"/>
      <point x="554" y="383" type="curve"/>
      <point x="629" y="383"/>
      <point x="681" y="323"/>
      <point x="681" y="226" type="curve"/>
      <point x="681" y="126"/>
      <point x="620" y="63"/>
      <point x="542" y="63" type="curve"/>
      <point x="476" y="63"/>
      <point x="433" y="97"/>
      <point x="400" y="135" type="curve"/>
      <point x="354" y="76" type="line"/>
      <point x="396" y="30"/>
      <point x="456" y="-14"/>
    </contour>
    <contour>
      <point x="911" y="-13" type="curve"/>
      <point x="948" y="-13"/>
      <point x="979" y="16"/>
      <point x="979" y="57" type="curve"/>
      <point x="979" y="100"/>
      <point x="948" y="129"/>
      <point x="911" y="129" type="curve"/>
      <point x="874" y="129"/>
      <point x="844" y="100"/>
      <point x="844" y="57" type="curve"/>
      <point x="844" y="16"/>
      <point x="874" y="-13"/>
    </contour>
  </outline>
</glyph>
<glyph name="twentyfullstop" format="2">
  <advance width="1000" height="1000"/>
  <unicode hex="249B"/>
  <outline>
    <contour>
      <point x="27" y="0" type="line"/>
      <point x="407" y="0" type="line"/>
      <point x="407" y="78" type="line"/>
      <point x="251" y="78" type="line"/>
      <point x="218" y="78"/>
      <point x="180" y="75"/>
      <point x="145" y="72" type="curve"/>
      <point x="279" y="249"/>
      <point x="378" y="383"/>
      <point x="378" y="517" type="curve"/>
      <point x="378" y="644"/>
      <point x="313" y="727"/>
      <point x="203" y="727" type="curve"/>
      <point x="124" y="727"/>
      <point x="70" y="685"/>
      <point x="21" y="623" type="curve"/>
      <point x="74" y="571" type="line"/>
      <point x="106" y="616"/>
      <point x="147" y="652"/>
      <point x="193" y="652" type="curve"/>
      <point x="264" y="652"/>
      <point x="296" y="598"/>
      <point x="296" y="516" type="curve"/>
      <point x="296" y="397"/>
      <point x="198" y="269"/>
      <point x="27" y="53" type="curve"/>
    </contour>
    <contour>
      <point x="630" y="-13" type="curve"/>
      <point x="739" y="-13"/>
      <point x="817" y="104"/>
      <point x="817" y="361" type="curve"/>
      <point x="817" y="616"/>
      <point x="739" y="727"/>
      <point x="630" y="727" type="curve"/>
      <point x="522" y="727"/>
      <point x="444" y="616"/>
      <point x="444" y="361" type="curve"/>
      <point x="444" y="104"/>
      <point x="522" y="-13"/>
    </contour>
    <contour>
      <point x="630" y="64" type="curve"/>
      <point x="571" y="64"/>
      <point x="529" y="145"/>
      <point x="529" y="361" type="curve"/>
      <point x="529" y="576"/>
      <point x="571" y="650"/>
      <point x="630" y="650" type="curve"/>
      <point x="691" y="650"/>
      <point x="732" y="576"/>
      <point x="732" y="361" type="curve"/>
      <point x="732" y="145"/>
      <point x="691" y="64"/>
    </contour>
    <contour>
      <point x="905" y="-13" type="curve"/>
      <point x="942" y="-13"/>
      <point x="973" y="16"/>
      <point x="973" y="57" type="curve"/>
      <point x="973" y="100"/>
      <point x="942" y="129"/>
      <point x="905" y="129" type="curve"/>
      <point x="867" y="129"/>
      <point x="838" y="100"/>
      <point x="838" y="57" type="curve"/>
      <point x="838" y="16"/>
      <point x="867" y="-13"/>
    </contour>
  </outline>
</glyph>
<glyph name="eparenthesized" format="2">
  <advance width="1000" height="1000"/>
  <unicode hex="24A0"/>
  <outline>
    <contour>
      <point x="157" y="-75" type="curve"/>
      <point x="202" y="-61" type="line"/>
      <point x="119" y="68"/>
      <point x="92" y="218"/>
      <point x="91" y="380" type="curve"/>
      <point x="91" y="541"/>
      <point x="119" y="692"/>
      <point x="202" y="821" type="curve"/>
      <point x="157" y="835" type="line"/>
      <point x="68" y="701"/>
      <point x="32" y="555"/>
      <point x="32" y="380" type="curve"/>
      <point x="32" y="204"/>
      <point x="68" y="59"/>
    </contour>
    <contour>
      <point x="535" y="92" type="curve"/>
      <point x="606" y="92"/>
      <point x="662" y="117"/>
      <point x="708" y="149" type="curve"/>
      <point x="674" y="210" type="line"/>
      <point x="636" y="184"/>
      <point x="596" y="167"/>
      <point x="546" y="167" type="curve"/>
      <point x="448" y="167"/>
      <point x="380" y="240"/>
      <point x="374" y="356" type="curve"/>
      <point x="726" y="356" type="line"/>
      <point x="728" y="369"/>
      <point x="729" y="388"/>
      <point x="729" y="407" type="curve"/>
      <point x="729" y="562"/>
      <point x="653" y="661"/>
      <point x="519" y="661" type="curve"/>
      <point x="396" y="661"/>
      <point x="281" y="553"/>
      <point x="281" y="377" type="curve"/>
      <point x="281" y="198"/>
      <point x="394" y="92"/>
    </contour>
    <contour>
      <point x="372" y="418" type="line"/>
      <point x="383" y="525"/>
      <point x="448" y="587"/>
      <point x="520" y="587" type="curve"/>
      <point x="601" y="587"/>
      <point x="647" y="528"/>
      <point x="647" y="418" type="curve"/>
    </contour>
    <contour>
      <point x="843" y="-75" type="line"/>
      <point x="932" y="59"/>
      <point x="968" y="204"/>
      <point x="968" y="380" type="curve"/>
      <point x="968" y="555"/>
      <point x="932" y="701"/>
      <point x="843" y="835" type="curve"/>
      <point x="798" y="821" type="line"/>
      <point x="881" y="692"/>
      <point x="909" y="541"/>
      <point x="909" y="380" type="curve"/>
      <point x="908" y="218"/>
      <point x="881" y="68"/>
      <point x="798" y="-61" type="curve"/>
    </contour>
  </outline>
</glyph>
<glyph name="hparenthesized" format="2">
  <advance width="1000" height="1000"/>
  <unicode hex="24A3"/>
  <outline>
    <contour>
      <point x="157" y="-75" type="curve"/>
      <point x="202" y="-61" type="line"/>
      <point x="119" y="68"/>
      <point x="92" y="218"/>
      <point x="91" y="380" type="curve"/>
      <point x="91" y="541"/>
      <point x="119" y="692"/>
      <point x="202" y="821" type="curve"/>
      <point x="157" y="835" type="line"/>
      <point x="68" y="701"/>
      <point x="32" y="555"/>
      <point x="32" y="380" type="curve"/>
      <point x="32" y="204"/>
      <point x="68" y="59"/>
    </contour>
    <contour>
      <point x="293" y="14" type="line"/>
      <point x="387" y="14" type="line"/>
      <point x="387" y="406" type="line"/>
      <point x="440" y="459"/>
      <point x="477" y="489"/>
      <point x="531" y="489" type="curve"/>
      <point x="600" y="489"/>
      <point x="629" y="445"/>
      <point x="629" y="345" type="curve"/>
      <point x="629" y="14" type="line"/>
      <point x="722" y="14" type="line"/>
      <point x="722" y="357" type="line"/>
      <point x="722" y="495"/>
      <point x="672" y="569"/>
      <point x="561" y="569" type="curve"/>
      <point x="487" y="569"/>
      <point x="434" y="529"/>
      <point x="383" y="480" type="curve"/>
      <point x="387" y="592" type="line"/>
      <point x="387" y="808" type="line"/>
      <point x="293" y="808" type="line"/>
    </contour>
    <contour>
      <point x="843" y="-75" type="line"/>
      <point x="932" y="59"/>
      <point x="968" y="204"/>
      <point x="968" y="380" type="curve"/>
      <point x="968" y="555"/>
      <point x="932" y="701"/>
      <point x="843" y="835" type="curve"/>
      <point x="798" y="821" type="line"/>
      <point x="881" y="692"/>
      <point x="909" y="541"/>
      <point x="909" y="380" type="curve"/>
      <point x="908" y="218"/>
      <point x="881" y="68"/>
      <point x="798" y="-61" type="curve"/>
    </contour>
  </outline>
</glyph>
<glyph name="nparenthesized" format="2">
  <advance width="1000" height="1000"/>
  <unicode hex="24A9"/>
  <outline>
    <contour>
      <point x="157" y="-75" type="curve"/>
      <point x="202" y="-61" type="line"/>
      <point x="119" y="68"/>
      <point x="92" y="218"/>
      <point x="91" y="380" type="curve"/>
      <point x="91" y="541"/>
      <point x="119" y="692"/>
      <point x="202" y="821" type="curve"/>
      <point x="157" y="835" type="line"/>
      <point x="68" y="701"/>
      <point x="32" y="555"/>
      <point x="32" y="380" type="curve"/>
      <point x="32" y="204"/>
      <point x="68" y="59"/>
    </contour>
    <contour>
      <point x="289" y="106" type="line"/>
      <point x="384" y="106" type="line"/>
      <point x="384" y="500" type="line"/>
      <point x="436" y="553"/>
      <point x="473" y="581"/>
      <point x="527" y="581" type="curve"/>
      <point x="596" y="581"/>
      <point x="625" y="538"/>
      <point x="625" y="439" type="curve"/>
      <point x="625" y="106" type="line"/>
      <point x="719" y="106" type="line"/>
      <point x="719" y="451" type="line"/>
      <point x="719" y="588"/>
      <point x="669" y="661"/>
      <point x="557" y="661" type="curve"/>
      <point x="483" y="661"/>
      <point x="428" y="623"/>
      <point x="378" y="572" type="curve"/>
      <point x="375" y="572" type="line"/>
      <point x="366" y="648" type="line"/>
      <point x="289" y="648" type="line"/>
    </contour>
    <contour>
      <point x="843" y="-75" type="line"/>
      <point x="932" y="59"/>
      <point x="968" y="204"/>
      <point x="968" y="380" type="curve"/>
      <point x="968" y="555"/>
      <point x="932" y="701"/>
      <point x="843" y="835" type="curve"/>
      <point x="798" y="821" type="line"/>
      <point x="881" y="692"/>
      <point x="909" y="541"/>
      <point x="909" y="380" type="curve"/>
      <point x="908" y="218"/>
      <point x="881" y="68"/>
      <point x="798" y="-61" type="curve"/>
    </contour>
  </outline>
</glyph>
<glyph name="Acircled" format="2">
  <advance width="1000" height="1000"/>
  <unicode hex="24B6"/>
  <outline>
    <contour>
      <point x="500" y="-86" type="curve"/>
      <point x="755" y="-86"/>
      <point x="966" y="121"/>
      <point x="966" y="380" type="curve"/>
      <point x="966" y="637"/>
      <point x="757" y="846"/>
      <point x="500" y="846" type="curve"/>
      <point x="243" y="846"/>
      <point x="34" y="637"/>
      <point x="34" y="380" type="curve"/>
      <point x="34" y="123"/>
      <point x="243" y="-86"/>
    </contour>
    <contour>
      <point x="500" y="-54" type="curve"/>
      <point x="260" y="-54"/>
      <point x="66" y="140"/>
      <point x="66" y="380" type="curve"/>
      <point x="66" y="618"/>
      <point x="258" y="814"/>
      <point x="500" y="814" type="curve"/>
      <point x="740" y="814"/>
      <point x="934" y="620"/>
      <point x="934" y="380" type="curve"/>
      <point x="934" y="140"/>
      <point x="740" y="-54"/>
    </contour>
    <contour>
      <point x="267" y="127" type="line"/>
      <point x="351" y="127" type="line"/>
      <point x="400" y="272" type="line"/>
      <point x="597" y="272" type="line"/>
      <point x="644" y="127" type="line"/>
      <point x="732" y="127" type="line"/>
      <point x="547" y="645" type="line"/>
      <point x="452" y="645" type="line"/>
    </contour>
    <contour>
      <point x="421" y="336" type="line"/>
      <point x="445" y="408" type="line"/>
      <point x="463" y="466"/>
      <point x="478" y="520"/>
      <point x="496" y="577" type="curve"/>
      <point x="500" y="577" type="line"/>
      <point x="518" y="521"/>
      <point x="534" y="466"/>
      <point x="552" y="408" type="curve"/>
      <point x="576" y="336" type="line"/>
    </contour>
  </outline>
</glyph>
<glyph name="Ucircled" format="2">
  <advance width="1000" height="1000"/>
  <unicode hex="24CA"/>
  <outline>
    <contour>
      <point x="500" y="-86" type="curve"/>
      <point x="755" y="-86"/>
      <point x="966" y="121"/>
      <point x="966" y="380" type="curve"/>
      <point x="966" y="637"/>
      <point x="757" y="846"/>
      <point x="500" y="846" type="curve"/>
      <point x="243" y="846"/>
      <point x="34" y="637"/>
      <point x="34" y="380" type="curve"/>
      <point x="34" y="123"/>
      <point x="243" y="-86"/>
    </contour>
    <contour>
      <point x="500" y="-54" type="curve"/>
      <point x="260" y="-54"/>
      <point x="66" y="140"/>
      <point x="66" y="380" type="curve"/>
      <point x="66" y="618"/>
      <point x="258" y="814"/>
      <point x="500" y="814" type="curve"/>
      <point x="740" y="814"/>
      <point x="934" y="620"/>
      <point x="934" y="380" type="curve"/>
      <point x="934" y="140"/>
      <point x="740" y="-54"/>
    </contour>
    <contour>
      <point x="501" y="115" type="curve"/>
      <point x="619" y="115"/>
      <point x="704" y="173"/>
      <point x="704" y="343" type="curve"/>
      <point x="704" y="645" type="line"/>
      <point x="625" y="645" type="line"/>
      <point x="625" y="342" type="line"/>
      <point x="625" y="223"/>
      <point x="573" y="186"/>
      <point x="501" y="186" type="curve"/>
      <point x="431" y="186"/>
      <point x="379" y="223"/>
      <point x="379" y="342" type="curve"/>
      <point x="379" y="645" type="line"/>
      <point x="294" y="645" type="line"/>
      <point x="294" y="343" type="line"/>
      <point x="294" y="173"/>
      <point x="382" y="115"/>
    </contour>
  </outline>
</glyph>
<glyph name="acircled" format="2">
  <advance width="1000" height="1000"/>
  <unicode hex="24D0"/>
  <outline>
    <contour>
      <point x="500" y="-86" type="curve"/>
      <point x="755" y="-86"/>
      <point x="966" y="121"/>
      <point x="966" y="380" type="curve"/>
      <point x="966" y="637"/>
      <point x="757" y="846"/>
      <point x="500" y="846" type="curve"/>
      <point x="243" y="846"/>
      <point x="34" y="637"/>
      <point x="34" y="380" type="curve"/>
      <point x="34" y="123"/>
      <point x="243" y="-86"/>
    </contour>
    <contour>
      <point x="500" y="-54" type="curve"/>
      <point x="260" y="-54"/>
      <point x="66" y="140"/>
      <point x="66" y="380" type="curve"/>
      <point x="66" y="618"/>
      <point x="258" y="814"/>
      <point x="500" y="814" type="curve"/>
      <point x="740" y="814"/>
      <point x="934" y="620"/>
      <point x="934" y="380" type="curve"/>
      <point x="934" y="140"/>
      <point x="740" y="-54"/>
    </contour>
    <contour>
      <point x="460" y="185" type="curve"/>
      <point x="506" y="185"/>
      <point x="544" y="209"/>
      <point x="573" y="236" type="curve"/>
      <point x="578" y="236" type="line"/>
      <point x="586" y="194" type="line"/>
      <point x="643" y="194" type="line"/>
      <point x="643" y="413" type="line"/>
      <point x="643" y="508"/>
      <point x="603" y="563"/>
      <point x="515" y="563" type="curve"/>
      <point x="457" y="563"/>
      <point x="402" y="538"/>
      <point x="366" y="516" type="curve"/>
      <point x="391" y="467" type="line"/>
      <point x="421" y="485"/>
      <point x="465" y="505"/>
      <point x="504" y="505" type="curve"/>
      <point x="556" y="505"/>
      <point x="570" y="470"/>
      <point x="571" y="424" type="curve"/>
      <point x="418" y="409"/>
      <point x="351" y="369"/>
      <point x="351" y="291" type="curve"/>
      <point x="351" y="228"/>
      <point x="395" y="185"/>
    </contour>
    <contour>
      <point x="482" y="242" type="curve"/>
      <point x="444" y="242"/>
      <point x="420" y="259"/>
      <point x="420" y="297" type="curve"/>
      <point x="420" y="337"/>
      <point x="459" y="368"/>
      <point x="571" y="379" type="curve"/>
      <point x="571" y="286" type="line"/>
      <point x="540" y="256"/>
      <point x="512" y="242"/>
    </contour>
  </outline>
</glyph>
<glyph name="ncircled" format="2">
  <advance width="1000" height="1000"/>
  <unicode hex="24DD"/>
  <outline>
    <contour>
      <point x="500" y="-86" type="curve"/>
      <point x="755" y="-86"/>
      <point x="966" y="121"/>
      <point x="966" y="380" type="curve"/>
      <point x="966" y="637"/>
      <point x="757" y="846"/>
      <point x="500" y="846" type="curve"/>
      <point x="243" y="846"/>
      <point x="34" y="637"/>
      <point x="34" y="380" type="curve"/>
      <point x="34" y="123"/>
      <point x="243" y="-86"/>
    </contour>
    <contour>
      <point x="500" y="-54" type="curve"/>
      <point x="260" y="-54"/>
      <point x="66" y="140"/>
      <point x="66" y="380" type="curve"/>
      <point x="66" y="618"/>
      <point x="258" y="814"/>
      <point x="500" y="814" type="curve"/>
      <point x="740" y="814"/>
      <point x="934" y="620"/>
      <point x="934" y="380" type="curve"/>
      <point x="934" y="140"/>
      <point x="740" y="-54"/>
    </contour>
    <contour>
      <point x="352" y="194" type="line"/>
      <point x="423" y="194" type="line"/>
      <point x="423" y="450" type="line"/>
      <point x="459" y="486"/>
      <point x="487" y="503"/>
      <point x="516" y="503" type="curve"/>
      <point x="571" y="503"/>
      <point x="583" y="467"/>
      <point x="583" y="411" type="curve"/>
      <point x="583" y="194" type="line"/>
      <point x="653" y="194" type="line"/>
      <point x="653" y="421" type="line"/>
      <point x="653" y="505"/>
      <point x="623" y="563"/>
      <point x="540" y="563" type="curve"/>
      <point x="492" y="563"/>
      <point x="451" y="536"/>
      <point x="418" y="503" type="curve"/>
      <point x="416" y="503" type="line"/>
      <point x="409" y="554" type="line"/>
      <point x="352" y="554" type="line"/>
    </contour>
  </outline>
</glyph>
<glyph name="vcircled" format="2">
  <advance width="1000" height="1000"/>
  <unicode hex="24E5"/>
  <outline>
    <contour>
      <point x="500" y="-86" type="curve"/>
      <point x="755" y="-86"/>
      <point x="966" y="121"/>
      <point x="966" y="380" type="curve"/>
      <point x="966" y="637"/>
      <point x="757" y="846"/>
      <point x="500" y="846" type="curve"/>
      <point x="243" y="846"/>
      <point x="34" y="637"/>
      <point x="34" y="380" type="curve"/>
      <point x="34" y="123"/>
      <point x="243" y="-86"/>
    </contour>
    <contour>
      <point x="500" y="-54" type="curve"/>
      <point x="260" y="-54"/>
      <point x="66" y="140"/>
      <point x="66" y="380" type="curve"/>
      <point x="66" y="618"/>
      <point x="258" y="814"/>
      <point x="500" y="814" type="curve"/>
      <point x="740" y="814"/>
      <point x="934" y="620"/>
      <point x="934" y="380" type="curve"/>
      <point x="934" y="140"/>
      <point x="740" y="-54"/>
    </contour>
    <contour>
      <point x="459" y="194" type="line"/>
      <point x="542" y="194" type="line"/>
      <point x="672" y="554" type="line"/>
      <point x="602" y="554" type="line"/>
      <point x="538" y="358" type="line"/>
      <point x="503" y="250" type="line"/>
      <point x="499" y="250" type="line"/>
      <point x="465" y="358" type="line"/>
      <point x="400" y="554" type="line"/>
      <point x="330" y="554" type="line"/>
    </contour>
  </outline>
</glyph>
<glyph name="zerocircled" format="2">
  <advance width="1000" height="1000"/>
  <unicode hex="24EA"/>
  <unicode hex="1F10B"/>
  <outline>
    <contour>
      <point x="500" y="-86" type="curve"/>
      <point x="755" y="-86"/>
      <point x="966" y="121"/>
      <point x="966" y="380" type="curve"/>
      <point x="966" y="637"/>
      <point x="757" y="846"/>
      <point x="500" y="846" type="curve"/>
      <point x="243" y="846"/>
      <point x="34" y="637"/>
      <point x="34" y="380" type="curve"/>
      <point x="34" y="123"/>
      <point x="243" y="-86"/>
    </contour>
    <contour>
      <point x="500" y="-54" type="curve"/>
      <point x="260" y="-54"/>
      <point x="66" y="140"/>
      <point x="66" y="380" type="curve"/>
      <point x="66" y="618"/>
      <point x="258" y="814"/>
      <point x="500" y="814" type="curve"/>
      <point x="740" y="814"/>
      <point x="934" y="620"/>
      <point x="934" y="380" type="curve"/>
      <point x="934" y="140"/>
      <point x="740" y="-54"/>
    </contour>
    <contour>
      <point x="499" y="115" type="curve"/>
      <point x="620" y="115"/>
      <point x="699" y="219"/>
      <point x="699" y="388" type="curve"/>
      <point x="699" y="557"/>
      <point x="620" y="657"/>
      <point x="499" y="657" type="curve"/>
      <point x="379" y="657"/>
      <point x="301" y="557"/>
      <point x="301" y="388" type="curve"/>
      <point x="301" y="219"/>
      <point x="379" y="115"/>
    </contour>
    <contour>
      <point x="499" y="182" type="curve"/>
      <point x="432" y="182"/>
      <point x="385" y="247"/>
      <point x="385" y="388" type="curve"/>
      <point x="385" y="529"/>
      <point x="432" y="591"/>
      <point x="499" y="591" type="curve"/>
      <point x="566" y="591"/>
      <point x="614" y="529"/>
      <point x="614" y="388" type="curve"/>
      <point x="614" y="247"/>
      <point x="566" y="182"/>
    </contour>
  </outline>
</glyph>
<glyph name="fourteennegativecircled" format="2">
  <advance width="1000" height="1000"/>
  <unicode hex="24EE"/>
  <outline>
    <contour>
      <point x="500" y="-86" type="curve"/>
      <point x="755" y="-86"/>
      <point x="966" y="121"/>
      <point x="966" y="380" type="curve"/>
      <point x="966" y="637"/>
      <point x="757" y="846"/>
      <point x="500" y="846" type="curve"/>
      <point x="243" y="846"/>
      <point x="34" y="637"/>
      <point x="34" y="380" type="curve"/>
      <point x="34" y="123"/>
      <point x="243" y="-86"/>
    </contour>
    <contour>
      <point x="292" y="127" type="line"/>
      <point x="292" y="551" type="line"/>
      <point x="207" y="551" type="line"/>
      <point x="207" y="604" type="line"/>
      <point x="251" y="613"/>
      <point x="282" y="627"/>
      <point x="309" y="645" type="curve"/>
      <point x="369" y="645" type="line"/>
      <point x="369" y="127" type="line"/>
    </contour>
    <contour>
      <point x="653" y="127" type="line"/>
      <point x="653" y="265" type="line"/>
      <point x="450" y="265" type="line"/>
      <point x="450" y="320" type="line"/>
      <point x="634" y="645" type="line"/>
      <point x="726" y="645" type="line"/>
      <point x="726" y="328" type="line"/>
      <point x="784" y="328" type="line"/>
      <point x="784" y="265" type="line"/>
      <point x="726" y="265" type="line"/>
      <point x="726" y="127" type="line"/>
    </contour>
    <contour>
      <point x="527" y="328" type="line"/>
      <point x="653" y="328" type="line"/>
      <point x="653" y="460" type="line"/>
      <point x="653" y="489"/>
      <point x="654" y="534"/>
      <point x="656" y="564" type="curve"/>
      <point x="652" y="564" type="line"/>
      <point x="639" y="536"/>
      <point x="630" y="521"/>
      <point x="616" y="493" type="curve"/>
    </contour>
  </outline>
</glyph>
<glyph name="ninedoublecircled" format="2">
  <advance width="1000" height="1000"/>
  <unicode hex="24FD"/>
  <outline>
    <contour>
      <point x="500" y="-86" type="curve"/>
      <point x="757" y="-86"/>
      <point x="966" y="123"/>
      <point x="966" y="380" type="curve"/>
      <point x="966" y="637"/>
      <point x="757" y="846"/>
      <point x="500" y="846" type="curve"/>
      <point x="245" y="846"/>
      <point x="34" y="639"/>
      <point x="34" y="380" type="curve"/>
      <point x="34" y="123"/>
      <point x="243" y="-86"/>
    </contour>
    <contour>
      <point x="500" y="-61" type="curve"/>
      <point x="258" y="-61"/>
      <point x="59" y="134"/>
      <point x="59" y="380" type="curve"/>
      <point x="59" y="624"/>
      <point x="256" y="821"/>
      <point x="500" y="821" type="curve"/>
      <point x="744" y="821"/>
      <point x="941" y="624"/>
      <point x="941" y="380" type="curve"/>
      <point x="941" y="136"/>
      <point x="744" y="-61"/>
    </contour>
    <contour>
      <point x="500" y="-8" type="curve"/>
      <point x="714" y="-8"/>
      <point x="888" y="166"/>
      <point x="888" y="380" type="curve"/>
      <point x="888" y="594"/>
      <point x="714" y="768"/>
      <point x="500" y="768" type="curve"/>
      <point x="288" y="768"/>
      <point x="112" y="596"/>
      <point x="112" y="380" type="curve"/>
      <point x="112" y="166"/>
      <point x="286" y="-8"/>
    </contour>
    <contour>
      <point x="500" y="16" type="curve"/>
      <point x="301" y="16"/>
      <point x="136" y="177"/>
      <point x="136" y="380" type="curve"/>
      <point x="136" y="581"/>
      <point x="299" y="744"/>
      <point x="500" y="744" type="curve"/>
      <point x="701" y="744"/>
      <point x="864" y="581"/>
      <point x="864" y="380" type="curve"/>
      <point x="864" y="179"/>
      <point x="701" y="16"/>
    </contour>
    <contour>
      <point x="483" y="115" type="curve"/>
      <point x="599" y="115"/>
      <point x="705" y="197"/>
      <point x="705" y="404" type="curve"/>
      <point x="705" y="576"/>
      <point x="616" y="657"/>
      <point x="501" y="657" type="curve"/>
      <point x="407" y="657"/>
      <point x="327" y="590"/>
      <point x="327" y="488" type="curve"/>
      <point x="327" y="379"/>
      <point x="395" y="326"/>
      <point x="492" y="326" type="curve"/>
      <point x="542" y="326"/>
      <point x="592" y="350"/>
      <point x="627" y="389" type="curve"/>
      <point x="623" y="236"/>
      <point x="559" y="182"/>
      <point x="481" y="182" type="curve"/>
      <point x="442" y="182"/>
      <point x="407" y="198"/>
      <point x="383" y="221" type="curve"/>
      <point x="338" y="171" type="line"/>
      <point x="371" y="139"/>
      <point x="418" y="115"/>
    </contour>
    <contour>
      <point x="625" y="451" type="curve"/>
      <point x="588" y="404"/>
      <point x="544" y="385"/>
      <point x="508" y="385" type="curve"/>
      <point x="441" y="385"/>
      <point x="406" y="423"/>
      <point x="406" y="489" type="curve"/>
      <point x="406" y="552"/>
      <point x="449" y="594"/>
      <point x="501" y="594" type="curve"/>
      <point x="571" y="594"/>
      <point x="615" y="546"/>
    </contour>
  </outline>
</glyph>
<glyph name="tendoublecircled" format="2">
  <advance width="1000" height="1000"/>
  <unicode hex="24FE"/>
  <outline>
    <contour>
      <point x="500" y="-86" type="curve"/>
      <point x="757" y="-86"/>
      <point x="966" y="123"/>
      <point x="966" y="380" type="curve"/>
      <point x="966" y="637"/>
      <point x="757" y="846"/>
      <point x="500" y="846" type="curve"/>
      <point x="245" y="846"/>
      <point x="34" y="639"/>
      <point x="34" y="380" type="curve"/>
      <point x="34" y="123"/>
      <point x="243" y="-86"/>
    </contour>
    <contour>
      <point x="500" y="-61" type="curve"/>
      <point x="258" y="-61"/>
      <point x="59" y="134"/>
      <point x="59" y="380" type="curve"/>
      <point x="59" y="624"/>
      <point x="256" y="821"/>
      <point x="500" y="821" type="curve"/>
      <point x="744" y="821"/>
      <point x="941" y="624"/>
      <point x="941" y="380" type="curve"/>
      <point x="941" y="136"/>
      <point x="744" y="-61"/>
    </contour>
    <contour>
      <point x="500" y="-8" type="curve"/>
      <point x="714" y="-8"/>
      <point x="888" y="166"/>
      <point x="888" y="380" type="curve"/>
      <point x="888" y="594"/>
      <point x="714" y="768"/>
      <point x="500" y="768" type="curve"/>
      <point x="288" y="768"/>
      <point x="112" y="596"/>
      <point x="112" y="380" type="curve"/>
      <point x="112" y="166"/>
      <point x="286" y="-8"/>
    </contour>
    <contour>
      <point x="500" y="16" type="curve"/>
      <point x="301" y="16"/>
      <point x="136" y="177"/>
      <point x="136" y="380" type="curve"/>
      <point x="136" y="581"/>
      <point x="299" y="744"/>
      <point x="500" y="744" type="curve"/>
      <point x="701" y="744"/>
      <point x="864" y="581"/>
      <point x="864" y="380" type="curve"/>
      <point x="864" y="179"/>
      <point x="701" y="16"/>
    </contour>
    <contour>
      <point x="325" y="127" type="line"/>
      <point x="403" y="127" type="line"/>
      <point x="403" y="645" type="line"/>
      <point x="344" y="645" type="line"/>
      <point x="317" y="627"/>
      <point x="288" y="613"/>
      <point x="247" y="604" type="curve"/>
      <point x="247" y="551" type="line"/>
      <point x="325" y="551" type="line"/>
    </contour>
    <contour>
      <point x="622" y="115" type="curve"/>
      <point x="719" y="115"/>
      <point x="781" y="219"/>
      <point x="781" y="388" type="curve"/>
      <point x="781" y="557"/>
      <point x="719" y="657"/>
      <point x="622" y="657" type="curve"/>
      <point x="524" y="657"/>
      <point x="462" y="557"/>
      <point x="462" y="388" type="curve"/>
      <point x="462" y="219"/>
      <point x="525" y="115"/>
    </contour>
    <contour>
      <point x="622" y="182" type="curve"/>
      <point x="573" y="182"/>
      <point x="541" y="247"/>
      <point x="541" y="388" type="curve"/>
      <point x="541" y="529"/>
      <point x="573" y="591"/>
      <point x="622" y="591" type="curve"/>
      <point x="669" y="591"/>
      <point x="703" y="529"/>
      <point x="703" y="388" type="curve"/>
      <point x="703" y="247"/>
      <point x="669" y="182"/>
    </contour>
  </outline>
</glyph>
<glyph name="boxdrawingsrightlightandleftupheavy" format="2">
  <advance width="1000" height="1000"/>
  <unicode hex="2539"/>
  <outline>
    <contour>
      <point x="0" y="320" type="line"/>
      <point x="560" y="320" type="line"/>
      <point x="560" y="360" type="line"/>
      <point x="1000" y="360" type="line"/>
      <point x="1000" y="400" type="line"/>
      <point x="560" y="400" type="line"/>
      <point x="560" y="880" type="line"/>
      <point x="440" y="880" type="line"/>
      <point x="440" y="440" type="line"/>
      <point x="0" y="440" type="line"/>
    </contour>
  </outline>
</glyph>
<glyph name="boxdrawingslightarcdownandright" format="2">
  <advance width="1000" height="1000"/>
  <unicode hex="256D"/>
  <outline>
    <contour>
      <point x="520" y="-120" type="line"/>
      <point x="520" y="145"/>
      <point x="735" y="360"/>
      <point x="1000" y="360" type="curve"/>
      <point x="1000" y="400" type="line"/>
      <point x="713" y="400"/>
      <point x="480" y="167"/>
      <point x="480" y="-120" type="curve"/>
    </contour>
  </outline>
</glyph>
<glyph name="boxdrawingslightarcdownandleft" format="2">
  <advance width="1000" height="1000"/>
  <unicode hex="256E"/>
  <outline>
    <contour>
      <point x="480" y="-120" type="curve"/>
      <point x="520" y="-120" type="line"/>
      <point x="520" y="167"/>
      <point x="287" y="400"/>
      <point x="0" y="400" type="curve"/>
      <point x="0" y="360" type="line"/>
      <point x="265" y="360"/>
      <point x="480" y="145"/>
    </contour>
  </outline>
</glyph>
<glyph name="quadrantupperrightandlowerleft" format="2">
  <advance width="1000" height="1000"/>
  <unicode hex="259E"/>
  <outline>
    <contour>
      <point x="500" y="380" type="line"/>
      <point x="1000" y="380" type="line"/>
      <point x="1000" y="880" type="line"/>
      <point x="500" y="880" type="line"/>
    </contour>
    <contour>
      <point x="0" y="-120" type="line"/>
      <point x="500" y="-120" type="line"/>
      <point x="500" y="380" type="line"/>
      <point x="0" y="380" type="line"/>
    </contour>
  </outline>
</glyph>
<glyph name="squarewithorthogonalcrosshatchfill" format="2">
  <advance width="1000" height="1000"/>
  <unicode hex="25A6"/>
  <outline>
    <contour>
      <point x="900" y="780" type="line"/>
      <point x="100" y="780" type="line"/>
      <point x="100" y="-20" type="line"/>
      <point x="900" y="-20" type="line"/>
    </contour>
    <contour>
      <point x="137" y="361" type="line"/>
      <point x="290" y="361" type="line"/>
      <point x="290" y="207" type="line"/>
      <point x="137" y="207" type="line"/>
    </contour>
    <contour>
      <point x="137" y="399" type="line"/>
      <point x="137" y="553" type="line"/>
      <point x="290" y="553" type="line"/>
      <point x="290" y="399" type="line"/>
    </contour>
    <contour>
      <point x="863" y="361" type="line"/>
      <point x="863" y="207" type="line"/>
      <point x="710" y="207" type="line"/>
      <point x="710" y="361" type="line"/>
    </contour>
    <contour>
      <point x="863" y="399" type="line"/>
      <point x="710" y="399" type="line"/>
      <point x="710" y="553" type="line"/>
      <point x="863" y="553" type="line"/>
    </contour>
    <contour>
      <point x="137" y="590" type="line"/>
      <point x="137" y="743" type="line"/>
      <point x="290" y="743" type="line"/>
      <point x="290" y="590" type="line"/>
    </contour>
    <contour>
      <point x="863" y="590" type="line"/>
      <point x="710" y="590" type="line"/>
      <point x="710" y="743" type="line"/>
      <point x="863" y="743" type="line"/>
    </contour>
    <contour>
      <point x="137" y="17" type="line"/>
      <point x="137" y="170" type="line"/>
      <point x="290" y="170" type="line"/>
      <point x="290" y="17" type="line"/>
    </contour>
    <contour>
      <point x="863" y="170" type="line"/>
      <point x="863" y="17" type="line"/>
      <point x="710" y="17" type="line"/>
      <point x="710" y="170" type="line"/>
    </contour>
    <contour>
      <point x="519" y="743" type="line"/>
      <point x="673" y="743" type="line"/>
      <point x="673" y="590" type="line"/>
      <point x="519" y="590" type="line"/>
    </contour>
    <contour>
      <point x="481" y="743" type="line"/>
      <point x="481" y="590" type="line"/>
      <point x="327" y="590" type="line"/>
      <point x="327" y="743" type="line"/>
    </contour>
    <contour>
      <point x="519" y="17" type="line"/>
      <point x="519" y="170" type="line"/>
      <point x="673" y="170" type="line"/>
      <point x="673" y="17" type="line"/>
    </contour>
    <contour>
      <point x="481" y="17" type="line"/>
      <point x="327" y="17" type="line"/>
      <point x="327" y="170" type="line"/>
      <point x="481" y="170" type="line"/>
    </contour>
    <contour>
      <point x="519" y="361" type="line"/>
      <point x="673" y="361" type="line"/>
      <point x="673" y="207" type="line"/>
      <point x="519" y="207" type="line"/>
    </contour>
    <contour>
      <point x="481" y="361" type="line"/>
      <point x="481" y="207" type="line"/>
      <point x="327" y="207" type="line"/>
      <point x="327" y="361" type="line"/>
    </contour>
    <contour>
      <point x="519" y="399" type="line"/>
      <point x="519" y="553" type="line"/>
      <point x="673" y="553" type="line"/>
      <point x="673" y="399" type="line"/>
    </contour>
    <contour>
      <point x="481" y="399" type="line"/>
      <point x="327" y="399" type="line"/>
      <point x="327" y="553" type="line"/>
      <point x="481" y="553" type="line"/>
    </contour>
  </outline>
</glyph>
<glyph name="squarewithupperlefttolowerrightfill" format="2">
  <advance width="1000" height="1000"/>
  <unicode hex="25A7"/>
  <outline>
    <contour>
      <point x="900" y="780" type="line"/>
      <point x="100" y="780" type="line"/>
      <point x="100" y="-20" type="line"/>
      <point x="900" y="-20" type="line"/>
    </contour>
    <contour>
      <point x="137" y="200" type="line"/>
      <point x="137" y="336" type="line"/>
      <point x="456" y="17" type="line"/>
      <point x="319" y="17" type="line"/>
    </contour>
    <contour>
      <point x="137" y="17" type="line"/>
      <point x="137" y="148" type="line"/>
      <point x="268" y="17" type="line"/>
    </contour>
    <contour>
      <point x="137" y="388" type="line"/>
      <point x="137" y="526" type="line"/>
      <point x="646" y="17" type="line"/>
      <point x="507" y="17" type="line"/>
    </contour>
    <contour>
      <point x="137" y="577" type="line"/>
      <point x="137" y="717" type="line"/>
      <point x="837" y="17" type="line"/>
      <point x="697" y="17" type="line"/>
    </contour>
    <contour>
      <point x="163" y="743" type="line"/>
      <point x="302" y="743" type="line"/>
      <point x="863" y="182" type="line"/>
      <point x="863" y="42" type="line"/>
    </contour>
    <contour>
      <point x="679" y="743" type="line"/>
      <point x="863" y="559" type="line"/>
      <point x="863" y="424" type="line"/>
      <point x="544" y="743" type="line"/>
    </contour>
    <contour>
      <point x="732" y="743" type="line"/>
      <point x="863" y="743" type="line"/>
      <point x="863" y="612" type="line"/>
    </contour>
    <contour>
      <point x="491" y="743" type="line"/>
      <point x="863" y="371" type="line"/>
      <point x="863" y="233" type="line"/>
      <point x="353" y="743" type="line"/>
    </contour>
  </outline>
</glyph>
<glyph name="squarewithdiagonalcrosshatchfill" format="2">
  <advance width="1000" height="1000"/>
  <unicode hex="25A9"/>
  <outline>
    <contour>
      <point x="900" y="780" type="line"/>
      <point x="100" y="780" type="line"/>
      <point x="100" y="-20" type="line"/>
      <point x="900" y="-20" type="line"/>
    </contour>
    <contour>
      <point x="137" y="148" type="line"/>
      <point x="191" y="94" type="line"/>
      <point x="137" y="40" type="line"/>
    </contour>
    <contour>
      <point x="268" y="17" type="line"/>
      <point x="165" y="17" type="line"/>
      <point x="216" y="68" type="line"/>
    </contour>
    <contour>
      <point x="137" y="336" type="line"/>
      <point x="189" y="284" type="line"/>
      <point x="137" y="232" type="line"/>
    </contour>
    <contour>
      <point x="456" y="17" type="line"/>
      <point x="357" y="17" type="line"/>
      <point x="406" y="67" type="line"/>
    </contour>
    <contour>
      <point x="137" y="526" type="line"/>
      <point x="189" y="474" type="line"/>
      <point x="137" y="422" type="line"/>
    </contour>
    <contour>
      <point x="646" y="17" type="line"/>
      <point x="548" y="17" type="line"/>
      <point x="597" y="66" type="line"/>
    </contour>
    <contour>
      <point x="137" y="717" type="line"/>
      <point x="190" y="664" type="line"/>
      <point x="137" y="610" type="line"/>
    </contour>
    <contour>
      <point x="163" y="743" type="line"/>
      <point x="270" y="743" type="line"/>
      <point x="216" y="689" type="line"/>
    </contour>
    <contour>
      <point x="863" y="42" type="line"/>
      <point x="812" y="93" type="line"/>
      <point x="863" y="145" type="line"/>
    </contour>
    <contour>
      <point x="837" y="17" type="line"/>
      <point x="736" y="17" type="line"/>
      <point x="786" y="68" type="line"/>
    </contour>
    <contour>
      <point x="732" y="743" type="line"/>
      <point x="840" y="743" type="line"/>
      <point x="786" y="689" type="line"/>
    </contour>
    <contour>
      <point x="863" y="612" type="line"/>
      <point x="811" y="663" type="line"/>
      <point x="863" y="715" type="line"/>
    </contour>
    <contour>
      <point x="544" y="743" type="line"/>
      <point x="648" y="743" type="line"/>
      <point x="596" y="691" type="line"/>
    </contour>
    <contour>
      <point x="863" y="424" type="line"/>
      <point x="813" y="474" type="line"/>
      <point x="863" y="524" type="line"/>
    </contour>
    <contour>
      <point x="353" y="743" type="line"/>
      <point x="458" y="743" type="line"/>
      <point x="405" y="690" type="line"/>
    </contour>
    <contour>
      <point x="863" y="233" type="line"/>
      <point x="813" y="283" type="line"/>
      <point x="863" y="333" type="line"/>
    </contour>
    <contour>
      <point x="313" y="24" type="line"/>
      <point x="242" y="94" type="line"/>
      <point x="311" y="162" type="line"/>
      <point x="381" y="92" type="line"/>
    </contour>
    <contour>
      <point x="217" y="120" type="line"/>
      <point x="147" y="190" type="line"/>
      <point x="215" y="258" type="line"/>
      <point x="285" y="188" type="line"/>
    </contour>
    <contour>
      <point x="501" y="24" type="line"/>
      <point x="432" y="92" type="line"/>
      <point x="501" y="162" type="line"/>
      <point x="570" y="93" type="line"/>
    </contour>
    <contour>
      <point x="407" y="118" type="line"/>
      <point x="336" y="188" type="line"/>
      <point x="406" y="258" type="line"/>
      <point x="476" y="187" type="line"/>
    </contour>
    <contour>
      <point x="311" y="214" type="line"/>
      <point x="241" y="284" type="line"/>
      <point x="310" y="353" type="line"/>
      <point x="380" y="283" type="line"/>
    </contour>
    <contour>
      <point x="215" y="310" type="line"/>
      <point x="146" y="379" type="line"/>
      <point x="215" y="448" type="line"/>
      <point x="284" y="379" type="line"/>
    </contour>
    <contour>
      <point x="690" y="24" type="line"/>
      <point x="622" y="92" type="line"/>
      <point x="692" y="162" type="line"/>
      <point x="760" y="94" type="line"/>
    </contour>
    <contour>
      <point x="596" y="119" type="line"/>
      <point x="527" y="187" type="line"/>
      <point x="597" y="257" type="line"/>
      <point x="666" y="189" type="line"/>
    </contour>
    <contour>
      <point x="501" y="213" type="line"/>
      <point x="431" y="283" type="line"/>
      <point x="501" y="353" type="line"/>
      <point x="571" y="283" type="line"/>
    </contour>
    <contour>
      <point x="406" y="309" type="line"/>
      <point x="336" y="378" type="line"/>
      <point x="406" y="448" type="line"/>
      <point x="476" y="379" type="line"/>
    </contour>
    <contour>
      <point x="310" y="405" type="line"/>
      <point x="241" y="474" type="line"/>
      <point x="311" y="544" type="line"/>
      <point x="380" y="475" type="line"/>
    </contour>
    <contour>
      <point x="215" y="500" type="line"/>
      <point x="147" y="568" type="line"/>
      <point x="217" y="638" type="line"/>
      <point x="285" y="570" type="line"/>
    </contour>
    <contour>
      <point x="785" y="120" type="line"/>
      <point x="718" y="187" type="line"/>
      <point x="788" y="257" type="line"/>
      <point x="855" y="190" type="line"/>
    </contour>
    <contour>
      <point x="691" y="214" type="line"/>
      <point x="622" y="283" type="line"/>
      <point x="692" y="353" type="line"/>
      <point x="761" y="284" type="line"/>
    </contour>
    <contour>
      <point x="597" y="308" type="line"/>
      <point x="527" y="379" type="line"/>
      <point x="597" y="449" type="line"/>
      <point x="667" y="378" type="line"/>
    </contour>
    <contour>
      <point x="501" y="404" type="line"/>
      <point x="432" y="474" type="line"/>
      <point x="501" y="544" type="line"/>
      <point x="571" y="474" type="line"/>
    </contour>
    <contour>
      <point x="405" y="500" type="line"/>
      <point x="336" y="569" type="line"/>
      <point x="406" y="639" type="line"/>
      <point x="475" y="570" type="line"/>
    </contour>
    <contour>
      <point x="310" y="595" type="line"/>
      <point x="242" y="663" type="line"/>
      <point x="312" y="733" type="line"/>
      <point x="380" y="665" type="line"/>
    </contour>
    <contour>
      <point x="855" y="567" type="line"/>
      <point x="788" y="499" type="line"/>
      <point x="718" y="570" type="line"/>
      <point x="785" y="637" type="line"/>
    </contour>
    <contour>
      <point x="760" y="663" type="line"/>
      <point x="692" y="595" type="line"/>
      <point x="622" y="665" type="line"/>
      <point x="690" y="732" type="line"/>
    </contour>
    <contour>
      <point x="856" y="379" type="line"/>
      <point x="787" y="310" type="line"/>
      <point x="718" y="378" type="line"/>
      <point x="787" y="447" type="line"/>
    </contour>
    <contour>
      <point x="761" y="473" type="line"/>
      <point x="692" y="404" type="line"/>
      <point x="622" y="474" type="line"/>
      <point x="691" y="543" type="line"/>
    </contour>
    <contour>
      <point x="666" y="569" type="line"/>
      <point x="597" y="500" type="line"/>
      <point x="527" y="569" type="line"/>
      <point x="596" y="638" type="line"/>
    </contour>
    <contour>
      <point x="570" y="665" type="line"/>
      <point x="501" y="596" type="line"/>
      <point x="432" y="665" type="line"/>
      <point x="501" y="734" type="line"/>
    </contour>
  </outline>
</glyph>
<glyph name="cloud" format="2">
  <advance width="1000" height="1000"/>
  <unicode hex="2601"/>
  <outline>
    <contour>
      <point x="973" y="285" type="curve"/>
      <point x="971" y="288"/>
      <point x="968" y="291"/>
      <point x="963" y="291" type="curve"/>
      <point x="924" y="295"/>
      <point x="893" y="303"/>
      <point x="868" y="314" type="curve"/>
      <point x="876" y="336"/>
      <point x="881" y="361"/>
      <point x="881" y="385" type="curve"/>
      <point x="881" y="471"/>
      <point x="847" y="521"/>
      <point x="818" y="549" type="curve"/>
      <point x="783" y="583"/>
      <point x="735" y="602"/>
      <point x="687" y="602" type="curve"/>
      <point x="664" y="602"/>
      <point x="642" y="599"/>
      <point x="616" y="591" type="curve"/>
      <point x="607" y="609"/>
      <point x="595" y="626"/>
      <point x="582" y="641" type="curve"/>
      <point x="562" y="663"/>
      <point x="538" y="681"/>
      <point x="511" y="693" type="curve"/>
      <point x="482" y="707"/>
      <point x="450" y="713"/>
      <point x="417" y="713" type="curve"/>
      <point x="324" y="713"/>
      <point x="266" y="670"/>
      <point x="234" y="634" type="curve"/>
      <point x="197" y="591"/>
      <point x="174" y="535"/>
      <point x="173" y="480" type="curve"/>
      <point x="153" y="473"/>
      <point x="133" y="463"/>
      <point x="113" y="447" type="curve"/>
      <point x="80" y="421"/>
      <point x="41" y="371"/>
      <point x="41" y="283" type="curve"/>
      <point x="41" y="216"/>
      <point x="66" y="159"/>
      <point x="113" y="120" type="curve"/>
      <point x="153" y="88"/>
      <point x="207" y="69"/>
      <point x="262" y="69" type="curve"/>
      <point x="279" y="69"/>
      <point x="348" y="73"/>
      <point x="382" y="94" type="curve"/>
      <point x="443" y="49"/>
      <point x="513" y="26"/>
      <point x="591" y="26" type="curve"/>
      <point x="695" y="26"/>
      <point x="785" y="57"/>
      <point x="857" y="118" type="curve"/>
      <point x="918" y="169"/>
      <point x="954" y="231"/>
      <point x="974" y="273" type="curve"/>
      <point x="975" y="277"/>
      <point x="975" y="281"/>
    </contour>
    <contour>
      <point x="841" y="138" type="curve"/>
      <point x="773" y="80"/>
      <point x="689" y="51"/>
      <point x="591" y="51" type="curve"/>
      <point x="414" y="51"/>
      <point x="328" y="177"/>
      <point x="295" y="225" type="curve"/>
      <point x="294" y="226"/>
      <point x="293" y="228"/>
      <point x="292" y="229" type="curve"/>
      <point x="288" y="235"/>
      <point x="280" y="236"/>
      <point x="275" y="232" type="curve"/>
      <point x="269" y="228"/>
      <point x="267" y="220"/>
      <point x="271" y="214" type="curve"/>
      <point x="272" y="213"/>
      <point x="273" y="212"/>
      <point x="274" y="210" type="curve"/>
      <point x="289" y="188"/>
      <point x="316" y="150"/>
      <point x="358" y="113" type="curve"/>
      <point x="331" y="102"/>
      <point x="284" y="97"/>
      <point x="262" y="97" type="curve"/>
      <point x="213" y="97"/>
      <point x="165" y="113"/>
      <point x="131" y="142" type="curve"/>
      <point x="90" y="175"/>
      <point x="69" y="224"/>
      <point x="69" y="283" type="curve"/>
      <point x="69" y="316"/>
      <point x="75" y="346"/>
      <point x="87" y="371" type="curve"/>
      <point x="97" y="392"/>
      <point x="112" y="411"/>
      <point x="131" y="425" type="curve"/>
      <point x="166" y="454"/>
      <point x="206" y="461"/>
      <point x="223" y="461" type="curve"/>
      <point x="261" y="461"/>
      <point x="284" y="454"/>
      <point x="297" y="447" type="curve"/>
      <point x="304" y="444"/>
      <point x="312" y="447"/>
      <point x="315" y="453" type="curve"/>
      <point x="319" y="460"/>
      <point x="316" y="469"/>
      <point x="309" y="472" type="curve"/>
      <point x="287" y="483"/>
      <point x="257" y="489"/>
      <point x="223" y="489" type="curve"/>
      <point x="217" y="489"/>
      <point x="209" y="488"/>
      <point x="201" y="487" type="curve"/>
      <point x="204" y="533"/>
      <point x="224" y="580"/>
      <point x="255" y="615" type="curve"/>
      <point x="283" y="647"/>
      <point x="334" y="686"/>
      <point x="417" y="686" type="curve"/>
      <point x="489" y="686"/>
      <point x="535" y="651"/>
      <point x="561" y="622" type="curve"/>
      <point x="595" y="585"/>
      <point x="615" y="533"/>
      <point x="617" y="480" type="curve"/>
      <point x="617" y="472"/>
      <point x="624" y="466"/>
      <point x="631" y="467" type="curve"/>
      <point x="639" y="467"/>
      <point x="645" y="473"/>
      <point x="645" y="481" type="curve"/>
      <point x="644" y="510"/>
      <point x="638" y="538"/>
      <point x="628" y="565" type="curve"/>
      <point x="649" y="571"/>
      <point x="667" y="573"/>
      <point x="687" y="573" type="curve"/>
      <point x="728" y="573"/>
      <point x="768" y="557"/>
      <point x="798" y="528" type="curve"/>
      <point x="834" y="494"/>
      <point x="852" y="445"/>
      <point x="852" y="385" type="curve"/>
      <point x="852" y="348"/>
      <point x="839" y="310"/>
      <point x="818" y="285" type="curve"/>
      <point x="813" y="279"/>
      <point x="813" y="270"/>
      <point x="819" y="265" type="curve"/>
      <point x="822" y="263"/>
      <point x="825" y="262"/>
      <point x="829" y="262" type="curve"/>
      <point x="833" y="262"/>
      <point x="837" y="263"/>
      <point x="839" y="267" type="curve"/>
      <point x="846" y="274"/>
      <point x="852" y="282"/>
      <point x="857" y="292" type="curve"/>
      <point x="881" y="281"/>
      <point x="909" y="273"/>
      <point x="943" y="268" type="curve"/>
      <point x="923" y="229"/>
      <point x="891" y="180"/>
    </contour>
  </outline>
</glyph>
<glyph name="blacktelephone" format="2">
  <advance width="1000" height="1000"/>
  <unicode hex="260E"/>
  <outline>
    <contour>
      <point x="263" y="464" type="curve"/>
      <point x="222" y="570" type="line"/>
      <point x="329" y="570" type="line"/>
      <point x="329" y="506" type="line"/>
      <point x="329" y="436"/>
      <point x="284" y="384"/>
      <point x="210" y="312" type="curve"/>
      <point x="141" y="245"/>
      <point x="118" y="162"/>
      <point x="118" y="74" type="curve"/>
      <point x="118" y="42"/>
      <point x="130" y="27"/>
      <point x="164" y="27" type="curve"/>
      <point x="836" y="27" type="line"/>
      <point x="870" y="27"/>
      <point x="882" y="42"/>
      <point x="882" y="74" type="curve"/>
      <point x="882" y="162"/>
      <point x="859" y="245"/>
      <point x="790" y="312" type="curve"/>
      <point x="716" y="384"/>
      <point x="671" y="436"/>
      <point x="671" y="506" type="curve"/>
      <point x="671" y="570" type="line"/>
      <point x="778" y="570" type="line"/>
      <point x="737" y="464" type="line"/>
      <point x="730" y="448"/>
      <point x="730" y="431"/>
      <point x="750" y="427" type="curve"/>
      <point x="932" y="396" type="line"/>
      <point x="950" y="394"/>
      <point x="960" y="404"/>
      <point x="960" y="424" type="curve"/>
      <point x="960" y="468"/>
      <point x="954" y="564"/>
      <point x="906" y="601" type="curve"/>
      <point x="822" y="666"/>
      <point x="712" y="701"/>
      <point x="500" y="701" type="curve"/>
      <point x="288" y="701"/>
      <point x="178" y="666"/>
      <point x="94" y="601" type="curve"/>
      <point x="46" y="564"/>
      <point x="40" y="468"/>
      <point x="40" y="424" type="curve"/>
      <point x="40" y="404"/>
      <point x="50" y="394"/>
      <point x="68" y="396" type="curve"/>
      <point x="250" y="427" type="line"/>
      <point x="270" y="431"/>
      <point x="270" y="448"/>
    </contour>
    <contour>
      <point x="415" y="570" type="line"/>
      <point x="585" y="570" type="line"/>
      <point x="585" y="474" type="line"/>
      <point x="415" y="474" type="line"/>
    </contour>
    <contour>
      <point x="500" y="82" type="curve"/>
      <point x="407" y="82"/>
      <point x="332" y="157"/>
      <point x="332" y="250" type="curve"/>
      <point x="332" y="343"/>
      <point x="407" y="418"/>
      <point x="500" y="418" type="curve"/>
      <point x="593" y="418"/>
      <point x="668" y="343"/>
      <point x="668" y="250" type="curve"/>
      <point x="668" y="157"/>
      <point x="593" y="82"/>
    </contour>
  </outline>
</glyph>
